<?xml version="1.0" standalone="no"?>
<!DOCTYPE svg PUBLIC "-//W3C//DTD SVG 1.1//EN" "http://www.w3.org/Graphics/SVG/1.1/DTD/svg11.dtd" >
<svg xmlns="http://www.w3.org/2000/svg" xmlns:xlink="http://www.w3.org/1999/xlink" version="1.1">
<metadata></metadata>
<defs>
<font id="foundation_sansblack" horiz-adv-x="1024" >
<font-face units-per-em="2048" ascent="1690" descent="-358" />
<missing-glyph horiz-adv-x="614" />
<glyph unicode="&#xfb01;" horiz-adv-x="1312" d="M10 750v239h140v39q0 167 86.5 252.5t255.5 85.5h219v-266h-90q-89 0 -89 -74v-37h179v-239h-179v-750h-382v750h-140zM819 0v989h383v-989h-383zM819 1094v272h383v-272h-383z" />
<glyph unicode="&#xfb02;" horiz-adv-x="1312" d="M10 750v239h140v39q0 167 86.5 252.5t255.5 85.5h219v-266h-90q-89 0 -89 -74v-37h179v-239h-179v-750h-382v750h-140zM819 0v1366h383v-1366h-383z" />
<glyph horiz-adv-x="0" />
<glyph horiz-adv-x="682" />
<glyph unicode=" "  horiz-adv-x="614" />
<glyph unicode="&#x09;" horiz-adv-x="614" />
<glyph unicode="&#xa0;" horiz-adv-x="614" />
<glyph unicode="!" horiz-adv-x="645" d="M125 0v395h395v-395h-395zM125 1044v322h395v-322l-100 -538h-195z" />
<glyph unicode="&#x22;" horiz-adv-x="1030" d="M27 1366h454l-80 -547h-295zM547 1366h454l-79 -547h-295z" />
<glyph unicode="#" horiz-adv-x="1368" d="M164 412l24 180h197l25 172h-197l25 180h196l41 293h187l-41 -293h182l41 293h186l-41 -293h215l-24 -180h-217l-25 -172h217l-25 -180h-217l-45 -320h-186l45 320h-182l-45 -320h-187l45 320h-194zM571 592h183l22 172h-182z" />
<glyph unicode="$" horiz-adv-x="1337" d="M92 459h389q6 -69 35 -104.5t92 -47.5v240q-122 35 -182.5 57t-106.5 49q-196 115 -196 328q0 313 358 377q32 6 127 14v158h158v-158q465 -18 465 -409q0 -11 -2 -19h-365q-6 111 -98 137v-223q142 -36 201 -63q282 -124 282 -385q0 -170 -126.5 -279t-356.5 -137v-178 h-158v178q-256 12 -383 126.5t-133 338.5zM506 991q0 -33 23 -54t79 -40v188q-102 -18 -102 -94zM766 303q104 15 104 105q0 36 -22.5 56.5t-81.5 37.5v-199z" />
<glyph unicode="%" horiz-adv-x="1894" d="M55 899q0 189 104.5 312.5t264.5 123.5q163 0 267 -124t104 -318q0 -186 -105.5 -309t-263.5 -123q-161 0 -266 124t-105 314zM301 899q0 -110 32.5 -171.5t90.5 -61.5q59 0 92 61t33 168q0 113 -32.5 174t-92.5 61q-58 0 -90.5 -61t-32.5 -170zM528 0l605 1325h225 l-604 -1325h-226zM1102 428q0 189 104 312.5t264 123.5q163 0 267 -124t104 -318q0 -186 -105 -309t-263 -123q-161 0 -266 124t-105 314zM1348 428q0 -111 32 -172t90 -61q59 0 92 61t33 168q0 113 -32.5 174t-92.5 61q-58 0 -90 -61t-32 -170z" />
<glyph unicode="&#x26;" horiz-adv-x="1402" d="M61 389q0 274 291 404q-60 85 -81 136t-21 111q0 149 121.5 251t298.5 102q175 0 290 -104.5t115 -262.5q0 -106 -53.5 -186.5t-167.5 -143.5l98 -116q22 20 31.5 37.5t20.5 54.5h327q-27 -162 -172 -334l289 -338h-457l-82 104q-103 -74 -183.5 -102.5t-186.5 -28.5 q-206 0 -342 118t-136 298zM424 397q0 -51 34.5 -83.5t88.5 -32.5q80 0 155 75l-151 187q-65 -26 -96 -61.5t-31 -84.5zM584 1059q0 -29 14.5 -54t65.5 -85q104 48 104 131q0 43 -25 69.5t-65 26.5t-67 -25.5t-27 -62.5z" />
<glyph unicode="'" horiz-adv-x="524" d="M27 1366h469l-80 -547h-310z" />
<glyph unicode="(" horiz-adv-x="733" d="M96 500q0 226 54 448.5t157 417.5h328q-92 -219 -134 -417t-42 -419q0 -237 50 -477.5t136 -414.5h-338q-211 435 -211 862z" />
<glyph unicode=")" horiz-adv-x="733" d="M88 1366h338q211 -435 211 -862q0 -226 -54 -448.5t-157 -417.5h-328q92 215 134 414t42 421q0 237 -50 479t-136 414z" />
<glyph unicode="*" horiz-adv-x="946" d="M68 991l67 207l234 -78l-4 246h215l-2 -246l233 80l68 -205l-236 -75l148 -197l-175 -127l-143 201l-141 -203l-174 127l145 199z" />
<glyph unicode="+" d="M2 666v188h410v418h196v-418h414v-188h-414v-420h-196v420h-410z" />
<glyph unicode="," horiz-adv-x="616" d="M111 0v395h395v-319q0 -138 -37 -220.5t-125 -136.5q-88 -57 -233 -63v168q72 4 118.5 53t51.5 123h-170z" />
<glyph unicode="-" horiz-adv-x="604" d="M0 342v328h604v-328h-604z" />
<glyph unicode="." horiz-adv-x="616" d="M111 0v395h395v-395h-395z" />
<glyph unicode="/" horiz-adv-x="831" d="M0 0l438 1366h363l-439 -1366h-362z" />
<glyph unicode="0" horiz-adv-x="1337" d="M78 676q0 201 76 362t211 251.5t303 90.5q171 0 306 -90.5t210.5 -253t75.5 -368.5q0 -196 -76.5 -355t-212 -249.5t-303.5 -90.5t-303 90.5t-211 251.5t-76 361zM440 678q0 -188 60 -292.5t168 -104.5q107 0 168 103.5t61 287.5q0 192 -59.5 296.5t-169.5 104.5 q-107 0 -167.5 -104t-60.5 -291z" />
<glyph unicode="1" horiz-adv-x="1337" d="M270 780v283q182 -3 284.5 72t111.5 217h317v-1352h-395v780h-318z" />
<glyph unicode="2" horiz-adv-x="1337" d="M113 0q2 77 9.5 131.5t31 110t56 98.5t95 99.5t137 111.5t191.5 135q99 67 136.5 115t37.5 104q0 61 -41.5 100t-106.5 39q-95 0 -140.5 -58.5t-45.5 -180.5v-41h-350v70q0 253 149.5 399.5t407.5 146.5q229 0 372.5 -124t143.5 -322q0 -177 -131 -311q-38 -38 -84 -72 t-188 -127q-61 -40 -105 -82h537v-342h-1112z" />
<glyph unicode="3" horiz-adv-x="1337" d="M129 524h356v-22q0 -97 49.5 -152t137.5 -55q72 0 117 39.5t45 103.5q0 70 -51 111.5t-136 38.5l-57 -2l-17 -2v258q35 -2 64 -2q97 0 141.5 27t44.5 87q0 56 -40.5 90.5t-106.5 34.5q-98 0 -137 -67q-18 -33 -23 -113h-352q8 235 140.5 358t379.5 123q220 0 357 -109 t137 -286q0 -78 -34.5 -135.5t-109.5 -108.5q99 -56 144 -130t45 -181q0 -195 -152 -328q-147 -129 -391 -129q-268 0 -410 142t-141 409z" />
<glyph unicode="4" horiz-adv-x="1337" d="M88 291v368l592 693h375v-738h184v-323h-184v-291h-389v291h-578zM379 614h287v160v53v41v50v34l-131 -153z" />
<glyph unicode="5" horiz-adv-x="1337" d="M100 387l387 41q15 -66 63.5 -103.5t117.5 -37.5q78 0 127 53t49 139q0 82 -50 133.5t-128 51.5q-104 0 -154 -95h-354l133 783h854v-328h-555l-37 -154q122 50 233 50q196 0 318.5 -124.5t122.5 -324.5q0 -226 -151 -362t-402 -136q-243 0 -393 108.5t-181 305.5z" />
<glyph unicode="6" horiz-adv-x="1337" d="M104 662q0 341 158.5 529.5t444.5 188.5q206 0 333 -90.5t168 -267.5l-352 -16q-22 49 -58 71.5t-93 22.5q-96 0 -154 -64.5t-68 -183.5q133 104 287 104q198 0 330.5 -137t132.5 -342q0 -221 -153 -362.5t-392 -141.5q-271 0 -427.5 184.5t-156.5 504.5zM494 473 q0 -86 53 -142.5t135 -56.5q81 0 134.5 55.5t53.5 139.5q0 88 -52.5 144.5t-135.5 56.5q-82 0 -135 -56t-53 -141z" />
<glyph unicode="7" horiz-adv-x="1337" d="M135 997v355h1069v-318q-179 -160 -293.5 -452t-111.5 -582h-428q26 299 139.5 563.5t288.5 433.5h-664z" />
<glyph unicode="8" horiz-adv-x="1337" d="M96 395q0 109 48 187t151 135q-72 65 -104.5 130.5t-32.5 149.5q0 170 141.5 276.5t368.5 106.5q229 0 369.5 -105.5t140.5 -277.5q0 -84 -32.5 -149.5t-105.5 -130.5q104 -57 152.5 -135t48.5 -187q0 -192 -155.5 -307t-417.5 -115q-261 0 -416.5 115t-155.5 307z M459 440q0 -74 58.5 -120t152.5 -46q92 0 150.5 46t58.5 118q0 76 -58 122t-153 46q-93 0 -151 -46t-58 -120zM479 969q0 -66 51.5 -106t137.5 -40q85 0 136.5 39.5t51.5 104.5q0 68 -50.5 107.5t-137.5 39.5q-86 0 -137.5 -39.5t-51.5 -105.5z" />
<glyph unicode="9" horiz-adv-x="1337" d="M100 870q0 224 156.5 367t402.5 143q123 0 228.5 -42.5t179.5 -123.5q170 -179 170 -526q0 -338 -156.5 -526.5t-439.5 -188.5q-125 0 -228 34t-169 97q-45 42 -70.5 94.5t-40.5 133.5l369 12q44 -84 143 -84q106 0 158 90q30 53 43 146q-82 -55 -144 -76t-145 -21 q-196 0 -326.5 134t-130.5 337zM463 883q0 -85 54.5 -141t137.5 -56t138 55t55 140q0 88 -54 143t-139 55q-83 0 -137.5 -55.5t-54.5 -140.5z" />
<glyph unicode=":" horiz-adv-x="616" d="M111 0v395h395v-395h-395zM111 594v395h395v-395h-395z" />
<glyph unicode=";" horiz-adv-x="616" d="M111 0v395h395v-319q0 -138 -37 -220.5t-125 -136.5q-88 -57 -233 -63v168q72 4 118.5 53t51.5 123h-170zM111 594v395h395v-395h-395z" />
<glyph unicode="&#x3c;" d="M68 520v348l886 502v-416l-446 -262l444 -260l2 -414z" />
<glyph unicode="=" d="M2 506v184h1022v-184h-1022zM2 829v183h1022v-183h-1022z" />
<glyph unicode="&#x3e;" d="M68 18v416l446 260l-444 262l-2 414l886 -504v-346z" />
<glyph unicode="?" horiz-adv-x="1157" d="M55 911q13 230 153.5 356t383.5 126q229 0 370.5 -114.5t141.5 -299.5q0 -113 -62 -184q-26 -29 -54 -48.5t-107 -64.5q-91 -51 -115.5 -80.5t-28.5 -95.5h-352q0 151 37 222t143 120q84 39 109.5 64.5t25.5 68.5t-30.5 69.5t-79.5 26.5q-68 0 -100 -40t-33 -126h-402z M362 0v395h396v-395h-396z" />
<glyph unicode="@" horiz-adv-x="1363" d="M27 670q0 141 54 268t146 218t220 144.5t270 53.5q126 0 241 -45.5t198.5 -122t133 -182t49.5 -220.5q0 -114 -49 -212t-139 -166q-57 -43 -126 -69t-126 -26q-98 0 -147 74q-73 -47 -116 -63.5t-93 -16.5q-112 0 -186 79.5t-74 199.5q0 108 56.5 210t148.5 165t190 63 q119 0 199 -86l18 53h201l-154 -483q-18 -55 -18 -64q0 -15 13 -25.5t28 -10.5q31 0 77.5 30.5t81.5 73.5q44 54 68.5 123.5t24.5 138.5q0 126 -68 233.5t-183 170.5t-249 63q-154 0 -282 -74.5t-201.5 -204.5t-73.5 -286q0 -158 75 -290t205 -208t285 -76q134 0 257.5 67.5 t199.5 182.5h143q-86 -166 -252.5 -267t-355.5 -101q-188 0 -347 92t-251 250t-92 346zM504 512q0 -51 21.5 -81t58.5 -30q53 0 94 47t76 148l45 129q20 61 20 98q0 38 -22 64t-54 26q-45 0 -90.5 -40.5t-79.5 -110.5q-29 -63 -49 -135t-20 -115z" />
<glyph unicode="A" horiz-adv-x="1380" d="M-14 0l485 1366h430l492 -1366h-432l-60 188h-430l-61 -188h-424zM567 487h242l-121 392z" />
<glyph unicode="B" horiz-adv-x="1441" d="M133 0v1366h707q139 0 218 -22t138 -78q107 -96 107 -256q0 -86 -37 -148.5t-119 -116.5q221 -101 221 -342q0 -87 -31.5 -167t-87.5 -134q-58 -58 -135 -80t-225 -22h-756zM543 334h262q168 0 168 121q0 118 -168 118h-262v-239zM543 850h254q123 0 123 102 q0 101 -123 101h-254v-203z" />
<glyph unicode="C" horiz-adv-x="1445" d="M80 694q0 200 88 361t244.5 251.5t351.5 90.5q246 0 414.5 -142t212.5 -387l-408 -8q-17 90 -78.5 142.5t-148.5 52.5q-118 0 -192.5 -102t-74.5 -265q0 -161 78 -269t195 -108q92 0 148 57.5t73 166.5h418q-10 -104 -36.5 -179t-76.5 -143q-85 -115 -222 -179.5 t-298 -64.5q-198 0 -355 92.5t-245 258.5t-88 374z" />
<glyph unicode="D" horiz-adv-x="1488" d="M133 0v1366h563q202 0 323.5 -41.5t213.5 -142.5q176 -194 176 -508q0 -272 -141 -451q-94 -115 -227.5 -169t-325.5 -54h-582zM543 342h145q311 0 311 328q0 150 -71 250q-41 55 -101 79.5t-151 24.5h-133v-682z" />
<glyph unicode="E" horiz-adv-x="1392" d="M133 0v1366h1151v-342h-741v-166h649v-313h-649v-183h774v-362h-1184z" />
<glyph unicode="F" horiz-adv-x="1273" d="M133 0v1366h1092v-362h-682v-181h557v-342h-557v-481h-410z" />
<glyph unicode="G" horiz-adv-x="1531" d="M80 682q0 210 86 372.5t242 252.5t358 90q252 0 423.5 -136.5t211.5 -367.5l-406 -8q-22 80 -80.5 125t-144.5 45q-127 0 -196.5 -95.5t-69.5 -269.5q0 -189 76.5 -291t218.5 -102q86 0 147.5 40t87.5 114h-178v301h571v-752h-270l-27 117q-170 -148 -403 -148 q-184 0 -332 91.5t-231.5 255t-83.5 366.5z" />
<glyph unicode="H" horiz-adv-x="1480" d="M133 0v1366h410v-463h393v463h410v-1366h-410v541h-393v-541h-410z" />
<glyph unicode="I" horiz-adv-x="698" d="M137 0v1366h424v-1366h-424z" />
<glyph unicode="J" horiz-adv-x="1191" d="M31 496v86h395v-113q0 -145 111 -145q110 0 110 145v897h410v-885q0 -150 -23.5 -225.5t-89.5 -140.5q-72 -71 -174.5 -108.5t-222.5 -37.5q-239 0 -377.5 141.5t-138.5 385.5z" />
<glyph unicode="K" horiz-adv-x="1488" d="M133 0v1366h410v-444l389 444h528l-512 -541l568 -825h-515l-331 530l-127 -133v-397h-410z" />
<glyph unicode="L" horiz-adv-x="1200" d="M133 0v1366h424v-1004h608v-362h-1032z" />
<glyph unicode="M" horiz-adv-x="1728" d="M133 0v1366h551l180 -733l180 733h551v-1366h-374v391v199l2 102q0 56 2 142l-201 -834h-319l-201 834q4 -200 4 -406v-428h-375z" />
<glyph unicode="N" horiz-adv-x="1488" d="M133 0v1366h399l418 -709q-2 44 -2.5 109t-1.5 90l-2 154v137v219h410v-1366h-396l-421 725q1 -14 4 -209l2 -145v-164v-207h-410z" />
<glyph unicode="O" horiz-adv-x="1564" d="M80 684q0 156 51.5 288.5t143 226t222.5 146t285 52.5q317 0 511 -199t194 -524q0 -310 -197.5 -507.5t-507.5 -197.5q-206 0 -365.5 90t-248 252.5t-88.5 372.5zM504 684q0 -170 76 -271.5t202 -101.5q127 0 204 101t77 268q0 172 -76 273.5t-205 101.5 q-126 0 -202 -101t-76 -270z" />
<glyph unicode="P" horiz-adv-x="1368" d="M133 0v1366h653q145 0 237.5 -30.5t162.5 -100.5q137 -134 137 -352q0 -114 -41 -208t-119 -157q-69 -57 -153.5 -81.5t-212.5 -24.5h-254v-412h-410zM543 745h200q81 0 125.5 37t44.5 103q0 67 -44 103t-126 36h-200v-279z" />
<glyph unicode="Q" horiz-adv-x="1564" d="M80 684q0 209 88.5 371t248.5 252t367 90q312 0 507.5 -198.5t195.5 -514.5q0 -281 -158 -475l166 -160l-184 -190l-193 184q-154 -74 -336 -74q-206 0 -365.5 90t-248 252.5t-88.5 372.5zM504 684q0 -170 76 -271.5t202 -101.5q14 0 54 4l-113 109l184 192l125 -120 q31 82 31 188q0 168 -76.5 269.5t-202.5 101.5q-127 0 -203.5 -101t-76.5 -270z" />
<glyph unicode="R" horiz-adv-x="1445" d="M133 0v1366h639q176 0 263.5 -15.5t156.5 -58.5q75 -47 117.5 -131.5t42.5 -185.5q0 -227 -201 -340q87 -40 132 -109t58 -184l27 -225q6 -49 12 -69.5t21 -47.5h-414q-14 24 -19.5 44.5t-9.5 72.5l-8 96q-13 155 -61.5 209.5t-173.5 54.5h-172v-477h-410zM543 778h209 q98 0 144 33t46 104t-46 104.5t-144 33.5h-209v-275z" />
<glyph unicode="S" horiz-adv-x="1345" d="M55 457h420q3 -76 57.5 -118t149.5 -42q78 0 129 30t51 74q0 31 -26.5 52t-90.5 41l-270 84q-114 35 -182.5 74t-112.5 93q-80 99 -80 230q0 189 155.5 305.5t406.5 116.5q160 0 279 -47.5t187 -135.5q41 -55 59.5 -110.5t24.5 -142.5h-393q-37 122 -166 122 q-61 0 -102 -23.5t-41 -58.5q0 -26 18.5 -42.5t59.5 -28.5l260 -76q235 -69 332.5 -163t97.5 -253q0 -211 -166.5 -340t-437.5 -129q-161 0 -293 50.5t-215 144.5q-53 59 -78.5 125.5t-32.5 167.5z" />
<glyph unicode="T" horiz-adv-x="1220" d="M6 1004v362h1206v-362h-391v-1004h-424v1004h-391z" />
<glyph unicode="U" horiz-adv-x="1503" d="M133 485v881h410v-842q0 -103 53.5 -158t153.5 -55q101 0 154.5 55t53.5 158v842h410v-881q0 -139 -35.5 -228t-118.5 -153q-169 -135 -462 -135q-291 0 -463 135q-83 66 -119.5 154.5t-36.5 226.5z" />
<glyph unicode="V" horiz-adv-x="1259" d="M-14 1366h430l135 -502q57 -208 86 -383q35 170 46 218t42 165l133 502h414l-414 -1366h-457z" />
<glyph unicode="W" horiz-adv-x="1818" d="M-14 1366h417l132 -639q22 -116 30 -199q6 79 31 199l131 639h369l133 -633q4 -30 10 -57l8 -49q9 -56 13 -99l14 99q2 7 4 24t4 25q2 12 4.5 26t4 22t1.5 9l127 633h414l-352 -1366h-414l-115 590q-25 127 -37 262q-9 -91 -41 -262l-114 -590h-404z" />
<glyph unicode="X" horiz-adv-x="1376" d="M-35 0l455 711l-451 655h508l209 -373l217 373h500l-455 -653l463 -713h-502l-227 395l-229 -395h-488z" />
<glyph unicode="Y" horiz-adv-x="1290" d="M-39 1366h451l233 -483l234 483h448l-473 -864v-502h-410v502z" />
<glyph unicode="Z" horiz-adv-x="1331" d="M68 0v342l651 662h-629v362h1172v-362l-658 -642h680v-362h-1216z" />
<glyph unicode="[" horiz-adv-x="864" d="M137 -362v1728h633v-301h-285v-1126h285v-301h-633z" />
<glyph unicode="\" horiz-adv-x="831" d="M31 1366h362l438 -1366h-362z" />
<glyph unicode="]" horiz-adv-x="864" d="M96 -61h285v1126h-285v301h633v-1728h-633v301z" />
<glyph unicode="^" d="M6 680l277 696h460l275 -696h-363l-141 416l-145 -416h-363z" />
<glyph unicode="_" d="M0 -92h1024v-242h-1024v242z" />
<glyph unicode="`" d="M147 1366h428l109 -293h-287z" />
<glyph unicode="a" horiz-adv-x="1239" d="M82 262q0 240 276 295l287 55q109 20 109 74q0 38 -35 61t-94 23q-69 0 -108.5 -32.5t-39.5 -90.5v-14h-350q8 90 30.5 147.5t69.5 104.5q131 131 406 131q227 0 368 -101q66 -50 96.5 -122t30.5 -181v-465q0 -56 6 -85.5t25 -61.5h-371q-23 49 -32 100 q-95 -72 -166.5 -99.5t-163.5 -27.5q-154 0 -249 80t-95 209zM449 283q0 -37 29.5 -60.5t78.5 -23.5q89 0 146 53.5t57 138.5v53l-164 -57q-100 -35 -111 -41q-36 -22 -36 -63z" />
<glyph unicode="b" horiz-adv-x="1257" d="M111 0v1366h383v-467q73 66 135.5 92.5t142.5 26.5q189 0 305.5 -143t116.5 -373q0 -227 -122 -378t-306 -151q-89 0 -158 33.5t-135 108.5v-115h-362zM479 498q0 -109 44 -170.5t122 -61.5t122 61.5t44 168.5t-44 168t-122 61q-77 0 -121.5 -61t-44.5 -166z" />
<glyph unicode="c" horiz-adv-x="1198" d="M66 496q0 230 153 375t397 145q217 0 357.5 -110.5t159.5 -295.5h-371q-30 133 -150 133q-80 0 -126 -65.5t-46 -177.5q0 -117 46 -184.5t124 -67.5q69 0 112 45t52 127h367q-12 -112 -42.5 -181t-92.5 -128q-147 -138 -394 -138q-246 0 -396 144t-150 379z" />
<glyph unicode="d" horiz-adv-x="1263" d="M63 506q0 229 119 369.5t312 140.5q81 0 144 -25.5t132 -85.5v461h383v-1366h-360v90q-72 -69 -127.5 -93t-141.5 -24q-209 0 -335 145.5t-126 387.5zM446 496q0 -107 45 -168.5t123 -61.5t124 61.5t46 164.5q0 109 -45 170t-125 61q-78 0 -123 -60.5t-45 -166.5z" />
<glyph unicode="e" horiz-adv-x="1236" d="M66 498q0 224 158 371t399 147q249 0 400 -157.5t151 -416.5q0 -15 -3 -39h-727q11 -75 64 -119t135 -44q97 0 139 65h373q-34 -145 -182 -238.5t-342 -93.5q-249 0 -407 146.5t-158 378.5zM446 608h342q-7 72 -53 114t-117 42q-72 0 -118 -42t-54 -114z" />
<glyph unicode="f" horiz-adv-x="710" d="M10 750v239h140v39q0 167 86.5 252.5t255.5 85.5h219v-266h-90q-89 0 -89 -74v-37h179v-239h-179v-750h-382v750h-140z" />
<glyph unicode="g" horiz-adv-x="1261" d="M66 539q0 209 122 343t314 134q88 0 152.5 -30t127.5 -101v104h369v-848q0 -249 -147 -370q-138 -111 -373 -111q-220 0 -350.5 87t-141.5 239h369q14 -40 41 -57t76 -17q67 0 104 35t37 100v103q-66 -47 -128 -68t-138 -21q-192 0 -313 133.5t-121 344.5zM440 528 q0 -87 48 -143.5t122 -56.5t123 56t49 142q0 89 -48.5 146t-123.5 57q-74 0 -122 -56.5t-48 -144.5z" />
<glyph unicode="h" horiz-adv-x="1243" d="M111 0v1366h383v-459q77 60 139 84.5t141 24.5q158 0 260 -94q53 -51 76 -114.5t23 -156.5v-651h-383v547q0 162 -123 162q-64 0 -98.5 -42t-34.5 -120v-547h-383z" />
<glyph unicode="i" horiz-adv-x="604" d="M111 0v989h383v-989h-383zM111 1094v272h383v-272h-383z" />
<glyph unicode="j" horiz-adv-x="608" d="M-63 -20h63q66 0 90.5 21t24.5 79v909h383v-1009q0 -149 -77.5 -221t-238.5 -72h-245v293zM115 1094v272h383v-272h-383z" />
<glyph unicode="k" horiz-adv-x="1191" d="M111 0v1366h383v-666l247 289h445l-373 -383l408 -606h-453l-203 348l-71 -74v-274h-383z" />
<glyph unicode="l" horiz-adv-x="604" d="M111 0v1366h383v-1366h-383z" />
<glyph unicode="m" horiz-adv-x="1849" d="M111 0v989h362v-129q71 82 143 119t162 37q181 0 281 -156q72 83 145.5 119.5t167.5 36.5q165 0 268 -103q52 -52 75.5 -125t23.5 -184v-604h-383v547q0 162 -117 162q-60 0 -92.5 -42.5t-32.5 -119.5v-547h-383v547q0 162 -115 162q-58 0 -90 -42.5t-32 -119.5v-547 h-383z" />
<glyph unicode="n" horiz-adv-x="1247" d="M111 0v989h362v-117q63 77 131.5 110.5t161.5 33.5q163 0 264 -98q107 -104 107 -304v-614h-383v539q0 75 -33 114t-96 39t-97 -39.5t-34 -113.5v-539h-383z" />
<glyph unicode="o" horiz-adv-x="1239" d="M66 496q0 146 72 265t198.5 187t281.5 68q242 0 399 -149.5t157 -379.5q0 -218 -160 -366t-396 -148t-394 149.5t-158 373.5zM449 496q0 -122 43 -186t126 -64t128 64t45 182q0 123 -44 187t-129 64q-83 0 -126 -63.5t-43 -183.5z" />
<glyph unicode="p" horiz-adv-x="1263" d="M111 -313v1302h362v-88q61 61 126 88t151 27q206 0 328 -145.5t122 -389.5q0 -232 -117.5 -370t-314.5 -138q-161 0 -274 107v-393h-383zM479 498q0 -109 45 -170.5t125 -61.5q78 0 123 61.5t45 168.5t-45 167t-123 60q-79 0 -124.5 -60.5t-45.5 -164.5z" />
<glyph unicode="q" horiz-adv-x="1271" d="M63 492q0 241 118.5 382.5t318.5 141.5q94 0 163.5 -33.5t135.5 -110.5v117h362v-1302h-383v405q-65 -65 -126.5 -92t-145.5 -27q-199 0 -321 143t-122 376zM446 496q0 -107 46.5 -168.5t128.5 -61.5q79 0 125.5 61t46.5 165q0 110 -46 170.5t-129 60.5q-80 0 -126 -60.5 t-46 -166.5z" />
<glyph unicode="r" horiz-adv-x="921" d="M111 0v989h362v-137q128 164 293 164q49 0 119 -21v-342q-56 21 -86.5 28t-67.5 7q-109 0 -173 -64t-64 -173v-451h-383z" />
<glyph unicode="s" horiz-adv-x="1105" d="M47 338h367q18 -119 147 -119q51 0 83 20.5t32 51.5q0 47 -90 67l-224 52q-294 67 -294 288q0 145 133 231.5t356 86.5q218 0 337 -81.5t130 -236.5h-356q-6 50 -35 71.5t-90 21.5q-45 0 -73 -16t-28 -42q0 -47 97 -65l176 -35q94 -19 147.5 -39t95.5 -53q47 -37 74 -95 t27 -124q0 -158 -138.5 -253.5t-367.5 -95.5q-133 0 -240.5 37t-173.5 105q-46 46 -66.5 97t-25.5 126z" />
<glyph unicode="t" horiz-adv-x="749" d="M6 750v239h146v295h383v-295h178v-239h-178v-367q0 -63 24 -91t78 -28q41 0 76 12v-260q-123 -30 -211 -30q-171 0 -266 100q-84 87 -84 283v381h-146z" />
<glyph unicode="u" horiz-adv-x="1249" d="M111 408v581h383v-520q0 -172 129 -172q61 0 97 41.5t36 112.5v538h383v-989h-363v127q-63 -80 -135.5 -117t-167.5 -37q-174 0 -276 127q-46 57 -66 129t-20 179z" />
<glyph unicode="v" horiz-adv-x="1077" d="M-6 989h379l123 -405q28 -87 43 -166q16 79 41 166l118 405h387l-333 -989h-422z" />
<glyph unicode="w" horiz-adv-x="1669" d="M-6 989h397l96 -366q23 -82 39 -177q3 17 41 177l92 366h351l104 -366q17 -63 39 -177q17 83 39 177l90 366h395l-297 -989h-395l-98 367q-7 27 -29 116q-10 39 -20 84l-50 -200l-92 -367h-391z" />
<glyph unicode="x" horiz-adv-x="1056" d="M-39 0l348 518l-313 471h397l123 -182l117 182h405l-313 -471l356 -518h-424l-141 221l-139 -221h-416z" />
<glyph unicode="y" horiz-adv-x="1112" d="M-6 989h405l103 -364q31 -118 47 -185l10 -43q10 38 10 43l33 125q5 16 9.5 37.5t4.5 22.5l99 364h405l-360 -989q-66 -180 -148.5 -246.5t-242.5 -66.5h-271v293h133q48 0 74.5 20.5t26.5 58.5q0 22 -17 68z" />
<glyph unicode="z" horiz-adv-x="1071" d="M51 0v297l441 399h-410v293h907v-293l-446 -403h465v-293h-957z" />
<glyph unicode="{" d="M133 332v338q62 14 86 47q11 15 19 47.5t8 60.5v260q0 174 88 242q44 34 102.5 45.5t188.5 11.5q57 0 168 -6q34 0 69 -2v-387h-31h-12q-108 0 -134 -23t-26 -118v-98q0 -127 -43 -189q-19 -27 -79 -72q70 -44 96 -100t26 -158v-120q0 -97 25.5 -119.5t134.5 -22.5 q25 0 43 2v-366l-69 -2l-64 -2q-37 -2 -108 -2q-133 0 -194.5 13.5t-107.5 53.5q-73 67 -73 230v260q0 84 -25.5 124t-87.5 52z" />
<glyph unicode="|" d="M301 -342v1708h422v-1708h-422z" />
<glyph unicode="}" d="M160 -8h30h15q108 0 134 22t26 117v100q0 124 43 189q21 30 79 69q-70 45 -96 101.5t-26 159.5v120q0 41 -3.5 64t-11.5 40.5t-28.5 24.5t-46.5 10t-74 3q-23 0 -41 -2v366q35 2 69 2l66 4q37 2 104 2q136 0 198 -14t108 -55q73 -67 73 -230v-260q0 -84 25.5 -124 t85.5 -52v-338q-63 -14 -84 -49q-11 -14 -19 -46t-8 -60v-260q0 -175 -88 -240q-45 -35 -102 -46t-189 -11q-57 0 -170 4l-69 2v387z" />
<glyph unicode="~" horiz-adv-x="1366" d="M186 1255q63 165 141 240.5t185 75.5q40 0 85 -13t210 -73q41 -15 63 -15q34 0 58.5 23t56.5 84l199 -168q-38 -96 -65.5 -143.5t-69.5 -89.5q-81 -84 -191 -84q-35 0 -78 12t-149 51t-135 39q-31 0 -55.5 -24t-55.5 -83z" />
<glyph unicode="&#xa1;" horiz-adv-x="645" d="M125 -53l100 538h195l100 -538v-322h-395v322zM125 594v395h395v-395h-395z" />
<glyph unicode="&#xa2;" horiz-adv-x="1337" d="M131 672q0 205 127.5 349t331.5 169v176h158v-174q192 -19 315.5 -130t134.5 -274h-371q-27 134 -149 134q-80 0 -126 -66t-46 -180q0 -117 46 -184.5t124 -67.5q69 0 112 45t52 127h366q-14 -192 -132.5 -307t-325.5 -135v-154h-158v156q-209 25 -334 165t-125 351z" />
<glyph unicode="&#xa3;" horiz-adv-x="1337" d="M106 301q85 50 124.5 104t39.5 121q0 32 -12 64h-152v143h78q-41 52 -57 95t-16 96q0 89 44 177.5t121 153.5q72 60 180.5 92.5t237.5 32.5q164 0 290.5 -51t189.5 -143q74 -107 88 -324h-383q-5 70 -25 115q-17 38 -57 61t-90 23q-68 0 -114 -39t-46 -96 q0 -32 12.5 -59.5t50.5 -78.5q30 -42 37 -55h176v-143h-139q-15 -82 -53.5 -134.5t-118.5 -99.5q101 35 162 35q65 0 172 -37q62 -20 94 -20q40 0 77.5 22t82.5 74l137 -334q-75 -66 -143 -94.5t-152 -28.5q-62 0 -113.5 13t-177.5 59q-104 39 -164 39q-43 0 -84 -18 t-96 -60z" />
<glyph unicode="&#xa4;" horiz-adv-x="1503" d="M53 219l217 217q-61 128 -61 254q0 132 70 266l-224 222l213 215l230 -230q125 64 254 64q125 0 252 -62l225 224l211 -211l-217 -217q73 -132 73 -271q0 -126 -63 -252l217 -217l-211 -213l-215 215q-129 -73 -274 -73q-73 0 -134 16t-135 55l-217 -211zM571 694 q0 -76 54 -130t129 -54t128.5 54t53.5 130q0 74 -53.5 128.5t-126.5 54.5q-78 0 -131.5 -53t-53.5 -130z" />
<glyph unicode="&#xa5;" horiz-adv-x="1337" d="M-14 1366h450l234 -483l233 483h449l-369 -672h211v-190h-315v-504h-410v504h-326v190h219z" />
<glyph unicode="&#xa6;" d="M301 313h422v-655h-422v655zM301 618v748h422v-748h-422z" />
<glyph unicode="&#xa7;" horiz-adv-x="1400" d="M121 565q0 200 205 279q-42 53 -59 96t-17 98q0 156 125 255.5t321 99.5q200 0 323.5 -108t135.5 -292h-317q-4 60 -36.5 92.5t-86.5 32.5q-43 0 -73 -23t-30 -55q0 -52 74 -79l354 -140q118 -46 179 -122.5t61 -178.5q0 -181 -190 -280q96 -99 96 -224 q0 -167 -133 -272.5t-342 -105.5q-270 0 -394 161q-38 53 -55 109.5t-18 140.5h321q5 -56 42 -87.5t98 -31.5q54 0 86 25.5t32 67.5q0 63 -65 86l-363 137q-274 105 -274 319zM455 610q0 -47 67 -73l309 -119q30 -12 48 -12q29 0 48 17.5t19 45.5q0 29 -18 45.5t-74 38.5 l-254 98q-52 19 -80 19t-46.5 -17.5t-18.5 -42.5z" />
<glyph unicode="&#xa8;" d="M94 1073v293h352v-293h-352zM578 1073v293h352v-293h-352z" />
<glyph unicode="&#xa9;" horiz-adv-x="1554" d="M68 682q0 147 56.5 279.5t152 228t229 151.5t282.5 56q112 0 218.5 -36.5t192.5 -103t151.5 -154.5t101 -197t35.5 -224q0 -116 -36 -224.5t-101.5 -196.5t-152.5 -154t-195.5 -102t-223.5 -36q-144 0 -275.5 57t-226.5 152.5t-151.5 227.5t-56.5 276zM252 682 q0 -146 70.5 -271t192 -198.5t263.5 -73.5t263 73t191.5 198t70.5 272q0 109 -41.5 210t-111 174.5t-165.5 117t-199 43.5q-110 0 -209 -42.5t-170.5 -115t-113 -174t-41.5 -213.5zM391 690q0 180 110 294t283 114q143 0 243.5 -86t107.5 -215h-183q-12 44 -56.5 69 t-109.5 25q-72 0 -112.5 -54t-40.5 -149t40.5 -148t112.5 -53q71 0 115 31t53 88h185q-12 -152 -108 -238.5t-253 -86.5q-174 0 -280.5 112.5t-106.5 296.5z" />
<glyph unicode="&#xaa;" horiz-adv-x="802" d="M59 709q0 145 179 180l178 33q59 12 59 36q0 20 -19.5 31.5t-52.5 11.5q-40 0 -62 -17.5t-22 -49.5q0 -5 3 -14h-236q10 121 90 180t232 59q147 0 233 -59q84 -60 84 -187v-272q0 -35 5 -52.5t20 -41.5h-250q-18 41 -21 53q-54 -38 -98.5 -54t-99.5 -16q-98 0 -160 50 t-62 129zM303 719q0 -19 16.5 -31t42.5 -12q51 0 84 30.5t33 77.5v21l-92 -29q-57 -19 -70.5 -28t-13.5 -29z" />
<glyph unicode="&#xab;" horiz-adv-x="833" d="M74 328v354l313 256v-305l-164 -127l164 -127v-307zM434 328v354l311 256v-305l-163 -127l163 -127v-307z" />
<glyph unicode="&#xac;" d="M68 250v366h886v-616h-407v250h-479z" />
<glyph unicode="&#xad;" horiz-adv-x="604" d="M0 342v328h604v-328h-604z" />
<glyph unicode="&#xae;" horiz-adv-x="1554" d="M68 682q0 147 56.5 279.5t152 228t229 151.5t282.5 56q112 0 218.5 -36.5t192.5 -103t151.5 -154.5t101 -197t35.5 -224q0 -116 -36 -224.5t-101.5 -196.5t-152.5 -154t-195.5 -102t-223.5 -36q-144 0 -275.5 57t-226.5 152.5t-151.5 227.5t-56.5 276zM252 682 q0 -146 70.5 -271t192 -198.5t263.5 -73.5t263 73t191.5 198t70.5 272q0 109 -41.5 210t-111 174.5t-165.5 117t-199 43.5q-110 0 -209 -42.5t-170.5 -115t-113 -174t-41.5 -213.5zM481 307v778h330q118 0 182 -34q52 -29 80.5 -78t28.5 -109q0 -132 -121 -188 q60 -26 82 -79t27 -175q2 -50 18 -115h-227q-12 29 -17 109q-10 119 -37 155q-14 15 -38.5 26t-45.5 11h-22v-301h-240zM721 743h45q52 0 75 23.5t23 77.5q0 51 -22.5 74.5t-69.5 23.5h-51v-199z" />
<glyph unicode="&#xaf;" d="M170 1108v219h682v-219h-682z" />
<glyph unicode="&#xb0;" d="M168 1042q0 143 101 245t245 102q145 0 244.5 -101.5t99.5 -249.5q0 -139 -101.5 -239.5t-242.5 -100.5q-143 0 -244.5 101t-101.5 243zM324 1042q0 -78 56 -135t132 -57t133 56.5t57 131.5q0 83 -56 141t-136 58q-75 0 -130.5 -58.5t-55.5 -136.5z" />
<glyph unicode="&#xb1;" d="M2 0v188h1022v-188h-1022zM2 666v188h412v418h196v-418h412v-188h-412v-400h-196v400h-412z" />
<glyph unicode="&#xb2;" horiz-adv-x="901" d="M90 547q0 90 26.5 146.5t95.5 113.5t222 151q64 39 89.5 69t25.5 63q0 37 -27.5 60.5t-70.5 23.5q-123 0 -123 -146v-22h-232v41q0 152 98.5 239.5t270.5 87.5q151 0 245.5 -74.5t94.5 -193.5q0 -104 -88 -186q-23 -22 -52 -41t-126 -78q-35 -20 -70 -49h354v-205h-733z " />
<glyph unicode="&#xb3;" horiz-adv-x="901" d="M74 852q0 4 2 8h235q-2 -6 -2 -14q-3 -54 31.5 -89.5t91.5 -35.5q49 0 79 24t30 62q0 41 -33.5 65.5t-89.5 24.5h-39h-10v154q37 -2 43 -2q123 0 123 69q0 34 -27.5 55t-71.5 21q-54 0 -78.5 -25.5t-25.5 -83.5h-234q4 141 92.5 215t251.5 74q145 0 235.5 -65.5 t90.5 -171.5q0 -46 -22.5 -81t-73.5 -67q66 -32 95.5 -76.5t29.5 -109.5q0 -121 -100.5 -198t-258.5 -77q-110 0 -191 36t-124 102q-21 30 -35 84t-14 102z" />
<glyph unicode="&#xb4;" d="M352 1073l107 293h430l-250 -293h-287z" />
<glyph unicode="&#xb5;" d="M33 -354v1337h352v-483q0 -103 12 -135q14 -40 47 -64.5t74 -24.5q94 0 115 101q6 35 6 123v483h352v-983h-352v100q-22 -61 -52 -88.5t-75 -27.5q-42 0 -72 24t-55 78v-440h-352z" />
<glyph unicode="&#xb6;" horiz-adv-x="1370" d="M143 1012q0 103 43.5 180.5t126.5 120.5q59 31 121 42t182 11h553v-147h-96v-1450h-192v1450h-156v-1450h-193v895q-181 -1 -285 92t-104 256z" />
<glyph unicode="&#xb7;" horiz-adv-x="616" d="M111 307v395h395v-395h-395z" />
<glyph unicode="&#xb8;" d="M330 -395l43 98q119 -41 198 -41q43 0 67 20.5t24 55.5q0 32 -23 52t-61 20q-31 0 -86 -19l-56 47l94 156l117 -4l-59 -101q61 13 96 13q85 0 137.5 -43.5t52.5 -112.5q0 -88 -72.5 -142.5t-189.5 -54.5q-137 0 -282 56z" />
<glyph unicode="&#xb9;" horiz-adv-x="901" d="M168 1014v170h10q232 0 250 174h211v-811h-262v467h-209z" />
<glyph unicode="&#xba;" horiz-adv-x="804" d="M51 844q0 135 100.5 225t249.5 90q154 0 254.5 -90.5t100.5 -228.5q0 -132 -102 -222t-251 -90q-151 0 -251.5 90.5t-100.5 225.5zM305 844q0 -69 25.5 -105.5t72.5 -36.5t73 36.5t26 103.5q0 143 -99 143q-47 0 -72.5 -36t-25.5 -105z" />
<glyph unicode="&#xbb;" horiz-adv-x="833" d="M88 72v307l164 127l-164 127v305l313 -256v-354zM449 72v307l163 127l-163 127v305l311 -256v-354z" />
<glyph unicode="&#xbc;" horiz-adv-x="2113" d="M168 1014v170h10q232 0 250 174h211v-811h-262v467h-209zM643 0l604 1366h226l-605 -1366h-225zM1300 174v223l394 414h245v-442h121v-195h-121v-174h-256v174h-383zM1493 369h190v96v31v24v31v20l-36 -39l-50 -53z" />
<glyph unicode="&#xbd;" horiz-adv-x="2113" d="M168 1014v170h10q232 0 250 174h211v-811h-262v467h-209zM643 0l604 1366h226l-605 -1366h-225zM1303 0q1 69 12.5 112t51.5 91t101.5 92t178.5 117q63 39 88.5 68.5t25.5 62.5q0 37 -27.5 60.5t-70.5 23.5q-123 0 -123 -146v-22h-231v41q0 152 98 239.5t270 87.5 q151 0 245.5 -74.5t94.5 -193.5q0 -104 -88 -186q-23 -22 -52 -41t-126 -78q-35 -20 -70 -49h355v-205h-733z" />
<glyph unicode="&#xbe;" horiz-adv-x="2113" d="M74 852q0 4 2 8h235q-2 -6 -2 -14q-3 -54 31.5 -89.5t91.5 -35.5q49 0 79 24t30 62q0 41 -33.5 65.5t-89.5 24.5h-39h-10v154q37 -2 43 -2q123 0 123 69q0 34 -27.5 55t-71.5 21q-54 0 -78.5 -25.5t-25.5 -83.5h-234q4 141 92.5 215t251.5 74q145 0 235.5 -65.5 t90.5 -171.5q0 -46 -22.5 -81t-73.5 -67q66 -32 95.5 -76.5t29.5 -109.5q0 -121 -100.5 -198t-258.5 -77q-110 0 -191 36t-124 102q-21 30 -35 84t-14 102zM643 0l604 1366h226l-605 -1366h-225zM1300 174v223l394 414h245v-442h121v-195h-121v-174h-256v174h-383zM1493 369 h190v96v31v24v31v20l-36 -39l-50 -53z" />
<glyph unicode="&#xbf;" horiz-adv-x="1157" d="M55 8q0 116 62 187q26 29 55 49.5t107 64.5q91 53 115 81.5t28 94.5h352q0 -152 -37 -223.5t-143 -120.5q-84 -39 -109.5 -65.5t-25.5 -69.5t30.5 -69.5t79.5 -26.5q68 0 100 40t33 128h402q-13 -230 -154 -355.5t-383 -125.5q-229 0 -370.5 114t-141.5 297zM399 594v395 h396v-395h-396z" />
<glyph unicode="&#xc0;" horiz-adv-x="1380" d="M-14 0l485 1366h430l492 -1366h-432l-60 188h-430l-61 -188h-424zM305 1751h428l109 -293h-287zM567 487h242l-121 392z" />
<glyph unicode="&#xc1;" horiz-adv-x="1380" d="M-14 0l485 1366h430l492 -1366h-432l-60 188h-430l-61 -188h-424zM567 487h242l-121 392zM573 1452l103 303h387l-256 -303h-234z" />
<glyph unicode="&#xc2;" horiz-adv-x="1380" d="M-14 0l485 1366h430l492 -1366h-432l-60 188h-430l-61 -188h-424zM305 1460l223 287h324l235 -287h-303l-90 135l-86 -135h-303zM567 487h242l-121 392z" />
<glyph unicode="&#xc3;" horiz-adv-x="1380" d="M-14 0l485 1366h430l492 -1366h-432l-60 188h-430l-61 -188h-424zM358 1462v31q0 118 56.5 185t156.5 67q68 0 134 -31l57 -26q26 -13 55 -13q54 0 57 72h199q0 -135 -60.5 -212t-164.5 -77q-53 0 -117 25l-76 30q-22 11 -47 11t-37.5 -15t-17.5 -47h-195zM567 487h242 l-121 392z" />
<glyph unicode="&#xc4;" horiz-adv-x="1380" d="M-14 0l485 1366h430l492 -1366h-432l-60 188h-430l-61 -188h-424zM260 1464v277h365v-277h-365zM567 487h242l-121 392zM756 1464v277h364v-277h-364z" />
<glyph unicode="&#xc5;" horiz-adv-x="1380" d="M-14 0l485 1366h430l492 -1366h-432l-60 188h-430l-61 -188h-424zM487 1642q0 86 61.5 147.5t147.5 61.5q88 0 148.5 -61t60.5 -150q0 -85 -61.5 -145.5t-147.5 -60.5t-147.5 61t-61.5 147zM567 487h242l-121 392zM635 1642q0 -25 18 -43t43 -18t43.5 18t18.5 43 t-18 43.5t-44 18.5q-25 0 -43 -18.5t-18 -43.5z" />
<glyph unicode="&#xc6;" horiz-adv-x="2095" d="M-14 0l467 1366h1534v-342h-742v-166h649v-313h-649v-183h774v-362h-1183v190h-394l-59 -190h-397zM535 489h301v535h-138z" />
<glyph unicode="&#xc7;" horiz-adv-x="1445" d="M80 694q0 200 88 361t244.5 251.5t351.5 90.5q246 0 414.5 -142t212.5 -387l-408 -8q-17 90 -78.5 142.5t-148.5 52.5q-118 0 -192.5 -102t-74.5 -265q0 -161 78 -269t195 -108q92 0 148 57.5t73 166.5h418q-10 -104 -36.5 -179t-76.5 -143q-82 -110 -210.5 -174 t-282.5 -70l-52 -86q76 13 105 13q92 0 150.5 -49t58.5 -126q0 -94 -79.5 -152t-207.5 -58q-82 0 -151 13.5t-158 47.5l49 109q126 -48 213 -48q46 0 73 21.5t27 58.5q0 35 -26 55.5t-70 20.5q-34 0 -94 -18l-58 53l93 153q-262 34 -425 231t-163 486z" />
<glyph unicode="&#xc8;" horiz-adv-x="1392" d="M133 0v1366h1151v-342h-741v-166h649v-313h-649v-183h774v-362h-1184zM326 1751h428l108 -293h-287z" />
<glyph unicode="&#xc9;" horiz-adv-x="1392" d="M133 0v1366h1151v-342h-741v-166h649v-313h-649v-183h774v-362h-1184zM582 1452l102 303h387l-256 -303h-233z" />
<glyph unicode="&#xca;" horiz-adv-x="1392" d="M133 0v1366h1151v-342h-741v-166h649v-313h-649v-183h774v-362h-1184zM317 1460l224 287h323l236 -287h-303l-90 135l-86 -135h-304z" />
<glyph unicode="&#xcb;" horiz-adv-x="1392" d="M133 0v1366h1151v-342h-741v-166h649v-313h-649v-183h774v-362h-1184zM287 1464v277h364v-277h-364zM782 1464v277h365v-277h-365z" />
<glyph unicode="&#xcc;" horiz-adv-x="698" d="M-35 1751h428l109 -293h-287zM137 0v1366h424v-1366h-424z" />
<glyph unicode="&#xcd;" horiz-adv-x="698" d="M137 0v1366h424v-1366h-424zM248 1452l102 303h387l-256 -303h-233z" />
<glyph unicode="&#xce;" horiz-adv-x="698" d="M-35 1460l223 287h324l236 -287h-304l-90 135l-86 -135h-303zM137 0v1366h424v-1366h-424z" />
<glyph unicode="&#xcf;" horiz-adv-x="698" d="M-31 1464v277h330v-277h-330zM137 0v1366h424v-1366h-424zM416 1464v277h327v-277h-327z" />
<glyph unicode="&#xd0;" horiz-adv-x="1488" d="M61 545v313h72v508h563q202 0 323.5 -41.5t213.5 -142.5q176 -194 176 -508q0 -272 -141 -451q-94 -115 -227 -169t-324 -54h-584v545h-72zM543 342h145q311 0 311 328q0 150 -71 250q-41 55 -100 79.5t-152 24.5h-133v-166h194v-313h-194v-203z" />
<glyph unicode="&#xd1;" horiz-adv-x="1488" d="M133 0v1366h399l418 -709q-2 44 -2.5 109t-1.5 90l-2 154v137v219h410v-1366h-396l-421 725q1 -14 4 -209l2 -145v-164v-207h-410zM420 1462v31q0 118 56.5 185t156.5 67q67 0 133 -31l57 -26q26 -13 56 -13q54 0 57 72h199q0 -135 -60.5 -212t-165.5 -77q-52 0 -116 25 l-76 30q-22 11 -47 11q-47 0 -56 -62h-194z" />
<glyph unicode="&#xd2;" horiz-adv-x="1564" d="M80 684q0 156 51.5 288.5t143 226t222.5 146t285 52.5q317 0 511 -199t194 -524q0 -310 -197.5 -507.5t-507.5 -197.5q-206 0 -365.5 90t-248 252.5t-88.5 372.5zM399 1751h428l109 -293h-287zM504 684q0 -170 76 -271.5t202 -101.5q127 0 204 101t77 268 q0 172 -76 273.5t-205 101.5q-126 0 -202 -101t-76 -270z" />
<glyph unicode="&#xd3;" horiz-adv-x="1564" d="M80 684q0 156 51.5 288.5t143 226t222.5 146t285 52.5q317 0 511 -199t194 -524q0 -310 -197.5 -507.5t-507.5 -197.5q-206 0 -365.5 90t-248 252.5t-88.5 372.5zM504 684q0 -170 76 -271.5t202 -101.5q127 0 204 101t77 268q0 172 -76 273.5t-205 101.5 q-126 0 -202 -101t-76 -270zM662 1452l102 303h387l-256 -303h-233z" />
<glyph unicode="&#xd4;" horiz-adv-x="1564" d="M80 684q0 156 51.5 288.5t143 226t222.5 146t285 52.5q317 0 511 -199t194 -524q0 -310 -197.5 -507.5t-507.5 -197.5q-206 0 -365.5 90t-248 252.5t-88.5 372.5zM391 1460l223 287h324l236 -287h-304l-90 135l-86 -135h-303zM504 684q0 -170 76 -271.5t202 -101.5 q127 0 204 101t77 268q0 172 -76 273.5t-205 101.5q-126 0 -202 -101t-76 -270z" />
<glyph unicode="&#xd5;" horiz-adv-x="1564" d="M80 684q0 156 51.5 288.5t143 226t222.5 146t285 52.5q317 0 511 -199t194 -524q0 -310 -197.5 -507.5t-507.5 -197.5q-206 0 -365.5 90t-248 252.5t-88.5 372.5zM461 1462v31q0 118 56.5 185t156.5 67q67 0 133 -31l57 -26q26 -13 56 -13q54 0 57 72h199 q0 -135 -60.5 -212t-165.5 -77q-52 0 -116 25l-76 30q-22 11 -47 11q-47 0 -56 -62h-194zM504 684q0 -170 76 -271.5t202 -101.5q127 0 204 101t77 268q0 172 -76 273.5t-205 101.5q-126 0 -202 -101t-76 -270z" />
<glyph unicode="&#xd6;" horiz-adv-x="1564" d="M80 684q0 156 51.5 288.5t143 226t222.5 146t285 52.5q317 0 511 -199t194 -524q0 -310 -197.5 -507.5t-507.5 -197.5q-206 0 -365.5 90t-248 252.5t-88.5 372.5zM360 1464v277h365v-277h-365zM504 684q0 -170 76 -271.5t202 -101.5q127 0 204 101t77 268 q0 172 -76 273.5t-205 101.5q-126 0 -202 -101t-76 -270zM856 1464v277h365v-277h-365z" />
<glyph unicode="&#xd7;" d="M80 467l299 297l-293 289l133 133l291 -293l295 299l137 -139l-297 -295l295 -293l-133 -133l-293 295l-295 -299z" />
<glyph unicode="&#xd8;" horiz-adv-x="1564" d="M55 43l170 184q-145 189 -145 457q0 209 88.5 371t248.5 252t367 90q235 0 412 -119l174 188l141 -131l-174 -188q72 -91 111 -211.5t39 -253.5q0 -316 -195.5 -514.5t-507.5 -198.5q-245 0 -417 121l-168 -180zM504 682q0 -65 16 -137l422 456q-72 54 -158 54 q-128 0 -204 -101.5t-76 -271.5zM621 367q73 -56 163 -56q126 0 202.5 101.5t76.5 267.5q0 84 -19 149z" />
<glyph unicode="&#xd9;" horiz-adv-x="1503" d="M133 485v881h410v-842q0 -103 53.5 -158t153.5 -55q101 0 154.5 55t53.5 158v842h410v-881q0 -139 -35.5 -228t-118.5 -153q-169 -135 -462 -135q-291 0 -463 135q-83 66 -119.5 154.5t-36.5 226.5zM373 1751h428l108 -293h-286z" />
<glyph unicode="&#xda;" horiz-adv-x="1503" d="M133 485v881h410v-842q0 -103 53.5 -158t153.5 -55q101 0 154.5 55t53.5 158v842h410v-881q0 -139 -35.5 -228t-118.5 -153q-169 -135 -462 -135q-291 0 -463 135q-83 66 -119.5 154.5t-36.5 226.5zM643 1452l102 303h388l-256 -303h-234z" />
<glyph unicode="&#xdb;" horiz-adv-x="1503" d="M133 485v881h410v-842q0 -103 53.5 -158t153.5 -55q101 0 154.5 55t53.5 158v842h410v-881q0 -139 -35.5 -228t-118.5 -153q-169 -135 -462 -135q-291 0 -463 135q-83 66 -119.5 154.5t-36.5 226.5zM367 1460l223 287h323l236 -287h-303l-90 135l-86 -135h-303z" />
<glyph unicode="&#xdc;" horiz-adv-x="1503" d="M133 485v881h410v-842q0 -103 53.5 -158t153.5 -55q101 0 154.5 55t53.5 158v842h410v-881q0 -139 -35.5 -228t-118.5 -153q-169 -135 -462 -135q-291 0 -463 135q-83 66 -119.5 154.5t-36.5 226.5zM328 1464v277h364v-277h-364zM823 1464v277h365v-277h-365z" />
<glyph unicode="&#xdd;" horiz-adv-x="1290" d="M-39 1366h451l233 -483l234 483h448l-473 -864v-502h-410v502zM551 1452l102 303h387l-256 -303h-233z" />
<glyph unicode="&#xde;" horiz-adv-x="1368" d="M133 0v1366h410v-164h243q145 0 237.5 -30.5t162.5 -100.5q137 -134 137 -352q0 -114 -41 -208t-119 -157q-69 -57 -153.5 -81.5t-212.5 -24.5h-254v-248h-410zM543 582h200q81 0 125.5 36.5t44.5 102.5q0 67 -44 103t-126 36h-200v-278z" />
<glyph unicode="&#xdf;" horiz-adv-x="1259" d="M111 0v819q0 165 22 251.5t82 152.5q69 78 178 120.5t238 42.5q215 0 351 -104t136 -270q0 -79 -33.5 -140.5t-105.5 -117.5q217 -96 217 -344q0 -186 -123.5 -308t-312.5 -122q-64 0 -178 20v287q33 -8 55 -8q77 0 126.5 51.5t49.5 130.5q0 82 -50 128t-138 46 q-27 0 -56 -2v221q24 -6 43 -6q67 0 105.5 33t38.5 92q0 54 -36.5 87.5t-94.5 33.5q-131 0 -131 -140v-954h-383z" />
<glyph unicode="&#xe0;" horiz-adv-x="1239" d="M82 262q0 240 276 295l287 55q109 20 109 74q0 38 -35 61t-94 23q-69 0 -108.5 -32.5t-39.5 -90.5v-14h-350q8 90 30.5 147.5t69.5 104.5q131 131 406 131q227 0 368 -101q66 -50 96.5 -122t30.5 -181v-465q0 -56 6 -85.5t25 -61.5h-371q-23 49 -32 100 q-95 -72 -166.5 -99.5t-163.5 -27.5q-154 0 -249 80t-95 209zM250 1366h428l108 -293h-286zM449 283q0 -37 29.5 -60.5t78.5 -23.5q89 0 146 53.5t57 138.5v53l-164 -57q-100 -35 -111 -41q-36 -22 -36 -63z" />
<glyph unicode="&#xe1;" horiz-adv-x="1239" d="M82 262q0 240 276 295l287 55q109 20 109 74q0 38 -35 61t-94 23q-69 0 -108.5 -32.5t-39.5 -90.5v-14h-350q8 90 30.5 147.5t69.5 104.5q131 131 406 131q227 0 368 -101q66 -50 96.5 -122t30.5 -181v-465q0 -56 6 -85.5t25 -61.5h-371q-23 49 -32 100 q-95 -72 -166.5 -99.5t-163.5 -27.5q-154 0 -249 80t-95 209zM449 283q0 -37 29.5 -60.5t78.5 -23.5q89 0 146 53.5t57 138.5v53l-164 -57q-100 -35 -111 -41q-36 -22 -36 -63zM500 1073l106 293h430l-250 -293h-286z" />
<glyph unicode="&#xe2;" horiz-adv-x="1239" d="M82 262q0 240 276 295l287 55q109 20 109 74q0 38 -35 61t-94 23q-69 0 -108.5 -32.5t-39.5 -90.5v-14h-350q8 90 30.5 147.5t69.5 104.5q131 131 406 131q227 0 368 -101q66 -50 96.5 -122t30.5 -181v-465q0 -56 6 -85.5t25 -61.5h-371q-23 49 -32 100 q-95 -72 -166.5 -99.5t-163.5 -27.5q-154 0 -249 80t-95 209zM258 1073l217 293h318l215 -293h-295l-82 135l-80 -135h-293zM449 283q0 -37 29.5 -60.5t78.5 -23.5q89 0 146 53.5t57 138.5v53l-164 -57q-100 -35 -111 -41q-36 -22 -36 -63z" />
<glyph unicode="&#xe3;" horiz-adv-x="1239" d="M82 262q0 240 276 295l287 55q109 20 109 74q0 38 -35 61t-94 23q-69 0 -108.5 -32.5t-39.5 -90.5v-14h-350q8 90 30.5 147.5t69.5 104.5q131 131 406 131q227 0 368 -101q66 -50 96.5 -122t30.5 -181v-465q0 -56 6 -85.5t25 -61.5h-371q-23 49 -32 100 q-95 -72 -166.5 -99.5t-163.5 -27.5q-154 0 -249 80t-95 209zM313 1063v29q0 123 55.5 191.5t155.5 68.5q50 0 131 -33l58 -25q32 -14 53 -14q54 0 57 74h195q0 -138 -58.5 -216.5t-162.5 -78.5q-52 0 -115 26l-76 31q-23 10 -45 10q-25 0 -38 -14.5t-19 -48.5h-191z M449 283q0 -37 29.5 -60.5t78.5 -23.5q89 0 146 53.5t57 138.5v53l-164 -57q-100 -35 -111 -41q-36 -22 -36 -63z" />
<glyph unicode="&#xe4;" horiz-adv-x="1239" d="M82 262q0 240 276 295l287 55q109 20 109 74q0 38 -35 61t-94 23q-69 0 -108.5 -32.5t-39.5 -90.5v-14h-350q8 90 30.5 147.5t69.5 104.5q131 131 406 131q227 0 368 -101q66 -50 96.5 -122t30.5 -181v-465q0 -56 6 -85.5t25 -61.5h-371q-23 49 -32 100 q-95 -72 -166.5 -99.5t-163.5 -27.5q-154 0 -249 80t-95 209zM215 1073v293h352v-293h-352zM449 283q0 -37 29.5 -60.5t78.5 -23.5q89 0 146 53.5t57 138.5v53l-164 -57q-100 -35 -111 -41q-36 -22 -36 -63zM698 1073v293h353v-293h-353z" />
<glyph unicode="&#xe5;" horiz-adv-x="1239" d="M82 262q0 240 276 295l287 55q109 20 109 74q0 38 -35 61t-94 23q-69 0 -108.5 -32.5t-39.5 -90.5v-14h-350q8 90 30.5 147.5t69.5 104.5q131 131 406 131q227 0 368 -101q66 -50 96.5 -122t30.5 -181v-465q0 -56 6 -85.5t25 -61.5h-371q-23 49 -32 100 q-95 -72 -166.5 -99.5t-163.5 -27.5q-154 0 -249 80t-95 209zM418 1313q0 89 63 152t152 63q91 0 154 -63.5t63 -155.5q0 -88 -63.5 -150.5t-151.5 -62.5q-90 0 -153.5 63.5t-63.5 153.5zM449 283q0 -37 29.5 -60.5t78.5 -23.5q89 0 146 53.5t57 138.5v53l-164 -57 q-100 -35 -111 -41q-36 -22 -36 -63zM559 1313q0 -31 22.5 -53.5t53.5 -22.5q29 0 51.5 22.5t22.5 51.5q0 31 -21.5 53t-52.5 22t-53.5 -22t-22.5 -51z" />
<glyph unicode="&#xe6;" horiz-adv-x="1931" d="M82 264q0 238 276 293l287 55q109 20 109 74q0 38 -35 61t-94 23q-69 0 -108.5 -32.5t-39.5 -90.5v-14h-350q8 90 30.5 147.5t69.5 104.5q131 131 406 131q223 0 354 -90q143 90 330 90q249 0 400 -157.5t151 -416.5q0 -23 -2 -39h-727q11 -75 64 -119t134 -44 q98 0 140 65h372q-34 -145 -182 -238.5t-342 -93.5q-284 0 -451 191q-111 -105 -203.5 -148t-207.5 -43q-170 0 -275.5 81t-105.5 210zM449 283q0 -37 29.5 -60.5t78.5 -23.5q89 0 146 53.5t57 138.5v51l-164 -55q-88 -29 -111 -41q-36 -22 -36 -63zM1141 608h342 q-7 72 -53 114t-117 42q-72 0 -118 -42t-54 -114z" />
<glyph unicode="&#xe7;" horiz-adv-x="1198" d="M66 496q0 230 153 375t397 145q217 0 357.5 -110.5t159.5 -295.5h-371q-30 133 -150 133q-80 0 -126 -65.5t-46 -177.5q0 -117 46 -184.5t124 -67.5q69 0 112 45t52 127h367q-12 -112 -42.5 -181t-92.5 -128q-138 -129 -369 -138l-49 -84q61 13 96 13q85 0 137.5 -43.5 t52.5 -112.5q0 -88 -72.5 -142.5t-189.5 -54.5q-137 0 -282 56l43 98q119 -41 198 -41q43 0 67 20.5t24 55.5q0 32 -23 52t-61 20q-31 0 -86 -19l-56 47l84 142q-208 25 -331 164t-123 352z" />
<glyph unicode="&#xe8;" horiz-adv-x="1236" d="M66 498q0 224 158 371t399 147q249 0 400 -157.5t151 -416.5q0 -15 -3 -39h-727q11 -75 64 -119t135 -44q97 0 139 65h373q-34 -145 -182 -238.5t-342 -93.5q-249 0 -407 146.5t-158 378.5zM236 1366h428l108 -293h-287zM446 608h342q-7 72 -53 114t-117 42 q-72 0 -118 -42t-54 -114z" />
<glyph unicode="&#xe9;" horiz-adv-x="1236" d="M66 498q0 224 158 371t399 147q249 0 400 -157.5t151 -416.5q0 -15 -3 -39h-727q11 -75 64 -119t135 -44q97 0 139 65h373q-34 -145 -182 -238.5t-342 -93.5q-249 0 -407 146.5t-158 378.5zM446 608h342q-7 72 -53 114t-117 42q-72 0 -118 -42t-54 -114zM487 1073 l107 293h430l-250 -293h-287z" />
<glyph unicode="&#xea;" horiz-adv-x="1236" d="M66 498q0 224 158 371t399 147q249 0 400 -157.5t151 -416.5q0 -15 -3 -39h-727q11 -75 64 -119t135 -44q97 0 139 65h373q-34 -145 -182 -238.5t-342 -93.5q-249 0 -407 146.5t-158 378.5zM252 1073l217 293h317l215 -293h-294l-82 135l-80 -135h-293zM446 608h342 q-7 72 -53 114t-117 42q-72 0 -118 -42t-54 -114z" />
<glyph unicode="&#xeb;" horiz-adv-x="1236" d="M66 498q0 224 158 371t399 147q249 0 400 -157.5t151 -416.5q0 -15 -3 -39h-727q11 -75 64 -119t135 -44q97 0 139 65h373q-34 -145 -182 -238.5t-342 -93.5q-249 0 -407 146.5t-158 378.5zM207 1073v293h352v-293h-352zM446 608h342q-7 72 -53 114t-117 42 q-72 0 -118 -42t-54 -114zM690 1073v293h352v-293h-352z" />
<glyph unicode="&#xec;" horiz-adv-x="604" d="M-90 1366h428l108 -293h-286zM111 0v989h383v-989h-383z" />
<glyph unicode="&#xed;" horiz-adv-x="604" d="M111 0v989h383v-989h-383zM176 1073l107 293h430l-250 -293h-287z" />
<glyph unicode="&#xee;" horiz-adv-x="604" d="M-59 1073l217 293h317l215 -293h-295l-82 135l-80 -135h-292zM111 0v989h383v-989h-383z" />
<glyph unicode="&#xef;" horiz-adv-x="604" d="M-68 1073v293h318v-293h-318zM111 0v989h383v-989h-383zM371 1073v293h315v-293h-315z" />
<glyph unicode="&#xf0;" horiz-adv-x="1241" d="M66 494q0 230 151 378q68 66 157.5 105t174.5 39q96 0 196 -68q-88 131 -233 240l-86 -133l-115 78l86 129l-65 38l100 177q23 -9 48 -21t36 -16l90 135l115 -76l-86 -129q247 -158 394 -394t147 -474q0 -227 -159.5 -378t-400.5 -151t-395.5 146.5t-154.5 374.5z M449 496q0 -121 44.5 -185.5t127.5 -64.5t127.5 63.5t44.5 182.5q0 123 -43.5 187t-128.5 64q-83 0 -127.5 -63.5t-44.5 -183.5z" />
<glyph unicode="&#xf1;" horiz-adv-x="1247" d="M111 0v989h362v-117q63 77 131.5 110.5t161.5 33.5q163 0 264 -98q107 -104 107 -304v-614h-383v539q0 75 -33 114t-96 39t-97 -39.5t-34 -113.5v-539h-383zM317 1063v29q0 123 55.5 191.5t155.5 68.5q50 0 131 -33l58 -25q31 -14 53 -14q54 0 57 74h195 q0 -138 -58.5 -216.5t-162.5 -78.5q-52 0 -115 26l-76 31q-23 10 -45 10q-25 0 -38 -14.5t-19 -48.5h-191z" />
<glyph unicode="&#xf2;" horiz-adv-x="1239" d="M66 496q0 146 72 265t198.5 187t281.5 68q242 0 399 -149.5t157 -379.5q0 -218 -160 -366t-396 -148t-394 149.5t-158 373.5zM229 1366h428l109 -293h-287zM449 496q0 -122 43 -186t126 -64t128 64t45 182q0 123 -44 187t-129 64q-83 0 -126 -63.5t-43 -183.5z" />
<glyph unicode="&#xf3;" horiz-adv-x="1239" d="M66 496q0 146 72 265t198.5 187t281.5 68q242 0 399 -149.5t157 -379.5q0 -218 -160 -366t-396 -148t-394 149.5t-158 373.5zM449 496q0 -122 43 -186t126 -64t128 64t45 182q0 123 -44 187t-129 64q-83 0 -126 -63.5t-43 -183.5zM481 1073l107 293h430l-250 -293h-287z " />
<glyph unicode="&#xf4;" horiz-adv-x="1239" d="M66 496q0 146 72 265t198.5 187t281.5 68q242 0 399 -149.5t157 -379.5q0 -218 -160 -366t-396 -148t-394 149.5t-158 373.5zM246 1073l217 293h317l215 -293h-295l-82 135l-79 -135h-293zM449 496q0 -122 43 -186t126 -64t128 64t45 182q0 123 -44 187t-129 64 q-83 0 -126 -63.5t-43 -183.5z" />
<glyph unicode="&#xf5;" horiz-adv-x="1239" d="M66 496q0 146 72 265t198.5 187t281.5 68q242 0 399 -149.5t157 -379.5q0 -218 -160 -366t-396 -148t-394 149.5t-158 373.5zM301 1063v29q0 123 55.5 191.5t155.5 68.5q50 0 131 -33l57 -25q32 -14 54 -14q54 0 57 74h195q0 -138 -59 -216.5t-163 -78.5q-51 0 -114 26 l-76 31q-23 10 -45 10q-25 0 -38 -14.5t-19 -48.5h-191zM449 496q0 -122 43 -186t126 -64t128 64t45 182q0 123 -44 187t-129 64q-83 0 -126 -63.5t-43 -183.5z" />
<glyph unicode="&#xf6;" horiz-adv-x="1239" d="M66 496q0 146 72 265t198.5 187t281.5 68q242 0 399 -149.5t157 -379.5q0 -218 -160 -366t-396 -148t-394 149.5t-158 373.5zM201 1073v293h352v-293h-352zM449 496q0 -122 43 -186t126 -64t128 64t45 182q0 123 -44 187t-129 64q-83 0 -126 -63.5t-43 -183.5zM684 1073 v293h352v-293h-352z" />
<glyph unicode="&#xf7;" d="M2 666v188h1022v-188h-1022zM373 422q0 57 40.5 97t98.5 40q57 0 97 -40.5t40 -96.5q0 -57 -40 -98t-97 -41t-98 41t-41 98zM375 1096q0 57 40.5 97t98.5 40q57 0 97 -40.5t40 -96.5q0 -57 -40.5 -98.5t-96.5 -41.5q-57 0 -98 41.5t-41 98.5z" />
<glyph unicode="&#xf8;" horiz-adv-x="1239" d="M66 494q0 224 158 373t394 149q163 0 295 -72l103 117l110 -96l-96 -111q69 -70 106.5 -164t37.5 -194q0 -224 -158.5 -373.5t-394.5 -149.5q-161 0 -293 72l-101 -119l-114 101l96 108q-69 74 -106 166.5t-37 192.5zM449 498q0 -16 4 -82l260 299q-41 28 -92 28 q-83 0 -127.5 -63t-44.5 -182zM526 274q43 -28 92 -28q83 0 128 64t45 184q0 4 -5 77z" />
<glyph unicode="&#xf9;" horiz-adv-x="1249" d="M111 408v581h383v-520q0 -172 129 -172q61 0 97 41.5t36 112.5v538h383v-989h-363v127q-63 -80 -135.5 -117t-167.5 -37q-174 0 -276 127q-46 57 -66 129t-20 179zM254 1366h428l109 -293h-287z" />
<glyph unicode="&#xfa;" horiz-adv-x="1249" d="M111 408v581h383v-520q0 -172 129 -172q61 0 97 41.5t36 112.5v538h383v-989h-363v127q-63 -80 -135.5 -117t-167.5 -37q-174 0 -276 127q-46 57 -66 129t-20 179zM494 1073l106 293h430l-250 -293h-286z" />
<glyph unicode="&#xfb;" horiz-adv-x="1249" d="M111 408v581h383v-520q0 -172 129 -172q61 0 97 41.5t36 112.5v538h383v-989h-363v127q-63 -80 -135.5 -117t-167.5 -37q-174 0 -276 127q-46 57 -66 129t-20 179zM256 1073l217 293h318l215 -293h-295l-82 135l-80 -135h-293z" />
<glyph unicode="&#xfc;" horiz-adv-x="1249" d="M111 408v581h383v-520q0 -172 129 -172q61 0 97 41.5t36 112.5v538h383v-989h-363v127q-63 -80 -135.5 -117t-167.5 -37q-174 0 -276 127q-46 57 -66 129t-20 179zM213 1073v293h352v-293h-352zM696 1073v293h353v-293h-353z" />
<glyph unicode="&#xfd;" horiz-adv-x="1112" d="M-6 989h405l103 -364q31 -118 47 -185l10 -43q10 38 10 43l33 125q5 16 9.5 37.5t4.5 22.5l99 364h405l-360 -989q-66 -180 -148.5 -246.5t-242.5 -66.5h-271v293h133q48 0 74.5 20.5t26.5 58.5q0 22 -17 68zM418 1073l106 293h430l-249 -293h-287z" />
<glyph unicode="&#xfe;" horiz-adv-x="1263" d="M111 -313v1679h383v-471q59 66 120 94.5t146 28.5q200 0 320 -145.5t120 -389.5q0 -232 -118 -371t-314 -139q-161 0 -274 107v-393h-383zM479 498q0 -109 45 -170.5t125 -61.5q78 0 123 61.5t45 168.5t-45 168t-123 61q-79 0 -124.5 -60.5t-45.5 -166.5z" />
<glyph unicode="&#xff;" horiz-adv-x="1112" d="M-6 989h405l103 -364q31 -118 47 -185l10 -43q10 38 10 43l33 125q5 16 9.5 37.5t4.5 22.5l99 364h405l-360 -989q-66 -180 -148.5 -246.5t-242.5 -66.5h-271v293h133q48 0 74.5 20.5t26.5 58.5q0 22 -17 68zM145 1073v293h353v-293h-353zM629 1073v293h352v-293h-352z " />
<glyph unicode="&#x152;" horiz-adv-x="2308" d="M80 688q0 191 91 354.5t247 259t338 95.5q96 0 167 -23.5t134 -75.5v68h1143v-342h-742v-166h649v-313h-649v-183h774v-362h-1175v66q-58 -52 -126 -74.5t-167 -22.5q-119 0 -230 40.5t-198 113.5q-117 98 -186.5 252t-69.5 313zM504 684q0 -169 75 -271t199 -102 q123 0 198 101.5t75 267.5q0 172 -74.5 273.5t-200.5 101.5q-123 0 -197.5 -101t-74.5 -270z" />
<glyph unicode="&#x153;" horiz-adv-x="1964" d="M66 494q0 224 158 373t394 149q217 0 363 -119q153 119 367 119q249 0 399.5 -157t150.5 -417v-39h-727q9 -75 62 -119t135 -44q99 0 141 65h371q-34 -145 -181 -238.5t-341 -93.5q-229 0 -377 117q-148 -117 -363 -117q-155 0 -281.5 68t-198.5 187.5t-72 265.5z M449 496q0 -122 44 -186t128 -64t128 62t44 184v10q0 119 -44 180t-128 61t-128 -63.5t-44 -183.5zM1174 608h339q-7 72 -53 114t-117 42q-72 0 -116.5 -42t-52.5 -114z" />
<glyph unicode="&#x178;" horiz-adv-x="1290" d="M-39 1366h451l233 -483l234 483h448l-473 -864v-502h-410v502zM227 1464v277h365v-277h-365zM723 1464v277h364v-277h-364z" />
<glyph unicode="&#x2c6;" d="M137 1073l217 293h318l215 -293h-295l-82 135l-80 -135h-293z" />
<glyph unicode="&#x2dc;" d="M160 1063v29q0 123 55.5 191.5t155.5 68.5q50 0 131 -33l57 -25q31 -14 53 -14q55 0 58 74h194q0 -138 -58.5 -216.5t-162.5 -78.5q-52 0 -115 26l-75 31q-23 10 -45 10q-25 0 -38.5 -14.5t-19.5 -48.5h-190z" />
<glyph unicode="&#x2000;" horiz-adv-x="925" />
<glyph unicode="&#x2001;" horiz-adv-x="1851" />
<glyph unicode="&#x2002;" horiz-adv-x="925" />
<glyph unicode="&#x2003;" horiz-adv-x="1851" />
<glyph unicode="&#x2004;" horiz-adv-x="617" />
<glyph unicode="&#x2005;" horiz-adv-x="462" />
<glyph unicode="&#x2006;" horiz-adv-x="308" />
<glyph unicode="&#x2007;" horiz-adv-x="308" />
<glyph unicode="&#x2008;" horiz-adv-x="231" />
<glyph unicode="&#x2009;" horiz-adv-x="370" />
<glyph unicode="&#x200a;" horiz-adv-x="102" />
<glyph unicode="&#x2010;" horiz-adv-x="604" d="M0 342v328h604v-328h-604z" />
<glyph unicode="&#x2011;" horiz-adv-x="604" d="M0 342v328h604v-328h-604z" />
<glyph unicode="&#x2012;" horiz-adv-x="604" d="M0 342v328h604v-328h-604z" />
<glyph unicode="&#x2013;" horiz-adv-x="1337" d="M78 342v328h1182v-328h-1182z" />
<glyph unicode="&#x2014;" horiz-adv-x="1624" d="M0 342v328h1624v-328h-1624z" />
<glyph unicode="&#x2018;" horiz-adv-x="563" d="M111 645v316q0 171 91 278.5t251 126.5v-168q-56 -9 -100 -53.5t-56 -104.5h156v-395h-342z" />
<glyph unicode="&#x2019;" horiz-adv-x="563" d="M111 645v170q55 7 99 51.5t56 104.5h-155v395h342v-315q0 -172 -90.5 -279.5t-251.5 -126.5z" />
<glyph unicode="&#x201a;" horiz-adv-x="563" d="M111 0v395h342v-315q0 -172 -90.5 -279.5t-251.5 -124.5v168q55 7 99 51.5t56 104.5h-155z" />
<glyph unicode="&#x201c;" horiz-adv-x="1017" d="M111 645v316q0 171 91 278.5t251 126.5v-168q-56 -9 -100 -53.5t-56 -104.5h156v-395h-342zM565 645v316q0 171 91 278.5t251 126.5v-168q-56 -9 -99.5 -53.5t-55.5 -104.5h155v-395h-342z" />
<glyph unicode="&#x201d;" horiz-adv-x="1017" d="M111 645v170q55 7 99 51.5t56 104.5h-155v395h342v-315q0 -172 -90.5 -279.5t-251.5 -126.5zM565 645v170q55 7 99.5 51.5t56.5 104.5h-156v395h342v-315q0 -172 -90.5 -279.5t-251.5 -126.5z" />
<glyph unicode="&#x201e;" horiz-adv-x="1017" d="M111 0v395h342v-315q0 -172 -90.5 -279.5t-251.5 -124.5v168q55 7 99 51.5t56 104.5h-155zM565 0v395h342v-315q0 -172 -90.5 -279.5t-251.5 -124.5v168q55 8 99.5 52t56.5 104h-156z" />
<glyph unicode="&#x2022;" horiz-adv-x="1366" d="M401 692q0 120 83.5 202.5t205.5 82.5q114 0 196.5 -83.5t82.5 -199.5q0 -118 -83 -201t-200 -83t-201 82.5t-84 199.5z" />
<glyph unicode="&#x2026;" horiz-adv-x="1851" d="M111 0v395h395v-395h-395zM727 0v395h395v-395h-395zM1346 0v395h395v-395h-395z" />
<glyph unicode="&#x202f;" horiz-adv-x="370" />
<glyph unicode="&#x2039;" horiz-adv-x="473" d="M74 328v354l313 256v-305l-164 -127l164 -127v-307z" />
<glyph unicode="&#x203a;" horiz-adv-x="473" d="M88 72v307l164 127l-164 127v305l313 -256v-354z" />
<glyph unicode="&#x205f;" horiz-adv-x="462" />
<glyph unicode="&#x20ac;" horiz-adv-x="1396" d="M78 496l55 141h143q-2 18 -2 41v49h-196l55 141h162q54 245 238 387t446 142q100 0 174 -16.5t166 -59.5l-139 -365q-77 99 -203 99q-178 0 -248 -187h414l-53 -141h-392v-47v-43h353l-56 -141h-266q72 -185 248 -185q122 0 201 95v-412q-103 -25 -199 -25 q-262 0 -442 139t-242 388h-217z" />
<glyph unicode="&#x2122;" horiz-adv-x="1898" d="M14 1139v227h764v-227h-241v-592h-279v592h-244zM885 547v819h358l105 -405l102 405h358v-819h-249v237l2 191l-109 -428h-211l-106 426v-166v-260h-250z" />
<glyph unicode="&#x25fc;" horiz-adv-x="993" d="M0 0v993h993v-993h-993z" />
</font>
</defs>
</svg>
