<?xml version="1.0" standalone="no"?>
<!DOCTYPE svg PUBLIC "-//W3C//DTD SVG 1.1//EN" "http://www.w3.org/Graphics/SVG/1.1/DTD/svg11.dtd" >
<svg xmlns="http://www.w3.org/2000/svg" xmlns:xlink="http://www.w3.org/1999/xlink" version="1.1">
<metadata></metadata>
<defs>
<font id="foundation_sanslight_extended" horiz-adv-x="1259" >
<font-face units-per-em="2048" ascent="1690" descent="-358" />
<missing-glyph horiz-adv-x="546" />
<glyph unicode="&#xfb01;" horiz-adv-x="1155" d="M39 895v106h174v107q0 86 9 129t34 72q63 75 242 75q98 0 223 -12v-112q-115 12 -197 12q-113 0 -155 -39q-25 -25 -25 -88v-144h662v-1001h-134v895h-528v-895h-131v895h-174zM872 1217v149h134v-149h-134z" />
<glyph unicode="&#xfb02;" horiz-adv-x="1153" d="M39 895v106h174v107q0 86 9 129t34 72q63 75 242 75q98 0 223 -12v-112q-115 12 -197 12q-113 0 -155 -39q-25 -25 -25 -88v-144h377v-106h-377v-895h-131v895h-174zM872 0v1366h129v-1366h-129z" />
<glyph unicode="&#xfb03;" horiz-adv-x="2027" d="M121 895v106h174v107q0 86 9 129t34 72q63 75 242 75q98 0 223 -12v-112q-115 12 -197 12q-113 0 -155 -39q-25 -25 -25 -88v-144h594v107q0 86 9 129t34 72q63 75 240 75q98 0 223 -12v-112q-115 12 -195 12q-113 0 -155 -39q-25 -25 -25 -88v-144h727v-1001h-133v895 h-594v-895h-131v895h-594v-895h-131v895h-174zM1745 1217v149h133v-149h-133z" />
<glyph unicode="&#xfb04;" horiz-adv-x="1875" d="M39 895v106h174v107q0 86 9 129t34 72q63 75 242 75q98 0 223 -12v-112q-115 12 -197 12q-113 0 -155 -39q-25 -25 -25 -88v-144h594v107q0 86 9 129t34 72q63 75 240 75q98 0 223 -12v-112q-115 12 -195 12q-113 0 -155 -39q-25 -25 -25 -88v-144h375v-106h-375v-895 h-131v895h-594v-895h-131v895h-174zM1595 0v1366h129v-1366h-129z" />
<glyph horiz-adv-x="0" />
<glyph horiz-adv-x="682" />
<glyph unicode=" "  horiz-adv-x="546" />
<glyph unicode="&#x09;" horiz-adv-x="546" />
<glyph unicode="&#xa0;" horiz-adv-x="546" />
<glyph unicode="!" horiz-adv-x="489" d="M164 0v160h162v-160h-162zM172 903v463h139v-463l-24 -581h-92z" />
<glyph unicode="&#x22;" horiz-adv-x="645" d="M115 1366h141l-20 -547h-101zM391 1366h141l-20 -547h-102z" />
<glyph unicode="#" horiz-adv-x="1228" d="M72 432l14 117h231l50 293h-232l15 116h231l63 408h131l-63 -408h295l61 408h133l-63 -408h227l-16 -116h-225l-45 -293h225l-14 -117h-230l-65 -432h-138l68 432h-293l-65 -432h-131l67 432h-231zM453 549h292l43 293h-292z" />
<glyph unicode="$" d="M86 395h129q0 -137 105 -225t268 -88v530l-78 15q-195 37 -279 104q-114 92 -114 246q0 102 58 188.5t157 132.5q58 28 113 39.5t143 16.5v155h86v-155q214 -9 339 -107t144 -270h-127q-41 245 -356 260v-512l94 -16q124 -22 188.5 -44t108.5 -59q109 -87 109 -244 q0 -175 -131 -278t-369 -115v-170h-86v170q-230 14 -364.5 128t-137.5 298zM246 979q0 -91 63 -144.5t199 -78.5l80 -15v496q-88 -3 -142 -18.5t-106 -51.5q-43 -31 -68.5 -82t-25.5 -106zM674 82q175 2 274 74t99 198q0 94 -61 147.5t-193 76.5l-119 20v-516z" />
<glyph unicode="%" horiz-adv-x="1691" d="M82 971q0 172 81 269t226 97q141 0 223 -99.5t82 -272.5q0 -158 -82.5 -254.5t-216.5 -96.5q-147 0 -230 94.5t-83 262.5zM182 969q0 -134 52.5 -204.5t152.5 -70.5q97 0 152 73.5t55 201.5q0 135 -53.5 209.5t-151.5 74.5q-101 0 -154 -72.5t-53 -211.5zM477 0l647 1319 h99l-645 -1319h-101zM997 336q0 172 81.5 269t226.5 97q141 0 223 -99.5t82 -272.5q0 -158 -82 -254t-217 -96q-148 0 -231 94.5t-83 261.5zM1098 334q0 -134 52.5 -204.5t152.5 -70.5q96 0 151 73.5t55 201.5q0 135 -53 209.5t-151 74.5q-101 0 -154 -72.5t-53 -211.5z" />
<glyph unicode="&#x26;" horiz-adv-x="1433" d="M117 383q0 61 21.5 120t58.5 99q47 49 101 86t171 100q-92 85 -129 151t-37 148q0 117 90 194t225 77t224.5 -75.5t89.5 -192.5q0 -59 -24.5 -114.5t-67.5 -92.5q-32 -29 -61.5 -48.5t-116.5 -70.5l438 -412q75 132 98 283h125q-9 -103 -39.5 -187.5t-93.5 -179.5 l285 -268h-168l-191 180q-110 -109 -230 -159t-272 -50q-221 0 -359 114.5t-138 297.5zM244 381q0 -63 31 -124t85 -105q93 -74 258 -74q124 0 223 43t191 137l-477 447q-167 -78 -239 -153t-72 -171zM420 1096q0 -108 98 -197l60 -53l90 53q143 83 143 199q0 66 -57 109.5 t-142 43.5q-82 0 -137 -44.5t-55 -110.5z" />
<glyph unicode="'" horiz-adv-x="368" d="M115 1366h141l-20 -547h-101z" />
<glyph unicode="(" horiz-adv-x="700" d="M106 502q0 233 95 459t272 415h88q-64 -84 -98.5 -140t-69.5 -132q-141 -299 -141 -600q0 -229 75 -431.5t244 -428.5h-90q-196 228 -285.5 433t-89.5 425z" />
<glyph unicode=")" horiz-adv-x="700" d="M129 1376h90q375 -421 375 -856q0 -467 -367 -876h-88q310 421 310 876q0 229 -77 435t-243 421z" />
<glyph unicode="*" horiz-adv-x="780" d="M88 1106l33 104l219 -77l-6 233h110l-2 -229l215 75l35 -100l-215 -72l144 -184l-82 -63l-140 196l-139 -203l-92 66l147 186z" />
<glyph unicode="+" d="M117 614v123h450v437h123v-437h451v-123h-451v-436h-123v436h-450z" />
<glyph unicode="," horiz-adv-x="462" d="M150 0v158h163v-205q0 -108 -37 -165.5t-126 -88.5v82q51 29 68.5 64.5t17.5 107.5v47h-86z" />
<glyph unicode="-" horiz-adv-x="661" d="M0 446v125h662v-125h-662z" />
<glyph unicode="." horiz-adv-x="462" d="M150 0v160h163v-160h-163z" />
<glyph unicode="/" horiz-adv-x="960" d="M25 -342l720 1708h129l-724 -1708h-125z" />
<glyph unicode="0" d="M109 670q0 201 34.5 330.5t112.5 213.5q129 144 362 144q154 0 268 -57t175 -166q48 -88 68 -201t20 -295t-31.5 -302t-101.5 -208q-128 -158 -375 -158q-149 0 -258.5 52t-169.5 151q-57 92 -80.5 206t-23.5 290zM242 655q0 -298 93 -430.5t304 -132.5q195 0 289 135 q47 69 66.5 160.5t19.5 249.5q0 159 -12.5 245.5t-45.5 157.5q-90 191 -327 191q-94 0 -169.5 -33t-119.5 -94q-52 -68 -75 -175t-23 -274z" />
<glyph unicode="1" d="M281 989v109h141q155 0 211.5 50.5t68.5 199.5h111v-1348h-129v989h-403z" />
<glyph unicode="2" d="M125 0q9 169 86.5 274t280.5 218l278 155q124 69 179 140t55 161q0 129 -96 206t-255 77q-178 0 -276.5 -91t-106.5 -263h-133q6 87 18.5 140.5t39.5 108.5q54 111 175 171.5t289 60.5q215 0 343 -113.5t128 -302.5q0 -132 -69.5 -222t-247.5 -188l-246 -135 q-144 -78 -203 -132.5t-90 -133.5h859v-131h-1008z" />
<glyph unicode="3" d="M113 414h129q5 -63 14 -99t31 -73q95 -154 360 -154q175 0 272 74t97 209q0 133 -93.5 197.5t-287.5 64.5h-98v121h98q154 0 240 63.5t86 177.5q0 113 -87.5 178.5t-238.5 65.5q-208 0 -299 -131q-29 -42 -40.5 -84.5t-14.5 -114.5h-129q6 89 19 141.5t42 104.5 q119 203 430 203q205 0 327 -97t122 -260q0 -77 -32.5 -142.5t-92.5 -106.5q-42 -31 -129 -56q113 -10 172 -47q65 -40 102 -115t37 -167q0 -106 -52 -196.5t-143 -139.5q-111 -60 -309 -60q-356 0 -473 209q-28 50 -40.5 99.5t-18.5 134.5z" />
<glyph unicode="4" d="M94 350v115l711 883h129v-891h242v-107h-242v-350h-131v350h-709zM219 457h584v522q0 65 6 215l-66 -80l-104 -135z" />
<glyph unicode="5" d="M119 344h133q16 -80 51 -125q46 -61 133.5 -95t198.5 -34q180 0 286.5 92.5t106.5 247.5t-105 242.5t-292 87.5q-130 0 -213 -41.5t-137 -132.5h-123l123 733h778v-131h-680l-72 -428q146 117 357 117q221 0 357 -121t136 -318q0 -211 -145 -339t-383 -128 q-139 0 -251 47t-177 132q-30 41 -47 81.5t-35 112.5z" />
<glyph unicode="6" d="M111 653q0 371 147 545q135 160 389 160q132 0 238.5 -43t163.5 -119q47 -63 73 -176h-135q-9 43 -19.5 67t-31.5 46q-44 49 -117.5 76.5t-161.5 27.5q-129 0 -222.5 -56.5t-139.5 -162.5q-30 -66 -42.5 -152t-14.5 -227q37 58 65 88t70 57q134 88 309 88 q215 0 349 -122.5t134 -317.5q0 -204 -141 -332.5t-367 -128.5q-155 0 -271 56.5t-181 162.5q-51 83 -72.5 191t-21.5 272zM266 428q0 -154 105.5 -248t275.5 -94q180 0 285.5 93t105.5 251q0 151 -102.5 237.5t-280.5 86.5q-177 0 -283 -89t-106 -237z" />
<glyph unicode="7" d="M141 1188v131h996v-131q-200 -233 -359 -567.5t-203 -620.5h-157q73 345 240.5 671t367.5 517h-885z" />
<glyph unicode="8" d="M109 371q0 93 38.5 169.5t110.5 121.5q51 34 158 59q-107 33 -158 82q-90 84 -90 219q0 157 123 246.5t340 89.5q275 0 395 -156q61 -80 61 -186q0 -114 -67 -193q-34 -39 -76.5 -61t-118.5 -41q167 -40 246.5 -128t79.5 -231q0 -183 -135.5 -287t-374.5 -104 q-252 0 -392 105.5t-140 294.5zM240 369q0 -132 104.5 -206.5t290.5 -74.5q180 0 281.5 73.5t101.5 203.5q0 138 -102.5 216t-282.5 78q-187 0 -290 -76t-103 -214zM301 1008q0 -111 85.5 -170.5t246.5 -59.5q149 0 235 59.5t86 163.5q0 111 -84 172.5t-237 61.5 q-161 0 -246.5 -58.5t-85.5 -168.5z" />
<glyph unicode="9" d="M96 893q0 209 142.5 337t375.5 128q143 0 257 -55t180 -156q54 -83 77 -189.5t23 -269.5q0 -173 -23.5 -287t-78.5 -206q-134 -224 -443 -224q-118 0 -215 36t-160 102q-66 68 -92 190h135q18 -74 52 -113q41 -46 114.5 -73t157.5 -27q285 0 379 231q46 106 49 369 q-44 -68 -76 -101.5t-80 -60.5q-124 -73 -288 -73q-217 0 -351.5 122.5t-134.5 319.5zM223 897q0 -151 103 -239.5t278 -88.5q179 0 285 88.5t106 237.5q0 154 -105.5 249t-275.5 95q-179 0 -285 -92.5t-106 -249.5z" />
<glyph unicode=":" horiz-adv-x="462" d="M150 0v160h163v-160h-163zM150 786v160h163v-160h-163z" />
<glyph unicode=";" horiz-adv-x="462" d="M150 0v158h163v-205q0 -108 -37 -165.5t-126 -88.5v82q51 29 68.5 64.5t17.5 107.5v47h-86zM150 786v160h163v-160h-163z" />
<glyph unicode="&#x3c;" horiz-adv-x="1024" d="M68 631v114l886 410v-131l-747 -336l747 -338v-129z" />
<glyph unicode="=" d="M117 492v122h1024v-122h-1024zM117 737v123h1024v-123h-1024z" />
<glyph unicode="&#x3e;" horiz-adv-x="1024" d="M70 221v131l747 336l-747 338v129l886 -410v-114z" />
<glyph unicode="?" horiz-adv-x="1079" d="M61 928q4 98 19.5 155.5t50.5 114.5q59 91 165 138.5t251 47.5q214 0 342.5 -110t128.5 -293q0 -202 -180 -332l-90 -65q-111 -80 -137.5 -114t-26.5 -97v-49h-138v75q0 75 41.5 132.5t161.5 144.5l101 74q129 97 129 237q0 123 -90 200t-236 77q-209 0 -297 -127 q-29 -39 -40.5 -83.5t-16.5 -125.5h-138zM436 0v160h160v-160h-160z" />
<glyph unicode="@" horiz-adv-x="1501" d="M70 684q0 146 55.5 277.5t150 225.5t226.5 149t280 55q138 0 258.5 -46.5t206.5 -127t135.5 -193.5t49.5 -242q0 -126 -46.5 -239t-124 -180.5t-163.5 -67.5q-64 0 -104.5 38t-45.5 103q-95 -149 -256 -149q-125 0 -205.5 94t-80.5 240q0 173 104.5 295t253.5 122 q171 0 231 -166l27 140h96l-86 -439q-12 -58 -12 -98q0 -44 22.5 -71t59.5 -27q83 0 148 121.5t65 275.5q0 221 -149 361.5t-384 140.5q-163 0 -298.5 -78.5t-213 -214.5t-77.5 -301q0 -119 41.5 -227t119.5 -191q165 -174 451 -174q228 0 438 103l29 -115 q-216 -103 -467 -103q-330 0 -531 201q-97 98 -150.5 231.5t-53.5 276.5zM514 621q0 -106 55.5 -172t143.5 -66q103 0 173 98.5t70 243.5q0 98 -49.5 155.5t-134.5 57.5q-106 0 -182 -93.5t-76 -223.5z" />
<glyph unicode="A" horiz-adv-x="1492" d="M27 0l630 1366h174l635 -1366h-159l-191 422h-745l-193 -422h-151zM424 545h635l-254 559q-46 99 -64 178q-21 -78 -65 -178z" />
<glyph unicode="B" horiz-adv-x="1413" d="M164 0v1366h616q152 0 218 -10.5t120 -44.5q66 -41 105 -119t39 -170q0 -83 -29.5 -149.5t-83.5 -104.5q-35 -26 -117 -49q62 -10 96.5 -23t67.5 -37q58 -41 90.5 -114.5t32.5 -161.5q0 -92 -37.5 -173t-103.5 -130q-108 -80 -314 -80h-700zM305 127h531q171 0 247 57 q46 32 71.5 86t25.5 117q0 71 -30.5 129.5t-82.5 89.5q-41 25 -97 34t-161 9h-504v-522zM305 770h537q137 0 209.5 60t72.5 174q0 141 -102 198q-67 37 -223 37h-494v-469z" />
<glyph unicode="C" horiz-adv-x="1572" d="M104 682q0 279 156 477q189 236 574 236q345 0 532 -217q52 -59 77.5 -121.5t37.5 -157.5h-140q-40 185 -167 280t-334 95q-175 0 -305.5 -63.5t-202.5 -184.5q-88 -148 -88 -342q0 -270 154.5 -431t414.5 -161q149 0 266.5 55t186.5 158q31 45 49 89.5t33 115.5h147 q-67 -275 -233 -407t-443 -132q-325 0 -520 194t-195 517z" />
<glyph unicode="D" horiz-adv-x="1472" d="M164 0v1366h543q191 0 280.5 -23.5t171.5 -93.5q209 -182 209 -563q0 -351 -178 -541q-82 -86 -181 -115.5t-309 -29.5h-536zM303 127h399q162 0 247 23.5t145 85.5q135 141 135 444q0 322 -154 461q-60 54 -141.5 76t-220.5 22h-410v-1112z" />
<glyph unicode="E" horiz-adv-x="1320" d="M164 0v1366h1057v-127h-918v-483h864v-125h-864v-504h934v-127h-1073z" />
<glyph unicode="F" horiz-adv-x="1261" d="M164 0v1366h1036v-127h-895v-485h799v-123h-799v-631h-141z" />
<glyph unicode="G" horiz-adv-x="1619" d="M106 676q0 172 64.5 321t181.5 246q185 152 479 152q303 0 486 -183q58 -60 90 -120t55 -154h-143q-50 161 -177.5 248.5t-314.5 87.5q-269 0 -425 -161.5t-156 -440.5q0 -266 155.5 -423t417.5 -157q286 0 434 201q50 65 72 132t27 165h-447v119h578v-709h-103l-16 150 v12v63v37q-151 -291 -533 -291q-327 0 -526 193.5t-199 511.5z" />
<glyph unicode="H" horiz-adv-x="1519" d="M164 0v1366h141v-573h909v573h142v-1366h-142v670h-909v-670h-141z" />
<glyph unicode="I" horiz-adv-x="468" d="M164 0v1366h141v-1366h-141z" />
<glyph unicode="J" horiz-adv-x="1067" d="M35 410v59h135v-59q0 -148 82 -233t225 -85t221 83t78 235v956h142v-928q0 -220 -99 -334q-55 -64 -143.5 -98.5t-196.5 -34.5q-207 0 -325.5 117.5t-118.5 321.5z" />
<glyph unicode="K" horiz-adv-x="1386" d="M164 0v1366h137v-768q54 52 203 184l661 584h195l-660 -575l660 -791h-189l-579 705l-291 -250v-455h-137z" />
<glyph unicode="L" horiz-adv-x="1216" d="M164 0v1366h141v-1239h877v-127h-1018z" />
<glyph unicode="M" horiz-adv-x="1937" d="M164 0v1366h207l518 -1067q46 -96 84 -199q39 113 67 174l525 1092h209v-1366h-136v1001q0 58 13 287q-41 -115 -97 -233l-505 -1055h-160l-469 969q-66 137 -135 313q16 -213 16 -336v-946h-137z" />
<glyph unicode="N" horiz-adv-x="1611" d="M164 0v1366h176l784 -975q86 -107 118.5 -153t80.5 -129q-16 157 -16 221v1036h141v-1366h-178l-783 973q-81 101 -110 142t-88 136q16 -188 16 -301v-950h-141z" />
<glyph unicode="O" horiz-adv-x="1677" d="M106 688q0 316 205.5 511.5t538.5 195.5q321 0 521 -200.5t200 -522.5q0 -155 -65.5 -301t-176.5 -240q-189 -160 -489 -160q-190 0 -341.5 67t-246.5 193q-69 93 -107.5 212.5t-38.5 244.5zM248 686q0 -268 163 -431t431 -163q262 0 425 163t163 425q0 277 -158.5 435.5 t-435.5 158.5q-267 0 -427.5 -160.5t-160.5 -427.5z" />
<glyph unicode="P" horiz-adv-x="1304" d="M164 0v1366h627q212 0 317 -94q127 -112 127 -307q0 -199 -133 -310q-59 -47 -140 -68.5t-202 -21.5h-455v-565h-141zM305 690h432q94 0 147 9t97 34q117 63 117 230q0 135 -78 205.5t-227 70.5h-488v-549z" />
<glyph unicode="Q" horiz-adv-x="1675" d="M106 692q0 316 202 511.5t528 195.5q330 0 531.5 -195t201.5 -516q0 -182 -71.5 -335t-188.5 -222q31 -14 73 -47l140 -111l-80 -96l-223 182q-90 -46 -178 -67t-197 -21q-356 0 -551 213q-89 97 -138 229.5t-49 278.5zM246 692q0 -267 162 -433.5t423 -166.5 q109 0 197 29l25 8q39 12 73 14q-29 15 -77 54l-107 86l76 96l201 -162q208 164 208 475q0 268 -158 426t-427 158q-270 0 -433 -159.5t-163 -424.5z" />
<glyph unicode="R" horiz-adv-x="1458" d="M164 0v1366h680q234 0 340 -82q65 -50 100 -126.5t35 -168.5q0 -74 -25 -138.5t-71 -107.5q-30 -30 -63.5 -46.5t-94.5 -34.5q120 -15 170 -78t59 -209l9 -123q6 -92 12 -133t13.5 -59t27.5 -42v-18h-160q-22 80 -29.5 130t-13.5 155l-4 71q-5 71 -19.5 113t-46.5 68 q-73 61 -221 61h-559v-598h-139zM303 721h545q89 0 140.5 10.5t92.5 38.5q97 63 97 203q0 72 -30 131t-83 90q-41 25 -96.5 35t-149.5 10h-516v-518z" />
<glyph unicode="S" horiz-adv-x="1351" d="M94 444h144q2 -64 13 -104.5t38 -79.5q60 -88 159 -130t248 -42q190 0 304 78t114 209q0 98 -70 150t-241 81l-203 35q-135 23 -202 43t-119 51q-144 85 -144 266t147.5 289.5t393.5 108.5q286 0 430 -156q48 -53 71.5 -112t30.5 -150h-135q-10 144 -114 220.5t-289 76.5 q-180 0 -288 -72.5t-108 -195.5q0 -118 101 -170q58 -30 198 -54l232 -38q137 -23 212 -49.5t128 -67.5q110 -87 110 -254q0 -191 -150 -300.5t-411 -109.5q-188 0 -324.5 58.5t-207.5 169.5q-32 51 -47 105t-21 144z" />
<glyph unicode="T" horiz-adv-x="1263" d="M35 1239v127h1194v-127h-522v-1239h-144v1239h-528z" />
<glyph unicode="U" horiz-adv-x="1505" d="M150 494v872h141v-858q0 -199 106 -299q126 -117 365 -117q121 0 217.5 35t153.5 100q44 51 61.5 119.5t17.5 192.5v827h142v-797q0 -161 -19 -244t-71 -149q-158 -205 -521 -205q-308 0 -469 170q-64 66 -94 151t-30 202z" />
<glyph unicode="V" horiz-adv-x="1431" d="M27 1366h157l467 -1067q31 -68 72 -211q35 123 74 211l458 1067h150l-600 -1366h-170z" />
<glyph unicode="W" horiz-adv-x="2088" d="M27 1366h149l328 -1018q25 -76 65 -268q34 166 64 256l323 1030h174l334 -1038q26 -79 36.5 -120.5t25.5 -127.5q24 136 55 237l332 1049h149l-446 -1366h-182l-334 1030q-26 81 -58 236q-33 -148 -53 -215l-334 -1051h-176z" />
<glyph unicode="X" horiz-adv-x="1320" d="M20 0l558 700l-531 666h172l375 -477q41 -59 70 -107l26 41q31 51 43 66l375 477h170l-533 -666l555 -700h-172l-366 471q-40 54 -98 145l-66 -92l-408 -524h-170z" />
<glyph unicode="Y" horiz-adv-x="1343" d="M14 1366h166l391 -526q51 -70 103 -158q38 67 86 135l403 549h168l-588 -784v-582h-137v582z" />
<glyph unicode="Z" horiz-adv-x="1320" d="M63 0v127l918 1014q23 27 121 112q-100 -14 -215 -14h-776v127h1132v-127l-901 -991q-52 -58 -135 -131q110 10 170 10h889v-127h-1203z" />
<glyph unicode="[" horiz-adv-x="681" d="M150 -344v1710h395v-109h-271v-1497h271v-104h-395z" />
<glyph unicode="\" horiz-adv-x="960" d="M106 1366h130l720 -1708h-122z" />
<glyph unicode="]" horiz-adv-x="681" d="M137 -236h271v1498h-271v104h395v-1710h-395v108z" />
<glyph unicode="^" horiz-adv-x="1024" d="M59 758l369 610h170l369 -610h-144l-311 508l-311 -508h-142z" />
<glyph unicode="_" horiz-adv-x="1024" d="M0 -139h1024v-121h-1024v121z" />
<glyph unicode="`" horiz-adv-x="1024" d="M274 1430h175l163 -275h-106z" />
<glyph unicode="a" horiz-adv-x="1204" d="M88 264q0 178 164 250q65 29 250 55l209 29q119 17 161.5 45.5t42.5 91.5q0 88 -76 133t-221 45q-175 0 -259.5 -55.5t-96.5 -179.5h-133q12 82 30.5 128.5t55.5 86.5q63 72 160 104.5t250 32.5q268 0 364 -131q34 -44 43.5 -92t9.5 -166v-451q0 -88 66 -88q14 0 61 13 v-105q-74 -20 -120 -20q-61 0 -99 48q-33 41 -33 98q0 9 1 18v6q-98 -106 -194.5 -147.5t-244.5 -41.5q-181 0 -286 79t-105 214zM219 272q0 -91 73.5 -140.5t205.5 -49.5q109 0 203.5 39t158.5 112q33 37 43 64t12 72l3 104q0 12 4 86q-42 -29 -88 -44.5t-146 -29.5 l-186 -28q-162 -25 -222.5 -65t-60.5 -120z" />
<glyph unicode="b" horiz-adv-x="1300" d="M150 0v1366h126v-571q37 61 66 93.5t70 61.5q112 80 266 80q148 0 269 -69.5t189 -191.5t68 -271q0 -224 -151 -375.5t-375 -151.5q-188 0 -307 113q-46 43 -95 127v-211h-126zM268 514q0 -183 115 -304.5t287 -121.5q174 0 286.5 116t112.5 296q0 178 -114 295.5 t-287 117.5q-169 0 -284.5 -115t-115.5 -284z" />
<glyph unicode="c" horiz-adv-x="1173" d="M94 498q0 236 144 384t376 148q128 0 238.5 -51t171.5 -139q43 -59 70 -168h-136q-15 50 -30 77.5t-41 55.5q-48 48 -122 76t-153 28q-179 0 -285 -110.5t-106 -296.5q0 -183 110 -297.5t287 -114.5q95 0 173 36.5t124 102.5q34 52 52 129h137q-17 -81 -36 -126t-54 -87 q-64 -83 -171 -128.5t-235 -45.5q-228 0 -371 146.5t-143 380.5z" />
<glyph unicode="d" horiz-adv-x="1296" d="M96 502q0 224 149.5 375t370.5 151q274 0 402 -235v184v389h129v-1366h-129v207q-55 -89 -109 -135q-55 -48 -131.5 -74.5t-161.5 -26.5q-222 0 -371 152.5t-149 378.5zM229 502q0 -177 115.5 -296.5t284.5 -119.5q166 0 283.5 119.5t117.5 288.5q0 178 -114.5 295.5 t-286.5 117.5q-175 0 -287.5 -114t-112.5 -291z" />
<glyph unicode="e" horiz-adv-x="1228" d="M94 498q0 236 145.5 384t378.5 148q147 0 265 -66t182 -184q38 -69 53 -137.5t17 -177.5h-914q11 -100 39.5 -165t83.5 -116q107 -96 270 -96q123 0 212.5 56.5t136.5 164.5h135q-22 -67 -44 -106.5t-61 -79.5q-68 -71 -170.5 -111.5t-214.5 -40.5q-228 0 -371 146.5 t-143 380.5zM229 571h770q-16 120 -65 187q-51 73 -136.5 114t-185.5 41q-115 0 -206.5 -52t-137.5 -144q-28 -52 -39 -146z" />
<glyph unicode="f" horiz-adv-x="641" d="M39 895v106h174v107q0 85 7 128.5t26 74.5q48 73 180 73q64 0 158 -12v-112q-82 12 -127 12q-74 0 -99 -39q-14 -22 -14 -88v-144h240v-106h-240v-895h-131v895h-174z" />
<glyph unicode="g" horiz-adv-x="1296" d="M94 516q0 221 150.5 367.5t376.5 146.5q192 0 311 -110q38 -33 88 -115v196h127v-870q0 -137 -25 -220t-82 -142q-134 -134 -417 -134q-213 0 -334 82q-62 41 -93 92.5t-46 137.5h137q7 -52 25 -83t53 -54q92 -60 266 -60q217 0 315 98q74 74 74 234v145 q-75 -120 -168.5 -172.5t-228.5 -52.5q-148 0 -269.5 67t-190.5 185t-69 262zM229 518q0 -172 113.5 -285.5t284.5 -113.5q169 0 287 115.5t118 279.5q0 173 -114 286t-287 113q-178 0 -290 -110t-112 -285z" />
<glyph unicode="h" horiz-adv-x="1251" d="M150 0v1366h129v-387q0 -53 -9 -191q146 234 439 234q116 0 208 -39.5t136 -108.5q28 -43 38.5 -101t10.5 -165v-608h-131v608q0 141 -41 201q-31 46 -95 73t-145 27q-92 0 -176.5 -33t-144.5 -92q-51 -49 -70.5 -106.5t-19.5 -153.5v-524h-129z" />
<glyph unicode="i" horiz-adv-x="432" d="M150 0v1001h133v-1001h-133zM150 1217v149h133v-149h-133z" />
<glyph unicode="j" horiz-adv-x="444" d="M-61 -242q71 -8 106 -8q67 0 92 26t25 97v1128h131v-1091q0 -84 -6 -124t-23 -69q-45 -82 -188 -82q-46 0 -137 11v112zM162 1217v149h131v-149h-131z" />
<glyph unicode="k" horiz-adv-x="1185" d="M150 0v1366h131v-846q8 7 17.5 16t14 13.5t6.5 5.5q19 17 57 47t44 35l448 364h193l-459 -364l541 -637h-172l-473 553l-217 -170v-383h-131z" />
<glyph unicode="l" horiz-adv-x="430" d="M150 0v1366h129v-1366h-129z" />
<glyph unicode="m" horiz-adv-x="2009" d="M150 0v1001h131v-61v-149q38 57 66.5 88t66.5 57q127 84 299 84q96 0 172 -29.5t119 -83.5q35 -42 59 -125q35 60 62 91.5t69 60.5q128 88 291 88q102 0 185.5 -35t127.5 -96q62 -82 62 -246v-645h-134v614q0 75 -10 119t-35 78q-34 46 -96 72t-137 26q-86 0 -164 -33 t-129 -92q-41 -50 -59.5 -118.5t-18.5 -176.5v-489h-131v563q0 99 -7 146t-28 84q-29 54 -93.5 84t-149.5 30q-94 0 -179 -38.5t-139 -104.5q-39 -47 -54 -104.5t-15 -159.5v-500h-131z" />
<glyph unicode="n" horiz-adv-x="1261" d="M150 0v1001h131v-55v-158q37 57 65.5 87.5t71.5 58.5q131 86 305 86q106 0 194.5 -35t133.5 -96q32 -41 45.5 -99.5t13.5 -156.5v-633h-133v618q0 136 -49 199q-74 90 -242 90q-95 0 -181 -33.5t-143 -93.5q-81 -87 -81 -235v-545h-131z" />
<glyph unicode="o" d="M94 496q0 236 151 385t390 149q235 0 382.5 -149.5t147.5 -388.5q0 -224 -152 -372.5t-384 -148.5q-236 0 -385.5 146.5t-149.5 378.5zM225 502q0 -180 115 -297t295 -117q170 0 283.5 116.5t113.5 291.5q0 181 -113 299t-286 118q-177 0 -292.5 -116.5t-115.5 -294.5z " />
<glyph unicode="p" horiz-adv-x="1300" d="M150 -346v1347h129v-204q70 120 167.5 176.5t231.5 56.5q145 0 266.5 -70.5t191.5 -193t70 -268.5q0 -145 -69 -266.5t-189 -191t-264 -69.5q-135 0 -234 57t-171 177v-551h-129zM266 506q0 -179 115 -298.5t287 -119.5q175 0 289 116t114 294q0 177 -115.5 296 t-285.5 119q-166 0 -285 -120t-119 -287z" />
<glyph unicode="q" horiz-adv-x="1298" d="M94 498q0 227 151.5 379.5t375.5 152.5q92 0 174.5 -31t140.5 -88q41 -41 84 -118v208h129v-1347h-129v549q-79 -124 -173.5 -178t-232.5 -54q-224 0 -372 150t-148 377zM227 500q0 -178 114.5 -295t287.5 -117q169 0 285 115t116 282q0 181 -116.5 304.5t-286.5 123.5 q-174 0 -287 -116.5t-113 -296.5z" />
<glyph unicode="r" horiz-adv-x="778" d="M150 0v1001h122v-108q0 -8 -4 -94q63 121 137 171t191 50q56 0 133 -19v-120q-82 16 -139 16q-93 0 -171 -53.5t-116 -143.5q-14 -34 -17 -57t-3 -88v-555h-133z" />
<glyph unicode="s" horiz-adv-x="1116" d="M82 315h127q11 -86 59 -131q53 -50 126.5 -70t203.5 -20q173 0 240 53q69 54 69 129q0 66 -47 103.5t-151 50.5l-258 35q-177 25 -259.5 90t-82.5 180q0 135 115.5 210t324.5 75q142 0 235.5 -35.5t155.5 -110.5q27 -35 41 -71t23 -96h-134q-20 110 -91.5 155t-227.5 45 q-149 0 -230 -42.5t-81 -119.5q0 -64 48.5 -98t164.5 -51l229 -33q104 -15 163 -33t97 -47q96 -72 96 -196q0 -71 -35.5 -134t-99.5 -102q-110 -69 -328 -69q-271 0 -399 122q-44 41 -65.5 88.5t-28.5 122.5z" />
<glyph unicode="t" horiz-adv-x="647" d="M29 891v110h176v297h131v-297h237v-110h-237v-653q0 -84 19.5 -111t80.5 -27q27 0 137 11v-111q-106 -14 -155 -14q-140 0 -185 80q-17 30 -22.5 80.5t-5.5 170.5v574h-176z" />
<glyph unicode="u" horiz-adv-x="1249" d="M150 336v665h133v-636q0 -140 68 -205.5t214 -65.5q123 0 224.5 51.5t148.5 139.5q31 60 31 151v565h131v-1001h-121v211q-35 -53 -62.5 -82.5t-66.5 -56.5q-129 -90 -315 -90q-385 0 -385 354z" />
<glyph unicode="v" horiz-adv-x="1075" d="M14 1001h144l291 -643q32 -71 96 -235q62 166 96 244l283 634h139l-453 -1001h-137z" />
<glyph unicode="w" horiz-adv-x="1617" d="M14 1001h136l229 -677q31 -93 65 -230q41 167 62 230l223 677h160l225 -677q32 -98 66 -230q24 130 59 230l229 677h138l-353 -1001h-153l-236 700q-28 82 -53 220q-34 -154 -57 -220l-232 -700h-160z" />
<glyph unicode="x" horiz-adv-x="1103" d="M6 0l465 522l-422 479h172l236 -274q47 -54 98 -141q55 90 100 141l234 274h166l-414 -479l455 -522h-166l-289 334q-44 52 -86 121q-49 -73 -98 -129l-285 -326h-166z" />
<glyph unicode="y" horiz-adv-x="1105" d="M14 1001h146l303 -645q45 -95 98 -243q72 189 98 243l297 645h138l-508 -1097q-45 -96 -71.5 -140.5t-55.5 -70.5q-71 -62 -211 -62q-55 0 -129 13v125q81 -17 129 -17q75 0 114 24.5t70 90.5l62 133z" />
<glyph unicode="z" horiz-adv-x="1062" d="M59 0v113l650 663q61 61 127 115q-99 -8 -174 -8h-578v118h907v-118l-620 -623l-44 -44t-34 -32.5t-23.5 -21.5t-26.5 -23.5t-30 -25.5q84 8 154 8h653v-121h-961z" />
<glyph unicode="{" horiz-adv-x="681" d="M145 465v100q62 17 88.5 59t26.5 121v361q0 141 65 206.5t205 65.5h45v-106q-110 -5 -148 -41t-38 -139v-353q0 -95 -24.5 -144.5t-88.5 -84.5q63 -34 88 -85t25 -146v-338q0 -110 37.5 -148t148.5 -41v-106h-36q-151 0 -215 68t-64 229v331q0 87 -26 129.5t-89 61.5z " />
<glyph unicode="|" horiz-adv-x="1024" d="M446 -342v1708h129v-1708h-129z" />
<glyph unicode="}" horiz-adv-x="681" d="M104 -246q113 3 151 39.5t38 140.5v351q0 95 24.5 144.5t88.5 84.5q-63 34 -88 86t-25 148v335q0 110 -38.5 149t-150.5 40v106q100 0 148.5 -10t83.5 -39q46 -35 66 -93.5t20 -152.5v-333q0 -88 25 -130t88 -61v-100q-61 -17 -87 -58.5t-26 -121.5v-361 q0 -141 -65.5 -206.5t-206.5 -65.5h-46v108z" />
<glyph unicode="~" horiz-adv-x="1366" d="M190 1251q63 125 125.5 176.5t151.5 51.5q73 0 231 -74q89 -42 128 -55t75 -13q58 0 99.5 32t91.5 114l82 -47q-59 -116 -128.5 -170t-160.5 -54q-43 0 -94.5 18.5t-190.5 82.5q-90 41 -143 41q-56 0 -99.5 -35.5t-89.5 -118.5z" />
<glyph unicode="&#xa1;" horiz-adv-x="489" d="M164 842v159h162v-159h-162zM178 98l25 582h92l22 -582v-463h-139v463z" />
<glyph unicode="&#xa2;" d="M125 686q0 223 123.5 362t341.5 162v176h86v-176q175 -8 293 -100t155 -250h-137q-32 109 -112.5 169t-198.5 61v-799q123 5 206 72t115 188h136q-32 -169 -158 -273.5t-299 -105.5v-197h-86v197q-98 14 -161.5 38t-123.5 71q-88 67 -134 171.5t-46 233.5zM252 692 q0 -104 42 -193.5t116 -142.5q40 -28 78.5 -42t101.5 -23v799q-105 -13 -174 -58q-75 -50 -119.5 -141.5t-44.5 -198.5z" />
<glyph unicode="&#xa3;" d="M72 698h147l-26 68q-37 98 -37 203q0 177 140 287t363 110q468 0 512 -446h-133q-3 69 -14.5 109.5t-38.5 78.5q-47 66 -133.5 102.5t-194.5 36.5q-168 0 -272 -81t-104 -210q0 -75 32 -157l37 -101h441v-94h-406q39 -103 39 -184q0 -95 -45 -165.5t-174 -174.5 q76 43 133 60.5t119 17.5q49 0 155 -25l90 -22q90 -23 158 -23q66 0 126.5 21.5t154.5 78.5l47 -114q-106 -60 -174 -81.5t-154 -21.5q-107 0 -233 37l-88 25q-79 20 -133 20q-67 0 -120 -17t-122 -59l-70 115q109 64 159 141.5t50 178.5q0 71 -29 139l-22 53l-178 2z" />
<glyph unicode="&#xa4;" horiz-adv-x="1366" d="M119 1212l74 76l192 -192q139 108 297 108q155 0 295 -106l190 188l74 -74l-190 -190q106 -137 106 -293q0 -153 -104 -291l192 -190l-74 -76l-192 193q-137 -107 -295 -107q-151 0 -295 107l-192 -193l-72 76l186 190q-104 137 -104 293q0 80 25 149t81 142zM328 729 q0 -146 104 -250t250 -104t250 104t104 250q0 147 -103.5 252.5t-246.5 105.5q-151 0 -254.5 -103.5t-103.5 -254.5z" />
<glyph unicode="&#xa5;" d="M-25 1366h170l275 -379h418l276 379h170l-285 -379h211v-88h-276l-189 -254h465v-92h-510v-553h-137v553h-516v92h471l-194 254h-277v88h209zM487 899l64 -88q26 -36 80 -131q38 72 82 131l65 88h-291z" />
<glyph unicode="&#xa6;" horiz-adv-x="1024" d="M446 313h129v-655h-129v655zM446 688v678h129v-678h-129z" />
<glyph unicode="&#xa7;" horiz-adv-x="1370" d="M150 596q0 189 204 272q-60 52 -84 98.5t-24 108.5q0 137 115 220t305 83q267 0 370 -143q30 -40 44 -84t18 -115h-131q-12 236 -305 236q-135 0 -211 -51t-76 -142q0 -63 39 -100t143 -72l410 -139q134 -47 184 -100q70 -76 70 -185q0 -98 -48 -162.5t-153 -107.5 q60 -41 86.5 -90.5t26.5 -120.5q0 -152 -122 -241t-333 -89q-252 0 -371 131q-38 42 -56.5 91t-27.5 129h131q9 -123 88 -180.5t240 -57.5q158 0 242 54t84 155q0 65 -36 104t-124 70l-387 135q-183 63 -247 123.5t-64 169.5zM276 616q0 -65 37.5 -105t126.5 -71l498 -176 q79 26 120.5 77t41.5 122q0 70 -42 115t-136 77l-482 168q-164 -66 -164 -207z" />
<glyph unicode="&#xa8;" horiz-adv-x="1024" d="M221 1214v152h139v-152h-139zM664 1214v152h137v-152h-137z" />
<glyph unicode="&#xa9;" horiz-adv-x="1548" d="M68 682q0 146 56 277t151 226t227.5 150.5t279.5 55.5q187 0 348 -96t255 -259.5t94 -353.5q0 -191 -94.5 -354t-257 -258t-353.5 -95q-143 0 -274 56t-225.5 151t-150.5 226t-56 274zM176 682q0 -122 47.5 -234t127.5 -193.5t191 -130t232 -48.5t231 48t190 129.5 t127.5 193.5t47.5 235q0 163 -80 303.5t-215.5 222.5t-292.5 82q-167 0 -306.5 -80.5t-219.5 -220.5t-80 -307zM354 690q0 158 95 273q112 133 342 133q167 0 270.5 -77t120.5 -214h-97q-44 209 -290 209q-161 0 -252.5 -85.5t-91.5 -236.5q0 -150 89 -237.5t242 -87.5 q252 0 310 233h98q-41 -162 -139.5 -238.5t-266.5 -76.5q-196 0 -313 110t-117 295z" />
<glyph unicode="&#xaa;" horiz-adv-x="851" d="M84 711q0 68 43 108q36 33 84 49.5t149 28.5l136 16q73 9 100 24.5t27 49.5q0 47 -48 72.5t-139 25.5q-114 0 -166.5 -32.5t-58.5 -106.5h-100q19 120 94 170.5t235 50.5q177 0 242 -80q23 -26 30 -55.5t7 -99.5v-266q0 -25 8 -35t27 -10q7 0 47 8v-74q-52 -14 -86 -14 q-40 0 -64.5 24.5t-25.5 65.5q-59 -54 -123 -77.5t-156 -23.5q-121 0 -191.5 49t-70.5 132zM184 715q0 -49 45 -77t125 -28q107 0 187 47.5t82 112.5l2 61q0 21 2 39q-33 -19 -144 -36l-121 -19q-103 -15 -140.5 -36t-37.5 -64z" />
<glyph unicode="&#xab;" horiz-adv-x="952" d="M96 436v176l344 258v-143l-272 -205l272 -207v-141zM494 436v176l344 258v-143l-273 -205l273 -207v-141z" />
<glyph unicode="&#xac;" horiz-adv-x="1024" d="M68 426v121h886v-547h-129v426h-757z" />
<glyph unicode="&#xad;" horiz-adv-x="661" d="M0 446v125h662v-125h-662z" />
<glyph unicode="&#xae;" horiz-adv-x="1548" d="M68 682q0 146 56 277t151 226t227.5 150.5t279.5 55.5q187 0 348 -96t255 -259.5t94 -353.5q0 -191 -94.5 -354t-257 -258t-353.5 -95q-143 0 -274 56t-225.5 151t-150.5 226t-56 274zM176 682q0 -122 47.5 -234t127.5 -193.5t191 -130t232 -48.5t231 48t190 129.5 t127.5 193.5t47.5 235q0 163 -80 303.5t-215.5 222.5t-292.5 82q-167 0 -306.5 -80.5t-219.5 -220.5t-80 -307zM416 301v778h407q141 0 205 -47q82 -59 82 -170q0 -66 -29 -108.5t-96 -73.5q65 -25 85 -53t26 -107l6 -71q6 -72 10.5 -90.5t20.5 -36.5v-21h-107 q-23 83 -27 166l-2 41q-3 70 -39.5 99.5t-121.5 29.5h-324v-336h-96zM512 719h313q98 0 142.5 32t44.5 101q0 75 -47.5 109t-153.5 34h-299v-276z" />
<glyph unicode="&#xaf;" horiz-adv-x="1024" d="M178 1235v113h666v-113h-666z" />
<glyph unicode="&#xb0;" horiz-adv-x="708" d="M68 1092q0 112 84.5 193t201.5 81t201 -82t84 -197q0 -114 -84 -196t-201 -82q-120 0 -203 82t-83 201zM156 1090q0 -82 57.5 -139.5t140.5 -57.5q80 0 138.5 57.5t58.5 136.5q0 80 -58.5 137.5t-140.5 57.5q-80 0 -138 -57t-58 -135z" />
<glyph unicode="&#xb1;" d="M117 41v123h1024v-123h-1024zM117 723v123h450v438h123v-438h451v-123h-451v-436h-123v436h-450z" />
<glyph unicode="&#xb2;" horiz-adv-x="845" d="M86 512q6 106 58 171.5t188 133.5l184 92q79 39 114.5 83t35.5 100q0 75 -62.5 120t-165.5 45q-236 0 -245 -217h-99q8 104 39 160q37 69 117 106t192 37q143 0 230.5 -70.5t87.5 -185.5q0 -83 -46.5 -138t-166.5 -115l-162 -82q-91 -47 -129.5 -78t-58.5 -74h551v-88 h-662z" />
<glyph unicode="&#xb3;" horiz-adv-x="845" d="M78 770h96q6 -103 68.5 -150t191.5 -47q117 0 179.5 43t62.5 125q0 154 -248 154h-70v82h70q100 0 154.5 37t54.5 104q0 65 -57 103.5t-152 38.5q-223 0 -229 -199h-95q9 144 89 212t239 68q137 0 219 -59.5t82 -159.5q0 -134 -145 -182q88 -10 136 -63t48 -138 q0 -67 -34.5 -122.5t-96.5 -86.5q-68 -36 -205 -36q-177 0 -261.5 65t-96.5 211z" />
<glyph unicode="&#xb4;" horiz-adv-x="1024" d="M412 1155l163 275h175l-232 -275h-106z" />
<glyph unicode="&#xb5;" d="M154 -342v1343h133v-636q0 -140 68 -205.5t214 -65.5q123 0 224.5 51.5t148.5 139.5q31 60 31 151v565h131v-1001h-121v211q-145 -229 -397 -229q-190 0 -299 100v-424h-133z" />
<glyph unicode="&#xb6;" d="M90 999q0 100 46.5 184t125.5 128q99 55 277 55h622v-102h-119v-1606h-112v1606h-223v-1606h-113v983h-88q-89 0 -142.5 11.5t-105.5 41.5q-78 44 -123 125.5t-45 179.5z" />
<glyph unicode="&#xb7;" horiz-adv-x="462" d="M150 500v159h163v-159h-163z" />
<glyph unicode="&#xb8;" horiz-adv-x="1024" d="M299 -371l16 64q105 -21 152 -21q60 0 93.5 20.5t33.5 55.5q0 28 -25.5 47t-62.5 19q-41 0 -100 -21l-46 37l103 170h80l-74 -123q58 17 92 17q72 0 118 -37t46 -95q0 -71 -67 -116t-171 -45q-83 0 -188 28z" />
<glyph unicode="&#xb9;" horiz-adv-x="845" d="M209 1110v76h98q102 0 138 29.5t42 119.5h82v-823h-94v598h-266z" />
<glyph unicode="&#xba;" horiz-adv-x="886" d="M88 846q0 142 100 231.5t258 89.5q155 0 253 -90t98 -233q0 -135 -101.5 -224.5t-253.5 -89.5q-156 0 -255 89t-99 227zM186 850q0 -104 72.5 -171t185.5 -67q109 0 180.5 66.5t71.5 167.5q0 104 -71 171.5t-181 67.5q-113 0 -185.5 -66t-72.5 -169z" />
<glyph unicode="&#xbb;" horiz-adv-x="952" d="M117 174v143l272 205l-272 207v141l344 -260v-178zM514 174v143l272 205l-272 207v141l344 -260v-178z" />
<glyph unicode="&#xbc;" horiz-adv-x="1898" d="M209 1110v76h98q102 0 138 29.5t42 119.5h82v-823h-94v598h-266zM575 0l648 1319h98l-645 -1319h-101zM1116 213v76l471 534h92v-536h158v-74h-158v-213h-96v213h-467zM1214 287h369v309q0 62 4 117l-35 -37q-11 -15 -69 -82z" />
<glyph unicode="&#xbd;" horiz-adv-x="1898" d="M209 1110v76h98q102 0 138 29.5t42 119.5h82v-823h-94v598h-266zM575 0l648 1319h98l-645 -1319h-101zM1137 0q6 106 58 171t187 134l185 94q78 40 113.5 83.5t35.5 97.5q0 75 -62 120t-165 45q-117 0 -179 -54.5t-67 -160.5h-98q8 105 39 158q37 69 117.5 106t191.5 37 q143 0 230 -70.5t87 -185.5q0 -81 -46.5 -135t-166.5 -116l-161 -84q-92 -47 -130.5 -78t-58.5 -74h551v-88h-661z" />
<glyph unicode="&#xbe;" horiz-adv-x="1898" d="M78 770h96q6 -103 68.5 -150t191.5 -47q117 0 179.5 43t62.5 125q0 154 -248 154h-70v82h70q100 0 154.5 37t54.5 104q0 65 -57 103.5t-152 38.5q-223 0 -229 -199h-95q9 144 89 212t239 68q137 0 219 -59.5t82 -159.5q0 -134 -145 -182q88 -10 136 -63t48 -138 q0 -67 -34.5 -122.5t-96.5 -86.5q-68 -36 -205 -36q-177 0 -261.5 65t-96.5 211zM578 0l647 1319h98l-645 -1319h-100zM1116 213v76l473 534h92v-536h158v-74h-158v-213h-96v213h-469zM1214 287h371v309q0 62 4 117l-35 -37q-11 -15 -69 -82z" />
<glyph unicode="&#xbf;" horiz-adv-x="1079" d="M61 18q0 208 181 334l90 64q109 77 136.5 113t27.5 100v49h137v-76q0 -75 -41.5 -132t-161.5 -146l-100 -74q-129 -97 -129 -238q0 -124 89.5 -200t235.5 -76q209 0 297 127q29 39 41 84t17 125h137q-5 -97 -20 -155.5t-50 -113.5q-58 -91 -164 -138.5t-249 -47.5 q-214 0 -344 110t-130 291zM481 842v159h160v-159h-160z" />
<glyph unicode="&#xc0;" horiz-adv-x="1492" d="M27 0l630 1366h174l635 -1366h-159l-191 422h-745l-193 -422h-151zM424 545h635l-254 559q-46 99 -64 178q-21 -78 -65 -178zM428 1726h197l168 -251h-111z" />
<glyph unicode="&#xc1;" horiz-adv-x="1492" d="M27 0l630 1366h174l635 -1366h-159l-191 422h-745l-193 -422h-151zM424 545h635l-254 559q-46 99 -64 178q-21 -78 -65 -178zM707 1475l167 251h197l-254 -251h-110z" />
<glyph unicode="&#xc2;" horiz-adv-x="1492" d="M27 0l630 1366h174l635 -1366h-159l-191 422h-745l-193 -422h-151zM410 1475l254 251h165l252 -251h-159l-179 176l-178 -176h-155zM424 545h635l-254 559q-46 99 -64 178q-21 -78 -65 -178z" />
<glyph unicode="&#xc3;" horiz-adv-x="1492" d="M27 0l630 1366h174l635 -1366h-159l-191 422h-745l-193 -422h-151zM412 1489q17 108 69 165.5t133 57.5q61 0 164 -49l101 -47q44 -20 86 -23q34 -2 56.5 25t39.5 90h88q-6 -60 -21 -96t-47 -68q-54 -57 -127 -57q-61 0 -129 35l-98 47q-75 37 -119 37q-38 0 -62.5 -27 t-43.5 -90h-90zM424 545h635l-254 559q-46 99 -64 178q-21 -78 -65 -178z" />
<glyph unicode="&#xc4;" horiz-adv-x="1492" d="M27 0l630 1366h174l635 -1366h-159l-191 422h-745l-193 -422h-151zM424 545h635l-254 559q-46 99 -64 178q-21 -78 -65 -178zM424 1505v164h149v-164h-149zM903 1505v164h152v-164h-152z" />
<glyph unicode="&#xc5;" horiz-adv-x="1492" d="M27 0l630 1366h174l635 -1366h-159l-191 422h-745l-193 -422h-151zM424 545h635l-254 559q-46 99 -64 178q-21 -78 -65 -178zM530 1636q0 77 62.5 128t157.5 51q94 0 153.5 -51.5t59.5 -133.5q0 -83 -61 -134.5t-159 -51.5q-93 0 -153 54t-60 138zM623 1634q0 -52 35 -84 t92 -32q56 0 90 30.5t34 81.5q0 50 -35 82.5t-89 32.5q-56 0 -91.5 -31t-35.5 -80z" />
<glyph unicode="&#xc6;" horiz-adv-x="2197" d="M27 0l710 1366h1350v-127h-887v-483h844v-125h-844v-504h911v-127h-1054v422h-662l-215 -422h-153zM459 545h598v694h-244z" />
<glyph unicode="&#xc7;" horiz-adv-x="1572" d="M104 684q0 277 156 475q189 236 574 236q345 0 532 -217q52 -59 77.5 -121.5t37.5 -157.5h-140q-40 185 -167 280t-334 95q-175 0 -305.5 -63.5t-202.5 -184.5q-88 -148 -88 -342q0 -270 154.5 -431t414.5 -161q149 0 266.5 55t186.5 158q31 45 49 89.5t33 115.5h147 q-60 -267 -236 -405t-452 -134l-57 -100q55 14 92 14q72 0 118 -36t46 -93q0 -72 -66 -113.5t-180 -41.5q-95 0 -178 28l16 62q86 -21 145 -21q61 0 97.5 20t36.5 54q0 26 -22.5 44.5t-55.5 18.5q-40 0 -113 -18l-45 37l90 149q-93 12 -140 24t-106 38q-180 79 -280.5 250.5 t-100.5 396.5z" />
<glyph unicode="&#xc8;" horiz-adv-x="1320" d="M164 0v1366h1057v-127h-918v-483h864v-125h-864v-504h934v-127h-1073zM410 1726h196l168 -251h-110z" />
<glyph unicode="&#xc9;" horiz-adv-x="1320" d="M164 0v1366h1057v-127h-918v-483h864v-125h-864v-504h934v-127h-1073zM670 1475l168 251h196l-254 -251h-110z" />
<glyph unicode="&#xca;" horiz-adv-x="1320" d="M164 0v1366h1057v-127h-918v-483h864v-125h-864v-504h934v-127h-1073zM387 1475l254 251h166l252 -251h-160l-178 176l-178 -176h-156z" />
<glyph unicode="&#xcb;" horiz-adv-x="1320" d="M164 0v1366h1057v-127h-918v-483h864v-125h-864v-504h934v-127h-1073zM408 1505v164h149v-164h-149zM887 1505v164h151v-164h-151z" />
<glyph unicode="&#xcc;" horiz-adv-x="468" d="M-78 1726h197l168 -251h-111zM164 0v1366h141v-1366h-141z" />
<glyph unicode="&#xcd;" horiz-adv-x="468" d="M164 0v1366h141v-1366h-141zM188 1475l168 251h197l-254 -251h-111z" />
<glyph unicode="&#xce;" horiz-adv-x="468" d="M-23 1475l195 251h158l190 -251h-143l-127 178l-133 -178h-140zM164 0v1366h141v-1366h-141z" />
<glyph unicode="&#xcf;" horiz-adv-x="468" d="M35 1505v164h149v-164h-149zM164 0v1366h141v-1366h-141zM297 1505v164h152v-164h-152z" />
<glyph unicode="&#xd0;" horiz-adv-x="1472" d="M33 655v121h131v590h541q192 0 281 -23t171 -94q209 -182 209 -565q0 -349 -178 -539q-82 -86 -180.5 -115.5t-307.5 -29.5h-536v655h-131zM303 127h399q162 0 246 23.5t144 85.5q135 141 135 442q0 321 -154 463q-60 54 -141 76t-219 22h-410v-463h451v-121h-451v-528z " />
<glyph unicode="&#xd1;" horiz-adv-x="1611" d="M164 0v1366h176l784 -975q86 -107 118.5 -153t80.5 -129q-16 157 -16 221v1036h141v-1366h-178l-783 973q-81 101 -110 142t-88 136q16 -188 16 -301v-950h-141zM492 1489q17 108 69 165.5t133 57.5q61 0 164 -49l100 -47q44 -20 86 -23q34 -2 57 25t40 90h88 q-6 -60 -21 -96t-47 -68q-54 -57 -127 -57q-61 0 -129 35l-98 47q-75 37 -119 37q-38 0 -62.5 -27t-43.5 -90h-90z" />
<glyph unicode="&#xd2;" horiz-adv-x="1677" d="M106 688q0 316 205.5 511.5t538.5 195.5q321 0 521 -200.5t200 -522.5q0 -155 -65.5 -301t-176.5 -240q-189 -160 -489 -160q-190 0 -341.5 67t-246.5 193q-69 93 -107.5 212.5t-38.5 244.5zM248 686q0 -268 163 -431t431 -163q262 0 425 163t163 425q0 277 -158.5 435.5 t-435.5 158.5q-267 0 -427.5 -160.5t-160.5 -427.5zM553 1726h197l168 -251h-111z" />
<glyph unicode="&#xd3;" horiz-adv-x="1677" d="M106 688q0 316 205.5 511.5t538.5 195.5q321 0 521 -200.5t200 -522.5q0 -155 -65.5 -301t-176.5 -240q-189 -160 -489 -160q-190 0 -341.5 67t-246.5 193q-69 93 -107.5 212.5t-38.5 244.5zM248 686q0 -268 163 -431t431 -163q262 0 425 163t163 425q0 277 -158.5 435.5 t-435.5 158.5q-267 0 -427.5 -160.5t-160.5 -427.5zM813 1475l168 251h197l-254 -251h-111z" />
<glyph unicode="&#xd4;" horiz-adv-x="1677" d="M106 688q0 316 205.5 511.5t538.5 195.5q321 0 521 -200.5t200 -522.5q0 -155 -65.5 -301t-176.5 -240q-189 -160 -489 -160q-190 0 -341.5 67t-246.5 193q-69 93 -107.5 212.5t-38.5 244.5zM248 686q0 -268 163 -431t431 -163q262 0 425 163t163 425q0 277 -158.5 435.5 t-435.5 158.5q-267 0 -427.5 -160.5t-160.5 -427.5zM530 1475l254 251h166l252 -251h-160l-178 176l-178 -176h-156z" />
<glyph unicode="&#xd5;" horiz-adv-x="1677" d="M106 688q0 316 205.5 511.5t538.5 195.5q321 0 521 -200.5t200 -522.5q0 -155 -65.5 -301t-176.5 -240q-189 -160 -489 -160q-190 0 -341.5 67t-246.5 193q-69 93 -107.5 212.5t-38.5 244.5zM248 686q0 -268 163 -431t431 -163q262 0 425 163t163 425q0 277 -158.5 435.5 t-435.5 158.5q-267 0 -427.5 -160.5t-160.5 -427.5zM518 1489q17 108 69.5 165.5t133.5 57.5q61 0 164 -49l100 -47q44 -20 86 -23q34 -2 56.5 25t39.5 90h88q-6 -60 -20.5 -96t-46.5 -68q-54 -57 -127 -57q-61 0 -129 35l-98 47q-75 37 -119 37q-38 0 -63 -27t-44 -90h-90z " />
<glyph unicode="&#xd6;" horiz-adv-x="1677" d="M106 688q0 316 205.5 511.5t538.5 195.5q321 0 521 -200.5t200 -522.5q0 -155 -65.5 -301t-176.5 -240q-189 -160 -489 -160q-190 0 -341.5 67t-246.5 193q-69 93 -107.5 212.5t-38.5 244.5zM248 686q0 -268 163 -431t431 -163q262 0 425 163t163 425q0 277 -158.5 435.5 t-435.5 158.5q-267 0 -427.5 -160.5t-160.5 -427.5zM543 1505v164h149v-164h-149zM1022 1505v164h152v-164h-152z" />
<glyph unicode="&#xd7;" d="M209 342l334 334l-334 334l86 86l334 -332l334 332l86 -86l-334 -334l334 -334l-86 -86l-334 334l-334 -334z" />
<glyph unicode="&#xd8;" horiz-adv-x="1677" d="M84 49l178 170q-156 203 -156 471q0 206 93 366.5t260 249.5t381 89q280 0 481 -154l178 172l76 -80l-174 -170q168 -202 168 -481q0 -165 -63.5 -310t-178.5 -241q-91 -77 -217.5 -118.5t-273.5 -41.5q-302 0 -498 166l-178 -170zM246 692q0 -219 112 -379l869 838 q-165 123 -391 123q-266 0 -428 -160t-162 -422zM434 231q164 -139 404 -139q265 0 427 163.5t162 432.5q0 229 -120 385z" />
<glyph unicode="&#xd9;" horiz-adv-x="1505" d="M150 494v872h141v-858q0 -199 106 -299q126 -117 365 -117q121 0 217.5 35t153.5 100q44 51 61.5 119.5t17.5 192.5v827h142v-797q0 -161 -19 -244t-71 -149q-158 -205 -521 -205q-308 0 -469 170q-64 66 -94 151t-30 202zM508 1726h197l167 -251h-110z" />
<glyph unicode="&#xda;" horiz-adv-x="1505" d="M150 494v872h141v-858q0 -199 106 -299q126 -117 365 -117q121 0 217.5 35t153.5 100q44 51 61.5 119.5t17.5 192.5v827h142v-797q0 -161 -19 -244t-71 -149q-158 -205 -521 -205q-308 0 -469 170q-64 66 -94 151t-30 202zM694 1475l168 251h197l-254 -251h-111z" />
<glyph unicode="&#xdb;" horiz-adv-x="1505" d="M150 494v872h141v-858q0 -199 106 -299q126 -117 365 -117q121 0 217.5 35t153.5 100q44 51 61.5 119.5t17.5 192.5v827h142v-797q0 -161 -19 -244t-71 -149q-158 -205 -521 -205q-308 0 -469 170q-64 66 -94 151t-30 202zM436 1475l254 251h166l252 -251h-160l-178 176 l-178 -176h-156z" />
<glyph unicode="&#xdc;" horiz-adv-x="1505" d="M150 494v872h141v-858q0 -199 106 -299q126 -117 365 -117q121 0 217.5 35t153.5 100q44 51 61.5 119.5t17.5 192.5v827h142v-797q0 -161 -19 -244t-71 -149q-158 -205 -521 -205q-308 0 -469 170q-64 66 -94 151t-30 202zM463 1505v164h149v-164h-149zM942 1505v164h152 v-164h-152z" />
<glyph unicode="&#xdd;" horiz-adv-x="1343" d="M14 1366h166l391 -526q51 -70 103 -158q38 67 86 135l403 549h168l-588 -784v-582h-137v582zM641 1475l168 251h197l-254 -251h-111z" />
<glyph unicode="&#xde;" horiz-adv-x="1304" d="M164 0v1366h141v-205h486q212 0 317 -94q127 -112 127 -307q0 -198 -133 -309q-59 -47 -140 -69t-202 -22h-455v-360h-141zM305 485h432q94 0 147 9t97 34q117 63 117 230q0 135 -78 205.5t-227 70.5h-488v-549z" />
<glyph unicode="&#xdf;" horiz-adv-x="1202" d="M150 0v944q0 128 20 201t70 123q116 116 362 116q201 0 318.5 -94.5t117.5 -255.5q0 -109 -52.5 -177t-166.5 -105q99 -18 160 -62t95 -119.5t34 -167.5q0 -189 -128 -304t-339 -115q-64 0 -168 16v121q115 -23 166 -23q152 0 244 83.5t92 221.5q0 162 -129 234 q-97 54 -223 51l-107 -2l-43 -2v123q104 -4 150 -4q135 0 211.5 60t76.5 165q0 113 -80 175.5t-225 62.5q-176 0 -264 -78q-61 -55 -61 -207v-981h-131z" />
<glyph unicode="&#xe0;" horiz-adv-x="1204" d="M88 264q0 178 164 250q65 29 250 55l209 29q119 17 161.5 45.5t42.5 91.5q0 88 -76 133t-221 45q-175 0 -259.5 -55.5t-96.5 -179.5h-133q12 82 30.5 128.5t55.5 86.5q63 72 160 104.5t250 32.5q268 0 364 -131q34 -44 43.5 -92t9.5 -166v-451q0 -88 66 -88q14 0 61 13 v-105q-74 -20 -120 -20q-61 0 -99 47.5t-32 116.5v6q-98 -106 -194.5 -147.5t-244.5 -41.5q-181 0 -286 79t-105 214zM219 272q0 -91 73.5 -140.5t205.5 -49.5q109 0 203.5 39t158.5 112q33 37 43 64t12 72l3 104q0 12 4 86q-42 -29 -88 -44.5t-146 -29.5l-186 -28 q-162 -25 -222.5 -65t-60.5 -120zM332 1430h174l164 -275h-107z" />
<glyph unicode="&#xe1;" horiz-adv-x="1204" d="M88 264q0 178 164 250q65 29 250 55l209 29q119 17 161.5 45.5t42.5 91.5q0 88 -76 133t-221 45q-175 0 -259.5 -55.5t-96.5 -179.5h-133q12 82 30.5 128.5t55.5 86.5q63 72 160 104.5t250 32.5q268 0 364 -131q34 -44 43.5 -92t9.5 -166v-451q0 -88 66 -88q14 0 61 13 v-105q-74 -20 -120 -20q-61 0 -99 47.5t-32 116.5v6q-98 -106 -194.5 -147.5t-244.5 -41.5q-181 0 -286 79t-105 214zM219 272q0 -91 73.5 -140.5t205.5 -49.5q109 0 203.5 39t158.5 112q33 37 43 64t12 72l3 104q0 12 4 86q-42 -29 -88 -44.5t-146 -29.5l-186 -28 q-162 -25 -222.5 -65t-60.5 -120zM578 1155l163 275h174l-231 -275h-106z" />
<glyph unicode="&#xe2;" horiz-adv-x="1204" d="M88 264q0 178 164 250q65 29 250 55l209 29q119 17 161.5 45.5t42.5 91.5q0 88 -76 133t-221 45q-175 0 -259.5 -55.5t-96.5 -179.5h-133q12 82 30.5 128.5t55.5 86.5q63 72 160 104.5t250 32.5q268 0 364 -131q34 -44 43.5 -92t9.5 -166v-451q0 -88 66 -88q14 0 61 13 v-105q-74 -20 -120 -20q-61 0 -99 47.5t-32 116.5v6q-98 -106 -194.5 -147.5t-244.5 -41.5q-181 0 -286 79t-105 214zM219 272q0 -91 73.5 -140.5t205.5 -49.5q109 0 203.5 39t158.5 112q33 37 43 64t12 72l3 104q0 12 4 86q-42 -29 -88 -44.5t-146 -29.5l-186 -28 q-162 -25 -222.5 -65t-60.5 -120zM301 1157l256 270h164l254 -270h-148l-190 199l-188 -199h-148z" />
<glyph unicode="&#xe3;" horiz-adv-x="1204" d="M88 264q0 178 164 250q65 29 250 55l209 29q119 17 161.5 45.5t42.5 91.5q0 88 -76 133t-221 45q-175 0 -259.5 -55.5t-96.5 -179.5h-133q12 82 30.5 128.5t55.5 86.5q63 72 160 104.5t250 32.5q268 0 364 -131q34 -44 43.5 -92t9.5 -166v-451q0 -88 66 -88q14 0 61 13 v-105q-74 -20 -120 -20q-61 0 -99 47.5t-32 116.5v6q-98 -106 -194.5 -147.5t-244.5 -41.5q-181 0 -286 79t-105 214zM219 272q0 -91 73.5 -140.5t205.5 -49.5q109 0 203.5 39t158.5 112q33 37 43 64t12 72l3 104q0 12 4 86q-42 -29 -88 -44.5t-146 -29.5l-186 -28 q-162 -25 -222.5 -65t-60.5 -120zM285 1182q14 101 67 161t129 60q59 0 148 -45l90 -45q59 -29 94 -29q38 0 61.5 27t40.5 92h86q-20 -114 -67 -166.5t-127 -52.5q-57 0 -131 39l-92 49q-59 33 -109 33q-36 0 -60 -28t-44 -95h-86z" />
<glyph unicode="&#xe4;" horiz-adv-x="1204" d="M88 264q0 178 164 250q65 29 250 55l209 29q119 17 161.5 45.5t42.5 91.5q0 88 -76 133t-221 45q-175 0 -259.5 -55.5t-96.5 -179.5h-133q12 82 30.5 128.5t55.5 86.5q63 72 160 104.5t250 32.5q268 0 364 -131q34 -44 43.5 -92t9.5 -166v-451q0 -88 66 -88q14 0 61 13 v-105q-74 -20 -120 -20q-61 0 -99 47.5t-32 116.5v6q-98 -106 -194.5 -147.5t-244.5 -41.5q-181 0 -286 79t-105 214zM219 272q0 -91 73.5 -140.5t205.5 -49.5q109 0 203.5 39t158.5 112q33 37 43 64t12 72l3 104q0 12 4 86q-42 -29 -88 -44.5t-146 -29.5l-186 -28 q-162 -25 -222.5 -65t-60.5 -120zM328 1214v152h139v-152h-139zM770 1214v152h137v-152h-137z" />
<glyph unicode="&#xe5;" horiz-adv-x="1204" d="M88 264q0 178 164 250q65 29 250 55l209 29q119 17 161.5 45.5t42.5 91.5q0 88 -76 133t-221 45q-175 0 -259.5 -55.5t-96.5 -179.5h-133q12 82 30.5 128.5t55.5 86.5q63 72 160 104.5t250 32.5q268 0 364 -131q34 -44 43.5 -92t9.5 -166v-451q0 -88 66 -88q14 0 61 13 v-105q-74 -20 -120 -20q-61 0 -99 47.5t-32 116.5v6q-98 -106 -194.5 -147.5t-244.5 -41.5q-181 0 -286 79t-105 214zM219 272q0 -91 73.5 -140.5t205.5 -49.5q109 0 203.5 39t158.5 112q33 37 43 64t12 72l3 104q0 12 4 86q-42 -29 -88 -44.5t-146 -29.5l-186 -28 q-162 -25 -222.5 -65t-60.5 -120zM395 1333q0 77 62 127.5t157 50.5q94 0 153.5 -51t59.5 -133q0 -83 -60.5 -134.5t-158.5 -51.5q-93 0 -153 54t-60 138zM487 1331q0 -53 35 -85t92 -32q56 0 90.5 31t34.5 82q0 50 -35.5 82.5t-89.5 32.5q-56 0 -91.5 -31t-35.5 -80z" />
<glyph unicode="&#xe6;" horiz-adv-x="2039" d="M88 274q0 48 15.5 93t41.5 73q56 59 144.5 88.5t253.5 44.5l157 15q115 10 163 43.5t48 101.5q0 180 -299 180q-217 0 -301 -96q-22 -27 -33.5 -58t-17.5 -83h-133q9 81 28 129t58 90q64 70 163.5 102.5t250.5 32.5q108 0 180.5 -19t130.5 -63q32 -24 50.5 -52.5 t33.5 -76.5q55 78 102 117q117 94 301 94q149 0 265 -65t182 -185q39 -69 55 -138.5t19 -178.5h-910q8 -73 19 -114t35 -83q47 -84 137 -131t203 -47q82 0 155.5 29.5t122.5 81.5q38 43 68 110h135q-30 -83 -57 -127.5t-74 -85.5q-68 -59 -164.5 -92t-200.5 -33 q-152 0 -269.5 69t-170.5 189q-57 -138 -167.5 -198t-307.5 -60q-212 0 -307 80q-105 88 -105 223zM215 272q0 -87 80 -135.5t223 -48.5q209 0 309 92q46 43 65 107t19 176v86q-39 -34 -76.5 -46.5t-152.5 -27.5l-209 -26q-133 -17 -195.5 -60t-62.5 -117zM1040 573h775 q-28 164 -129 252t-261 88q-163 0 -261 -86.5t-124 -253.5z" />
<glyph unicode="&#xe7;" horiz-adv-x="1173" d="M94 498q0 236 144 384t376 148q128 0 238.5 -51t171.5 -139q43 -59 70 -168h-136q-15 50 -30 77.5t-41 55.5q-48 48 -122 76t-153 28q-179 0 -285 -110.5t-106 -296.5q0 -183 110 -297.5t287 -114.5q95 0 173 36.5t124 102.5q34 52 52 129h137q-29 -184 -159.5 -284 t-344.5 -103l-57 -94q58 17 92 17q73 0 118.5 -36.5t45.5 -95.5q0 -70 -66.5 -115.5t-169.5 -45.5q-68 0 -188 28l16 64q105 -21 150 -21q60 0 93.5 20.5t33.5 55.5q0 28 -25 47t-63 19q-40 0 -99 -21l-45 37l88 145q-191 23 -310.5 168.5t-119.5 354.5z" />
<glyph unicode="&#xe8;" horiz-adv-x="1228" d="M94 498q0 236 145.5 384t378.5 148q147 0 265 -66t182 -184q38 -69 53 -137.5t17 -177.5h-914q11 -100 39.5 -165t83.5 -116q107 -96 270 -96q123 0 212.5 56.5t136.5 164.5h135q-22 -67 -44 -106.5t-61 -79.5q-68 -71 -170.5 -111.5t-214.5 -40.5q-228 0 -371 146.5 t-143 380.5zM229 571h770q-16 120 -65 187q-51 73 -136.5 114t-185.5 41q-115 0 -206.5 -52t-137.5 -144q-28 -52 -39 -146zM330 1430h174l164 -275h-107z" />
<glyph unicode="&#xe9;" horiz-adv-x="1228" d="M94 498q0 236 145.5 384t378.5 148q147 0 265 -66t182 -184q38 -69 53 -137.5t17 -177.5h-914q11 -100 39.5 -165t83.5 -116q107 -96 270 -96q123 0 212.5 56.5t136.5 164.5h135q-22 -67 -44 -106.5t-61 -79.5q-68 -71 -170.5 -111.5t-214.5 -40.5q-228 0 -371 146.5 t-143 380.5zM229 571h770q-16 120 -65 187q-51 73 -136.5 114t-185.5 41q-115 0 -206.5 -52t-137.5 -144q-28 -52 -39 -146zM575 1155l164 275h174l-231 -275h-107z" />
<glyph unicode="&#xea;" horiz-adv-x="1228" d="M94 498q0 236 145.5 384t378.5 148q147 0 265 -66t182 -184q38 -69 53 -137.5t17 -177.5h-914q11 -100 39.5 -165t83.5 -116q107 -96 270 -96q123 0 212.5 56.5t136.5 164.5h135q-22 -67 -44 -106.5t-61 -79.5q-68 -71 -170.5 -111.5t-214.5 -40.5q-228 0 -371 146.5 t-143 380.5zM229 571h770q-16 120 -65 187q-51 73 -136.5 114t-185.5 41q-115 0 -206.5 -52t-137.5 -144q-28 -52 -39 -146zM297 1157l256 270h164l254 -270h-148l-190 199l-189 -199h-147z" />
<glyph unicode="&#xeb;" horiz-adv-x="1228" d="M94 498q0 236 145.5 384t378.5 148q147 0 265 -66t182 -184q38 -69 53 -137.5t17 -177.5h-914q11 -100 39.5 -165t83.5 -116q107 -96 270 -96q123 0 212.5 56.5t136.5 164.5h135q-22 -67 -44 -106.5t-61 -79.5q-68 -71 -170.5 -111.5t-214.5 -40.5q-228 0 -371 146.5 t-143 380.5zM229 571h770q-16 120 -65 187q-51 73 -136.5 114t-185.5 41q-115 0 -206.5 -52t-137.5 -144q-28 -52 -39 -146zM338 1214v152h139v-152h-139zM780 1214v152h138v-152h-138z" />
<glyph unicode="&#xec;" horiz-adv-x="432" d="M-66 1430h175l163 -275h-106zM150 0v1001h133v-1001h-133z" />
<glyph unicode="&#xed;" horiz-adv-x="432" d="M150 0v1001h133v-1001h-133zM176 1155l164 275h174l-231 -275h-107z" />
<glyph unicode="&#xee;" horiz-adv-x="432" d="M-45 1157l195 270h149l195 -270h-136l-135 203l-135 -203h-133zM152 0v1001h133v-1001h-133z" />
<glyph unicode="&#xef;" horiz-adv-x="432" d="M18 1202v164h150v-164h-150zM150 0v1001h133v-1001h-133zM274 1202v164h152v-164h-152z" />
<glyph unicode="&#xf0;" d="M94 498q0 230 150 381t377 151q96 0 215 -33q-51 61 -126 119t-151 96l-258 -155l-55 84l194 116q-71 23 -241 56l30 96q207 -26 332 -76l258 152l55 -84l-198 -121q226 -115 357.5 -321.5t131.5 -444.5q0 -243 -147.5 -393t-388.5 -150q-235 0 -385 148.5t-150 378.5z M227 502q0 -183 114.5 -298.5t295.5 -115.5q191 0 299 133q44 54 70 128t26 145q0 184 -111 300.5t-286 116.5q-181 0 -294.5 -113.5t-113.5 -295.5z" />
<glyph unicode="&#xf1;" horiz-adv-x="1261" d="M150 0v1001h131v-55v-158q37 57 65.5 87.5t71.5 58.5q131 86 305 86q106 0 194.5 -35t133.5 -96q32 -41 45.5 -99.5t13.5 -156.5v-633h-133v618q0 136 -49 199q-74 90 -242 90q-95 0 -181 -33.5t-143 -93.5q-81 -87 -81 -235v-545h-131zM340 1182q13 101 66.5 161 t130.5 60q58 0 147 -45l90 -45q59 -29 94 -29q38 0 62 27.5t41 91.5h86q-20 -113 -67.5 -166t-127.5 -53q-57 0 -131 39l-92 49q-59 33 -109 33q-36 0 -60 -28t-44 -95h-86z" />
<glyph unicode="&#xf2;" d="M94 496q0 236 151 385t390 149q235 0 382.5 -149.5t147.5 -388.5q0 -224 -152 -372.5t-384 -148.5q-236 0 -385.5 146.5t-149.5 378.5zM225 502q0 -180 115 -297t295 -117q170 0 283.5 116.5t113.5 291.5q0 181 -113 299t-286 118q-177 0 -292.5 -116.5t-115.5 -294.5z M350 1430h174l164 -275h-106z" />
<glyph unicode="&#xf3;" d="M94 496q0 236 151 385t390 149q235 0 382.5 -149.5t147.5 -388.5q0 -224 -152 -372.5t-384 -148.5q-236 0 -385.5 146.5t-149.5 378.5zM225 502q0 -180 115 -297t295 -117q170 0 283.5 116.5t113.5 291.5q0 181 -113 299t-286 118q-177 0 -292.5 -116.5t-115.5 -294.5z M590 1155l164 275h174l-232 -275h-106z" />
<glyph unicode="&#xf4;" d="M94 496q0 236 151 385t390 149q235 0 382.5 -149.5t147.5 -388.5q0 -224 -152 -372.5t-384 -148.5q-236 0 -385.5 146.5t-149.5 378.5zM225 502q0 -180 115 -297t295 -117q170 0 283.5 116.5t113.5 291.5q0 181 -113 299t-286 118q-177 0 -292.5 -116.5t-115.5 -294.5z M319 1157l256 270h164l254 -270h-147l-191 199l-188 -199h-148z" />
<glyph unicode="&#xf5;" d="M94 496q0 236 151 385t390 149q235 0 382.5 -149.5t147.5 -388.5q0 -224 -152 -372.5t-384 -148.5q-236 0 -385.5 146.5t-149.5 378.5zM225 502q0 -180 115 -297t295 -117q170 0 283.5 116.5t113.5 291.5q0 181 -113 299t-286 118q-177 0 -292.5 -116.5t-115.5 -294.5z M313 1182q13 101 66.5 161t130.5 60q58 0 147 -45l91 -45q59 -29 94 -29q38 0 61.5 27t40.5 92h86q-20 -114 -67 -166.5t-127 -52.5q-57 0 -131 39l-93 49q-59 33 -108 33q-37 0 -61 -28.5t-44 -94.5h-86z" />
<glyph unicode="&#xf6;" d="M94 496q0 236 151 385t390 149q235 0 382.5 -149.5t147.5 -388.5q0 -224 -152 -372.5t-384 -148.5q-236 0 -385.5 146.5t-149.5 378.5zM225 502q0 -180 115 -297t295 -117q170 0 283.5 116.5t113.5 291.5q0 181 -113 299t-286 118q-177 0 -292.5 -116.5t-115.5 -294.5z M352 1214v152h140v-152h-140zM795 1214v152h137v-152h-137z" />
<glyph unicode="&#xf7;" d="M117 614v123h1024v-123h-1024zM547 317v160h164v-160h-164zM547 874v160h164v-160h-164z" />
<glyph unicode="&#xf8;" d="M76 33l129 129q-111 144 -111 336q0 235 150.5 383.5t386.5 148.5q203 0 342 -108l133 131l72 -74l-131 -129q118 -149 118 -352q0 -230 -150.5 -378.5t-385.5 -148.5q-199 0 -350 115l-132 -131zM225 504q0 -72 17.5 -129.5t58.5 -118.5l580 573q-68 46 -125 65t-127 19 q-173 0 -288.5 -117t-115.5 -292zM371 178q120 -90 264 -90q172 0 284.5 116t112.5 296q0 144 -78 256z" />
<glyph unicode="&#xf9;" horiz-adv-x="1249" d="M150 336v665h133v-636q0 -140 68 -205.5t214 -65.5q123 0 224.5 51.5t148.5 139.5q31 60 31 151v565h131v-1001h-121v211q-35 -53 -62.5 -82.5t-66.5 -56.5q-129 -90 -315 -90q-385 0 -385 354zM387 1430h174l164 -275h-107z" />
<glyph unicode="&#xfa;" horiz-adv-x="1249" d="M150 336v665h133v-636q0 -140 68 -205.5t214 -65.5q123 0 224.5 51.5t148.5 139.5q31 60 31 151v565h131v-1001h-121v211q-35 -53 -62.5 -82.5t-66.5 -56.5q-129 -90 -315 -90q-385 0 -385 354zM569 1155l164 275h174l-231 -275h-107z" />
<glyph unicode="&#xfb;" horiz-adv-x="1249" d="M150 336v665h133v-636q0 -140 68 -205.5t214 -65.5q123 0 224.5 51.5t148.5 139.5q31 60 31 151v565h131v-1001h-121v211q-35 -53 -62.5 -82.5t-66.5 -56.5q-129 -90 -315 -90q-385 0 -385 354zM307 1157l256 270h164l254 -270h-147l-191 199l-188 -199h-148z" />
<glyph unicode="&#xfc;" horiz-adv-x="1249" d="M150 336v665h133v-636q0 -140 68 -205.5t214 -65.5q123 0 224.5 51.5t148.5 139.5q31 60 31 151v565h131v-1001h-121v211q-35 -53 -62.5 -82.5t-66.5 -56.5q-129 -90 -315 -90q-385 0 -385 354zM362 1214v152h140v-152h-140zM805 1214v152h137v-152h-137z" />
<glyph unicode="&#xfd;" horiz-adv-x="1105" d="M14 1001h146l303 -645q45 -95 98 -243q72 189 98 243l297 645h138l-508 -1097q-45 -96 -71.5 -140.5t-55.5 -70.5q-71 -62 -211 -62q-55 0 -129 13v125q81 -17 129 -17q75 0 114 24.5t70 90.5l62 133zM528 1155l164 275h174l-231 -275h-107z" />
<glyph unicode="&#xfe;" horiz-adv-x="1300" d="M150 -346v1712h129v-569q70 120 167.5 176.5t231.5 56.5q145 0 266.5 -70.5t191.5 -193t70 -268.5q0 -145 -69 -266.5t-189 -191t-264 -69.5q-135 0 -234 57t-171 177v-551h-129zM266 506q0 -179 115 -298.5t287 -119.5q175 0 289 116t114 294q0 177 -115.5 296 t-285.5 119q-166 0 -285 -120t-119 -287z" />
<glyph unicode="&#xff;" horiz-adv-x="1105" d="M14 1001h146l303 -645q45 -95 98 -243q72 189 98 243l297 645h138l-508 -1097q-45 -96 -71.5 -140.5t-55.5 -70.5q-71 -62 -211 -62q-55 0 -129 13v125q81 -17 129 -17q75 0 114 24.5t70 90.5l62 133zM279 1214v152h139v-152h-139zM721 1214v152h137v-152h-137z" />
<glyph unicode="&#x152;" horiz-adv-x="2353" d="M106 684q0 323 183 517t487 194q307 0 465 -207v178h1008v-127h-877v-481h832v-125h-832v-506h897v-127h-1028v182q-161 -211 -461 -211q-373 0 -551 271q-123 186 -123 442zM246 682q0 -274 144 -431t396 -157q124 0 226.5 43t171.5 123q51 57 51 133v570q0 44 -9.5 72 t-37.5 63q-139 174 -404 174q-252 0 -395 -156.5t-143 -433.5z" />
<glyph unicode="&#x153;" horiz-adv-x="2164" d="M94 496q0 235 150 384.5t385 149.5q102 0 197.5 -33t164.5 -92q32 -29 53.5 -56.5t51.5 -78.5q31 58 56.5 89.5t66.5 62.5q139 108 331 108q147 0 267 -67t184 -185q37 -68 53 -137.5t17 -175.5h-908q6 -91 24.5 -145t59.5 -101q52 -61 134.5 -96t174.5 -35 q242 0 342 219h140q-31 -76 -58 -120.5t-67 -82.5q-66 -63 -163 -98t-204 -35t-201.5 35t-160.5 100q-44 44 -88 121q-36 -62 -65.5 -94.5t-74.5 -64.5q-140 -97 -327 -97q-236 0 -385.5 146.5t-149.5 378.5zM225 502q0 -179 115.5 -295.5t292.5 -116.5q170 0 284.5 117 t114.5 289q0 181 -112.5 298t-286.5 117q-177 0 -292.5 -115.5t-115.5 -293.5zM1165 571h772q-16 116 -65 183q-51 73 -137.5 115t-186.5 42q-160 0 -258.5 -88t-124.5 -252z" />
<glyph unicode="&#x178;" horiz-adv-x="1343" d="M14 1366h166l391 -526q51 -70 103 -158q38 67 86 135l403 549h168l-588 -784v-582h-137v582zM371 1505v164h149v-164h-149zM850 1505v164h151v-164h-151z" />
<glyph unicode="&#x2c6;" horiz-adv-x="1024" d="M174 1157l256 270h164l254 -270h-148l-190 199l-188 -199h-148z" />
<glyph unicode="&#x2dc;" horiz-adv-x="1024" d="M154 1182q14 101 67 161t129 60q59 0 148 -45l90 -45q59 -29 94 -29q38 0 61.5 27t40.5 92h86q-20 -114 -67 -166.5t-127 -52.5q-57 0 -131 39l-92 49q-59 33 -109 33q-36 0 -60 -28t-44 -95h-86z" />
<glyph unicode="&#x2000;" horiz-adv-x="907" />
<glyph unicode="&#x2001;" horiz-adv-x="1815" />
<glyph unicode="&#x2002;" horiz-adv-x="907" />
<glyph unicode="&#x2003;" horiz-adv-x="1815" />
<glyph unicode="&#x2004;" horiz-adv-x="605" />
<glyph unicode="&#x2005;" horiz-adv-x="453" />
<glyph unicode="&#x2006;" horiz-adv-x="302" />
<glyph unicode="&#x2007;" horiz-adv-x="302" />
<glyph unicode="&#x2008;" horiz-adv-x="226" />
<glyph unicode="&#x2009;" horiz-adv-x="363" />
<glyph unicode="&#x200a;" horiz-adv-x="100" />
<glyph unicode="&#x2010;" horiz-adv-x="661" d="M0 446v125h662v-125h-662z" />
<glyph unicode="&#x2011;" horiz-adv-x="661" d="M0 446v125h662v-125h-662z" />
<glyph unicode="&#x2012;" horiz-adv-x="661" d="M0 446v125h662v-125h-662z" />
<glyph unicode="&#x2013;" horiz-adv-x="1341" d="M150 446v125h1040v-125h-1040z" />
<glyph unicode="&#x2014;" horiz-adv-x="1710" d="M0 446v125h1710v-125h-1710z" />
<glyph unicode="&#x2018;" horiz-adv-x="462" d="M150 934v205q0 108 37 166.5t126 87.5v-80q-51 -29 -68.5 -65t-17.5 -109v-47h86v-158h-163z" />
<glyph unicode="&#x2019;" horiz-adv-x="462" d="M150 907v82q51 29 68.5 64.5t17.5 107.5v47h-86v158h163v-205q0 -108 -37 -165.5t-126 -88.5z" />
<glyph unicode="&#x201a;" horiz-adv-x="462" d="M150 0v158h163v-205q0 -108 -37 -165.5t-126 -88.5v82q51 29 68.5 64.5t17.5 107.5v47h-86z" />
<glyph unicode="&#x201c;" horiz-adv-x="790" d="M150 934v205q0 108 37 166.5t126 87.5v-80q-51 -29 -68.5 -64.5t-17.5 -109.5v-47h86v-158h-163zM477 934v205q0 108 37 166.5t125 87.5v-80q-49 -29 -66.5 -65.5t-17.5 -108.5v-47h84v-158h-162z" />
<glyph unicode="&#x201d;" horiz-adv-x="790" d="M150 907v82q49 29 66 64.5t17 107.5v47h-83v158h161v-205q0 -106 -37 -164.5t-124 -89.5zM477 907v82q49 29 66.5 64.5t17.5 107.5v47h-84v158h162v-205q0 -106 -37 -164.5t-125 -89.5z" />
<glyph unicode="&#x201e;" horiz-adv-x="790" d="M150 0v158h161v-205q0 -106 -37 -164.5t-124 -89.5v82q49 29 66 64.5t17 107.5v47h-83zM477 0v158h162v-205q0 -106 -37 -164.5t-125 -89.5v82q49 29 66.5 64.5t17.5 107.5v47h-84z" />
<glyph unicode="&#x2022;" horiz-adv-x="1366" d="M401 694q0 120 83.5 202.5t205.5 82.5q114 0 196.5 -83.5t82.5 -199.5q0 -118 -83 -201t-200 -83t-201 82.5t-84 199.5z" />
<glyph unicode="&#x2026;" horiz-adv-x="1390" d="M150 0v160h163v-160h-163zM612 0v160h164v-160h-164zM1075 0v160h164v-160h-164z" />
<glyph unicode="&#x202f;" horiz-adv-x="363" />
<glyph unicode="&#x2039;" horiz-adv-x="557" d="M96 436v176l344 258v-143l-272 -205l272 -207v-141z" />
<glyph unicode="&#x203a;" horiz-adv-x="557" d="M117 174v143l272 205l-272 207v141l344 -260v-178z" />
<glyph unicode="&#x205f;" horiz-adv-x="453" />
<glyph unicode="&#x20ac;" horiz-adv-x="1748" d="M109 553l36 86h105q-2 25 -2 47q0 19 2 39h-141l36 86h113q9 70 33 139q76 221 249.5 333t436.5 112q345 0 532 -217q52 -60 78.5 -122.5t38.5 -156.5h-141q-38 184 -166.5 279.5t-335.5 95.5q-246 0 -394.5 -118t-189.5 -345h828l-37 -86h-801q-2 -20 -2 -43 q0 -25 2 -43h764l-37 -86h-717q40 -221 185.5 -341t373.5 -120q149 0 266.5 55t186.5 158q52 78 82 205h145q-68 -274 -232.5 -406.5t-438.5 -132.5q-293 0 -478 152t-231 430h-149z" />
<glyph unicode="&#x2122;" horiz-adv-x="1888" d="M14 1282v84h719v-84h-309v-694h-98v694h-312zM836 588v778h133l305 -600q32 -62 45 -96q20 55 33 82l311 614h135v-778h-94v567q0 25 6 119q-7 -17 -43 -92l-299 -594h-104l-277 547q-29 57 -63 135q6 -92 6 -146v-536h-94z" />
<glyph unicode="&#x25fc;" horiz-adv-x="1003" d="M0 0v1004h1004v-1004h-1004z" />
</font>
</defs>
</svg>
