<?xml version="1.0" standalone="no"?>
<!DOCTYPE svg PUBLIC "-//W3C//DTD SVG 1.1//EN" "http://www.w3.org/Graphics/SVG/1.1/DTD/svg11.dtd" >
<svg xmlns="http://www.w3.org/2000/svg" xmlns:xlink="http://www.w3.org/1999/xlink" version="1.1">
<metadata></metadata>
<defs>
<font id="foundation_sansCnIt" horiz-adv-x="956" >
<font-face units-per-em="2048" ascent="1690" descent="-358" />
<missing-glyph horiz-adv-x="477" />
<glyph unicode="&#xfb01;" horiz-adv-x="866" d="M45 0l191 893h-121l24 121h121l37 170q22 100 76.5 146t152.5 46q46 0 105 -10l-25 -117q-33 8 -53 8q-51 0 -77 -23.5t-38 -80.5l-30 -139h149l-27 -121h-147l-190 -893h-148zM496 0l217 1014h147l-217 -1014h-147zM752 1200l36 178h148l-37 -178h-147z" />
<glyph unicode="&#xfb02;" horiz-adv-x="866" d="M45 0l191 893h-121l24 121h121l37 170q22 100 76.5 146t152.5 46q46 0 105 -10l-25 -117q-33 8 -53 8q-51 0 -77 -23.5t-38 -80.5l-30 -139h149l-27 -121h-147l-190 -893h-148zM496 0l292 1372h148l-293 -1372h-147z" />
<glyph unicode="&#xfb03;" horiz-adv-x="1359" d="M45 0l191 893h-121l24 121h121l37 170q22 100 76.5 146t152.5 46q46 0 105 -10l-25 -117q-33 8 -53 8q-51 0 -77 -23.5t-38 -80.5l-30 -139h346l37 170q22 100 76 146t151 46q45 0 106 -10l-24 -117q-33 8 -56 8q-50 0 -76 -23.5t-38 -80.5l-29 -139h148l-25 -121h-150 l-188 -893h-147l188 893h-344l-190 -893h-148zM989 0l215 1014h148l-215 -1014h-148zM1245 1200l37 178h148l-37 -178h-148z" />
<glyph unicode="&#xfb04;" horiz-adv-x="1359" d="M45 0l191 893h-121l24 121h121l37 170q22 100 76.5 146t152.5 46q46 0 105 -10l-25 -117q-33 8 -53 8q-51 0 -77 -23.5t-38 -80.5l-30 -139h346l37 170q22 100 76 146t151 46q45 0 106 -10l-24 -117q-33 8 -56 8q-50 0 -76 -23.5t-38 -80.5l-29 -139h148l-25 -121h-150 l-188 -893h-147l188 893h-344l-190 -893h-148zM989 0l293 1372h148l-293 -1372h-148z" />
<glyph horiz-adv-x="0" />
<glyph horiz-adv-x="682" />
<glyph unicode=" "  horiz-adv-x="477" />
<glyph unicode="&#x09;" horiz-adv-x="477" />
<glyph unicode="&#xa0;" horiz-adv-x="477" />
<glyph unicode="!" horiz-adv-x="401" d="M4 0l39 184h174l-39 -184h-174zM117 330l94 639l86 401h172l-92 -428l-178 -612h-82z" />
<glyph unicode="&#x22;" horiz-adv-x="671" d="M205 819l100 547h158l-133 -547h-125zM473 819l98 547h160l-133 -547h-125z" />
<glyph unicode="#" d="M98 453l25 98h160l65 262h-162l25 98h160l112 455h105l-111 -455h232l112 455h107l-113 -455h158l-25 -98h-155l-66 -262h162l-25 -98h-162l-110 -453h-107l111 453h-231l-111 -453h-107l111 453h-160zM389 551h232l65 262h-233z" />
<glyph unicode="$" d="M63 313q0 53 13 144h149q-12 -86 -12 -138q0 -84 29 -127t106 -77l109 508q-101 58 -133 84q-55 41 -87 105.5t-32 135.5q0 105 48.5 205.5t123.5 151.5q45 32 96.5 45t142.5 18l23 115h78l-27 -117q120 -17 182 -91t62 -200q0 -40 -8 -139h-146q13 122 13 143 q0 67 -29 103.5t-100 58.5l-107 -506q158 -78 220.5 -158t62.5 -206q0 -166 -112 -277.5t-279 -111.5q-29 0 -52 2l-37 -179h-77l39 191q-73 18 -108 34.5t-67 51.5q-84 93 -84 231zM354 971q0 -63 28.5 -105.5t106.5 -93.5l103 479q-58 -7 -91 -21.5t-61 -43.5 q-40 -40 -63 -97.5t-23 -117.5zM424 104q57 0 96 13.5t78 44.5q38 31 63 91t25 120q0 76 -45 131q-34 39 -115 88z" />
<glyph unicode="%" horiz-adv-x="1667" d="M203 977q0 70 23 157t55 140q32 52 89 81t128 29q117 0 180 -68t63 -194q0 -100 -29.5 -192.5t-80.5 -149.5q-61 -67 -185 -67q-243 0 -243 264zM295 -45l1032 1454h113l-1026 -1454h-119zM334 956q0 -64 29.5 -100.5t82.5 -36.5q37 0 68.5 24t46.5 62q49 122 49 246 q0 58 -29.5 91.5t-80.5 33.5q-57 0 -88.5 -31t-51.5 -108q-26 -98 -26 -181zM999 248q0 71 23 157.5t55 137.5q32 52 89 81t126 29q118 0 182 -68t64 -194q0 -100 -30 -191.5t-81 -148.5q-61 -67 -184 -67q-244 0 -244 264zM1130 229q-3 -62 28 -100.5t85 -38.5 q36 0 68 23.5t47 60.5q49 122 49 246q0 58 -30 91.5t-81 33.5q-87 0 -118 -76q-41 -94 -48 -240z" />
<glyph unicode="&#x26;" horiz-adv-x="1116" d="M66 338q0 181 139 311q39 36 194 142q-88 152 -88 292q0 126 79 205.5t202 79.5q120 0 193 -74t73 -194q0 -133 -106 -236q-49 -49 -174 -114l204 -420q31 36 55.5 89t57.5 159h145q-80 -242 -192 -365l110 -213h-163l-52 100q-88 -68 -162 -98.5t-151 -30.5 q-158 0 -261 103.5t-103 263.5zM217 354q0 -101 67.5 -171t164.5 -70q132 0 233 110l-229 453q-123 -75 -179.5 -152.5t-56.5 -169.5zM455 1075q0 -43 11 -78.5t56 -138.5l15 10q96 58 137 113.5t41 124.5q0 62 -35 100.5t-92 38.5q-60 0 -96.5 -46.5t-36.5 -123.5z" />
<glyph unicode="'" horiz-adv-x="403" d="M205 819l100 547h158l-133 -547h-125z" />
<glyph unicode="(" horiz-adv-x="593" d="M106 399q0 144 41.5 298.5t116.5 291.5q58 105 126 189.5t181 187.5h113q-117 -108 -189.5 -218.5t-134.5 -270.5q-106 -274 -106 -560q0 -279 115 -536h-90q-94 175 -133.5 316.5t-39.5 301.5z" />
<glyph unicode=")" horiz-adv-x="593" d="M-57 -219q116 108 188.5 218t134.5 271q107 276 107 559q0 280 -113 537h90q92 -177 131 -318t39 -300q0 -144 -41.5 -298.5t-116.5 -291.5q-57 -105 -125 -189.5t-180 -187.5h-114z" />
<glyph unicode="*" horiz-adv-x="776" d="M233 1169l46 88l202 -116l47 225l93 -20l-58 -205l225 59l21 -90l-248 -51l144 -197l-78 -49l-129 201l-181 -183l-67 68l194 176z" />
<glyph unicode="+" d="M129 637l27 129h299l69 330h144l-70 -330h299l-27 -129h-299l-73 -340h-144l72 340h-297z" />
<glyph unicode="," horiz-adv-x="401" d="M-53 -268l16 75q54 17 84.5 63.5t40.5 129.5h-84l37 180h174l-35 -166q-28 -135 -81.5 -200t-151.5 -82z" />
<glyph unicode="-" horiz-adv-x="391" d="M-10 446l30 144h383l-30 -144h-383z" />
<glyph unicode="." horiz-adv-x="401" d="M4 0l39 184h174l-39 -184h-174z" />
<glyph unicode="/" horiz-adv-x="798" d="M-72 -219l838 1585h131l-834 -1585h-135z" />
<glyph unicode="0" d="M96 348q0 139 51.5 379.5t108.5 368.5q63 145 149.5 210.5t212.5 65.5q146 0 229 -91.5t83 -252.5q0 -178 -74 -502q-44 -190 -95.5 -300.5t-123.5 -170.5q-102 -82 -229 -82q-312 0 -312 375zM248 332q0 -64 9 -101.5t32 -66.5q48 -64 129 -64q85 0 143.5 74.5 t108.5 243.5q39 132 74.5 330t35.5 284q0 95 -45.5 152t-122.5 57q-85 0 -142 -64.5t-103 -213.5q-46 -145 -82.5 -338.5t-36.5 -292.5z" />
<glyph unicode="1" d="M313 1042l23 107q147 2 232.5 52.5t140.5 170.5h118l-290 -1372h-152l227 1065q-119 -25 -241 -25q-33 0 -58 2z" />
<glyph unicode="2" d="M16 0q35 219 141.5 359.5t334.5 271.5q145 83 206 147q90 93 90 250q0 103 -53 162t-145 59q-103 0 -166.5 -82t-73.5 -231h-149q31 229 126.5 336.5t268.5 107.5q164 0 256 -95t92 -267q0 -177 -98 -299q-46 -55 -102.5 -96.5t-182.5 -112.5q-157 -89 -246 -178.5 t-127 -200.5h582l-29 -131h-725z" />
<glyph unicode="3" d="M72 330q0 24 4 94h147q-2 -31 -2 -74q0 -118 54.5 -183t154.5 -65q110 0 181 94t71 240q0 113 -64 161.5t-215 49.5l27 127q23 -2 53 -2q132 0 203 55q44 35 71 97.5t27 130.5q0 88 -47 140t-125 52q-47 0 -89 -20.5t-68 -55.5q-34 -48 -64 -149h-143q25 100 48.5 153.5 t61.5 94.5q101 110 256 110q74 0 139.5 -25t106.5 -69q72 -75 72 -223q0 -146 -70 -240q-34 -46 -75 -72.5t-119 -54.5q89 -51 128.5 -120.5t39.5 -174.5q0 -91 -37.5 -180t-100.5 -147q-107 -101 -264 -101q-161 0 -261.5 99.5t-100.5 257.5z" />
<glyph unicode="4" d="M49 350l29 139l710 877h140l-189 -893h138l-27 -123h-137l-76 -350h-139l73 350h-522zM209 473h389l145 678z" />
<glyph unicode="5" d="M76 279q0 37 6 90h149q-4 -54 -4 -70q0 -88 52.5 -144.5t134.5 -56.5q126 0 198 119q82 133 82 303q0 114 -51 177t-143 63q-63 0 -111.5 -25t-95.5 -82h-125l207 690h577l-28 -133h-453l-117 -385q100 54 187 54q138 0 222.5 -100.5t84.5 -264.5q0 -117 -37.5 -224.5 t-105.5 -187.5q-111 -129 -299 -129q-145 0 -237.5 86t-92.5 220z" />
<glyph unicode="6" d="M106 362q0 160 44 369.5t106 343.5q73 158 167 231.5t222 73.5q140 0 220.5 -82.5t80.5 -224.5v-47h-147q2 20 2 49q0 78 -44.5 125t-119.5 47q-114 0 -195.5 -123t-136.5 -381q59 71 118.5 102.5t135.5 31.5q136 0 218.5 -100.5t82.5 -266.5q0 -230 -119 -383.5 t-297 -153.5q-158 0 -248 103t-90 286zM252 348q0 -117 50 -182.5t140 -65.5q111 0 187 119t76 293q0 116 -49 180t-138 64q-56 0 -103.5 -28.5t-78.5 -80.5q-37 -60 -60.5 -144t-23.5 -155z" />
<glyph unicode="7" d="M225 0q67 343 230 656.5t397 553.5h-590l31 142h727l-27 -117q-498 -585 -604 -1235h-164z" />
<glyph unicode="8" d="M84 334q0 100 31.5 188t87.5 144q37 37 75.5 57t100.5 35q-66 41 -96.5 99.5t-30.5 143.5q0 165 100 272t254 107q148 0 234 -87t86 -236q0 -138 -62 -228t-178 -122q81 -44 116.5 -109t35.5 -170q0 -207 -108 -332t-288 -125q-166 0 -262 97t-96 266zM236 328 q0 -109 52.5 -170.5t147.5 -61.5q109 0 180.5 98.5t71.5 249.5q0 104 -53.5 165t-145.5 61q-110 0 -181.5 -96.5t-71.5 -245.5zM399 983q0 -89 47 -143t125 -54q91 0 149 77t58 196q0 88 -47 140t-125 52q-86 0 -146.5 -78t-60.5 -190z" />
<glyph unicode="9" d="M76 256q0 36 2 59h143q-2 -16 -2 -43q0 -83 42.5 -128.5t119.5 -45.5q233 0 336 504q-108 -135 -256 -135q-132 0 -215.5 101.5t-83.5 262.5q0 224 110 383q113 166 312 166q155 0 244.5 -105.5t89.5 -289.5q0 -176 -54 -402.5t-131 -373.5q-124 -236 -358 -236 q-136 0 -217.5 77t-81.5 206zM317 836q0 -117 50 -181.5t139 -64.5q55 0 106.5 32.5t83.5 88.5q34 60 54 138t20 150q0 117 -49.5 182.5t-138.5 65.5q-102 0 -168 -92q-42 -60 -69.5 -151t-27.5 -168z" />
<glyph unicode=":" horiz-adv-x="401" d="M4 0l39 184h174l-39 -184h-174zM178 815l39 184h174l-39 -184h-174z" />
<glyph unicode=";" horiz-adv-x="401" d="M-53 -268l16 75q54 17 84.5 63.5t40.5 129.5h-84l37 180h174l-35 -166q-28 -135 -81.5 -200t-151.5 -82zM176 815l41 184h172l-39 -184h-174z" />
<glyph unicode="&#x3c;" horiz-adv-x="1024" d="M68 616v134l886 417v-155l-721 -330l721 -330v-153z" />
<glyph unicode="=" d="M98 492l27 129h741l-26 -129h-742zM156 758l26 129h742l-29 -129h-739z" />
<glyph unicode="&#x3e;" horiz-adv-x="1024" d="M137 199v153l721 330l-721 330v155l887 -417v-134z" />
<glyph unicode="?" horiz-adv-x="839" d="M178 1014q15 97 36.5 155t59.5 105q101 119 271 119q154 0 244 -87t90 -235q0 -115 -56 -208.5t-176 -174.5q-69 -47 -106 -78t-65.5 -72t-42 -86t-27.5 -122h-136q18 125 44.5 197.5t72.5 127.5t137 123q65 50 88 70.5t43 46.5q64 80 64 180q0 83 -49 134t-131 51 q-123 0 -177 -107q-24 -49 -38 -139h-146zM197 0l39 184h174l-39 -184h-174z" />
<glyph unicode="@" horiz-adv-x="1226" d="M106 600q0 162 53 312t142 259t211 174.5t254 65.5q212 0 345.5 -154.5t133.5 -400.5q0 -143 -46.5 -276t-122.5 -214t-158 -81q-51 0 -87.5 26t-68.5 86q-107 -104 -227 -104q-80 0 -121 43.5t-41 128.5q0 79 29 185t75 194q103 198 277 198q93 0 135 -77l18 61h105 l-135 -455q-21 -78 -21 -110q0 -40 21 -64t55 -24q53 0 104 69t82 180.5t31 227.5q0 209 -108 338t-281 129q-147 0 -274 -97t-202 -262t-75 -356q0 -218 98 -369q118 -186 350 -186q90 0 167.5 24.5t162.5 78.5l23 -93q-166 -104 -361 -104q-244 0 -393.5 178t-149.5 469z M494 487q0 -102 84 -102q111 0 180 166q76 191 76 285q0 108 -101 108q-47 0 -82 -29.5t-67 -95.5q-40 -86 -65 -176.5t-25 -155.5z" />
<glyph unicode="A" horiz-adv-x="1003" d="M-74 0l674 1366h193l79 -1366h-153l-17 385h-421l-183 -385h-172zM340 516h356l-28 709z" />
<glyph unicode="B" horiz-adv-x="993" d="M23 0l290 1366h262q80 0 153 -11t108 -28q151 -77 151 -276q0 -146 -74.5 -235t-214.5 -111q191 -53 191 -277q0 -160 -75 -269t-208 -143q-41 -10 -88.5 -13t-185.5 -3h-309zM207 131h74q171 0 208 2.5t76 16.5q78 29 124 106t46 178q0 177 -155 211q-43 10 -199 10h-62 zM346 778h78q113 0 158.5 4t85.5 17q78 28 122 92.5t44 152.5q0 156 -144 183q-36 8 -180 8h-68z" />
<glyph unicode="C" horiz-adv-x="1024" d="M102 383q0 197 55 422t140 371q66 115 158.5 170t218.5 55q175 0 268.5 -97t93.5 -278q0 -31 -4 -121h-145q2 43 2 111q0 123 -57.5 189.5t-161.5 66.5q-86 0 -157 -60t-118 -174q-59 -141 -99 -333.5t-40 -331.5q0 -135 56 -206t163 -71q114 0 189.5 86t126.5 275h157 q-35 -159 -91 -258t-146 -162q-48 -33 -117 -52.5t-137 -19.5q-169 0 -262 109.5t-93 308.5z" />
<glyph unicode="D" horiz-adv-x="1087" d="M23 0l290 1366h244q88 0 180.5 -17t139.5 -42q89 -47 129.5 -138.5t40.5 -242.5q0 -226 -59 -436t-154 -324q-83 -97 -183.5 -131.5t-298.5 -34.5h-329zM207 131h102q128 0 186 7t101 30q67 34 123 107.5t90 173.5q32 91 57 242t25 249q0 198 -117 258q-70 37 -235 37 h-97z" />
<glyph unicode="E" horiz-adv-x="899" d="M23 0l290 1366h654l-27 -131h-498l-98 -457h485l-28 -135h-484l-110 -512h528l-26 -131h-686z" />
<glyph unicode="F" horiz-adv-x="792" d="M2 0l291 1366h622l-28 -131h-465l-98 -465h452l-28 -135h-453l-135 -635h-158z" />
<glyph unicode="G" horiz-adv-x="1105" d="M104 377q0 144 34 325t91 330q72 193 180.5 281t274.5 88q175 0 272 -98.5t97 -278.5q0 -14 -4 -88h-152q2 33 2 78q0 126 -55 191t-162 65q-109 0 -182.5 -72t-128.5 -233q-50 -145 -81.5 -316.5t-31.5 -294.5q0 -120 61.5 -190t167.5 -70q133 0 218.5 109.5 t138.5 347.5h-307l28 133h459l-145 -684h-115l18 145q-64 -98 -136 -139t-179 -41q-170 0 -266.5 109.5t-96.5 302.5z" />
<glyph unicode="H" horiz-adv-x="1085" d="M23 0l290 1366h156l-119 -565h510l119 565h158l-291 -1366h-156l141 664h-509l-142 -664h-157z" />
<glyph unicode="I" horiz-adv-x="446" d="M35 0l291 1366h155l-288 -1366h-158z" />
<glyph unicode="J" horiz-adv-x="790" d="M6 256q0 60 19 166h147q-25 -139 -25 -186q0 -61 38.5 -97.5t103.5 -36.5q75 0 118 55.5t72 190.5l217 1018h156l-217 -1024q-37 -169 -84 -244q-78 -123 -256 -123q-140 0 -214.5 72.5t-74.5 208.5z" />
<glyph unicode="K" horiz-adv-x="1003" d="M23 0l290 1366h156l-131 -625l598 625h192l-536 -553l274 -813h-161l-232 690l-186 -190l-107 -500h-157z" />
<glyph unicode="L" horiz-adv-x="886" d="M23 0l290 1366h156l-262 -1235h551l-29 -131h-706z" />
<glyph unicode="M" horiz-adv-x="1382" d="M23 0l290 1366h246l66 -1128l553 1128h256l-291 -1366h-158l252 1190l-590 -1190h-143l-72 1190l-254 -1190h-155z" />
<glyph unicode="N" horiz-adv-x="1095" d="M23 0l290 1366h217l211 -1169l248 1169h158l-291 -1366h-219l-215 1137l-242 -1137h-157z" />
<glyph unicode="O" horiz-adv-x="1099" d="M106 403q0 152 44 349t110 344q72 158 173 231.5t247 73.5q195 0 290 -107t95 -327q0 -168 -46.5 -374t-117.5 -351q-69 -143 -168 -210t-241 -67q-195 0 -290.5 108.5t-95.5 329.5zM260 385q0 -139 58 -214t165 -75q98 0 167.5 56.5t123.5 181.5q57 133 98 326t41 325 q0 287 -231 287q-101 0 -169 -62t-124 -204q-52 -131 -90.5 -317t-38.5 -304z" />
<glyph unicode="P" horiz-adv-x="980" d="M23 0l290 1366h267q105 0 163 -9t109 -34q170 -78 170 -311q0 -120 -44.5 -214t-125.5 -145q-124 -75 -346 -75q-58 0 -203 8l-123 -586h-157zM332 715q99 -6 147 -6q101 0 163.5 13.5t109.5 45.5q54 35 83 99.5t29 146.5q0 89 -36.5 141t-114.5 72q-42 12 -178 12h-93z " />
<glyph unicode="Q" horiz-adv-x="1095" d="M106 391q0 167 46 375t114 348q70 147 170 217t238 70q389 0 389 -432q0 -254 -96 -563q-31 -99 -59 -156t-77 -121l117 -106l-86 -97l-123 111q-61 -40 -118.5 -56t-135.5 -16q-186 0 -282.5 108.5t-96.5 317.5zM260 377q0 -135 58 -208t167 -73q84 0 148 41l-131 117 l86 94l133 -119q39 63 64 127.5t57 186.5q67 253 67 436q0 293 -227 293q-104 0 -175.5 -65t-125.5 -210q-51 -132 -86 -314t-35 -306z" />
<glyph unicode="R" horiz-adv-x="1064" d="M23 0l290 1366h287q202 0 291 -45q164 -80 164 -287q0 -155 -78 -243.5t-238 -116.5q89 -31 129.5 -85t40.5 -143q0 -79 -39 -274q-14 -66 -14 -96q0 -36 33 -60l-4 -16h-180q-13 46 -13 76q0 40 21 129q37 163 37 248q0 112 -109 153q-53 17 -166 17h-164l-131 -623 h-157zM340 750q66 -2 125 -2q209 0 307 49q58 29 91.5 89.5t33.5 135.5q0 64 -23 111t-63 67q-75 37 -268 37q-27 0 -101 -2z" />
<glyph unicode="S" horiz-adv-x="991" d="M47 338q0 43 2 74h152q-2 -23 -2 -56q0 -260 247 -260q128 0 203.5 79t75.5 212q0 94 -44.5 142.5t-182.5 105.5q-87 35 -130 58.5t-77 54.5q-86 80 -86 227q0 187 111.5 302.5t291.5 115.5q172 0 272.5 -90t100.5 -244q0 -27 -2 -45h-152q2 16 2 39q0 98 -58 154.5 t-159 56.5q-112 0 -183 -76.5t-71 -196.5q0 -85 43.5 -128.5t178.5 -96.5q167 -63 234 -141.5t67 -212.5q0 -201 -121 -324t-318 -123q-185 0 -290 99t-105 274z" />
<glyph unicode="T" horiz-adv-x="888" d="M203 1235l28 131h791l-29 -131h-297l-262 -1235h-158l263 1235h-336z" />
<glyph unicode="U" horiz-adv-x="1067" d="M92 291q0 94 33 246l176 829h158l-193 -907q-22 -113 -22 -160q0 -91 63 -147t166 -56q152 0 227 125q43 67 72 209l199 936h155l-204 -971q-24 -108 -44 -163.5t-53 -102.5q-114 -164 -350 -164q-175 0 -279 88.5t-104 237.5z" />
<glyph unicode="V" horiz-adv-x="1005" d="M203 1366h157l50 -1219l567 1219h174l-672 -1366h-194z" />
<glyph unicode="W" horiz-adv-x="1548" d="M223 1366h156l41 -1163l428 1163h184l45 -1163l426 1163h164l-530 -1366h-193l-24 1169l-441 -1169h-184z" />
<glyph unicode="X" horiz-adv-x="1036" d="M-20 0l489 702l-266 664h164l200 -526l336 526h178l-430 -664l252 -702h-164l-190 555l-381 -555h-188z" />
<glyph unicode="Y" horiz-adv-x="962" d="M168 1366h166l221 -637l381 637h178l-493 -799l-121 -567h-156l117 555z" />
<glyph unicode="Z" horiz-adv-x="931" d="M6 0l29 131l735 1104h-569l26 131h742l-29 -131l-737 -1104h602l-27 -131h-772z" />
<glyph unicode="[" horiz-adv-x="546" d="M-29 -219l336 1585h332l-25 -102h-186l-291 -1379h160l-23 -104h-303z" />
<glyph unicode="\" horiz-adv-x="798" d="M291 1366h129l166 -1585h-135z" />
<glyph unicode="]" horiz-adv-x="546" d="M-66 -219l25 102h186l291 1377h-162l23 106h305l-338 -1585h-330z" />
<glyph unicode="^" horiz-adv-x="1024" d="M121 768l358 600h176l359 -600h-148l-301 496l-299 -496h-145z" />
<glyph unicode="_" horiz-adv-x="1024" d="M0 -147h1024v-103h-1024v103z" />
<glyph unicode="`" horiz-adv-x="1024" d="M387 1401h188l107 -285h-107z" />
<glyph unicode="a" horiz-adv-x="829" d="M12 223q0 84 31 161.5t80 115.5q34 26 83.5 42.5t151.5 35.5q113 20 150 31.5t57 31.5t33.5 66t13.5 96q0 57 -37.5 88t-107.5 31q-159 0 -180 -170h-137q19 146 98 217t225 71q133 0 209 -56.5t76 -156.5q0 -41 -19 -139l-98 -463q-12 -52 -12 -78q0 -55 55 -55 q12 0 33 6l-21 -98q-52 -14 -80 -14q-63 0 -90.5 34t-27.5 109q-58 -86 -109 -117.5t-129 -31.5q-117 0 -182.5 64t-65.5 179zM156 221q0 -60 37 -94.5t102 -34.5q86 0 142 70t87 215l33 151q-30 -24 -59 -35t-99 -24q-79 -13 -115 -27t-63 -41q-29 -28 -47 -77.5 t-18 -102.5z" />
<glyph unicode="b" horiz-adv-x="897" d="M4 0l293 1372h147l-96 -448q59 63 110 89.5t115 26.5q122 0 191.5 -88.5t69.5 -244.5q0 -130 -39.5 -292.5t-92.5 -248.5q-118 -193 -294 -193q-82 0 -135.5 40.5t-90.5 131.5l-30 -145h-148zM231 297v-16q0 -72 41 -122q46 -55 121 -55q139 0 219 220q28 78 50 199.5 t22 197.5q0 94 -41 147.5t-113 53.5q-143 0 -221 -228q-25 -71 -50 -197.5t-28 -199.5z" />
<glyph unicode="c" horiz-adv-x="827" d="M66 303q0 159 41 326t104 260q102 151 291 151q143 0 223 -77t80 -215q0 -14 -4 -68h-146q7 51 7 72q0 78 -40 120.5t-114 42.5t-124.5 -45.5t-88.5 -146.5q-34 -92 -59 -220t-25 -216q0 -95 39.5 -145t114.5 -50q106 0 167 98q30 52 52 154h145q-15 -97 -40.5 -157 t-72.5 -113t-112 -77t-160 -24q-278 0 -278 330z" />
<glyph unicode="d" horiz-adv-x="897" d="M63 311q0 146 41 303t105 258q107 168 276 168q88 0 141 -41.5t85 -136.5l108 510h148l-293 -1372h-148l23 104q-63 -72 -116.5 -101.5t-121.5 -29.5q-117 0 -182.5 89.5t-65.5 248.5zM213 315q0 -219 154 -219q133 0 208 187q34 83 59 213.5t25 222.5t-41 145.5 t-112 53.5q-133 0 -211 -193q-31 -80 -56.5 -207.5t-25.5 -202.5z" />
<glyph unicode="e" horiz-adv-x="833" d="M63 311q0 136 37.5 291t94.5 258q101 180 297 180q140 0 212 -77t72 -226q0 -81 -31 -241h-522l-10 -74q-12 -110 -12 -139q0 -85 44.5 -134t121.5 -49q156 0 202 224h140q-40 -184 -124 -267.5t-229 -83.5q-144 0 -218.5 86t-74.5 252zM244 612h381q14 85 14 136 q0 174 -145 174q-93 0 -153 -74.5t-97 -235.5z" />
<glyph unicode="f" horiz-adv-x="493" d="M45 0l191 893h-121l24 121h121l37 170q22 100 76.5 146t152.5 46q46 0 105 -10l-25 -117q-33 8 -53 8q-51 0 -77 -23.5t-38 -80.5l-30 -139h149l-27 -121h-147l-190 -893h-148z" />
<glyph unicode="g" horiz-adv-x="890" d="M6 -82h146q8 -86 42.5 -118.5t120.5 -32.5q90 0 138 55.5t79 191.5l21 90q-103 -112 -229 -112q-121 0 -188.5 89t-67.5 249q0 140 36.5 287.5t94.5 244.5q53 85 129 131.5t164 46.5q83 0 133.5 -36t91.5 -127l28 137h140l-223 -1045q-21 -93 -43 -142t-64 -91 q-87 -90 -244 -90q-302 0 -305 272zM213 326q0 -107 41 -163.5t119 -56.5q60 0 111.5 44t86.5 126q39 93 66 223.5t27 225.5q0 86 -43 138t-115 52q-56 0 -106.5 -38t-84.5 -107q-41 -84 -71.5 -215t-30.5 -229z" />
<glyph unicode="h" horiz-adv-x="874" d="M4 0l293 1372h147l-98 -459q65 69 124.5 98t137.5 29q100 0 159.5 -51.5t59.5 -138.5q0 -49 -16 -121l-156 -729h-147l151 717l11 47q8 40 8 53q0 45 -34.5 75t-86.5 30q-139 0 -244 -162l-161 -760h-148z" />
<glyph unicode="i" horiz-adv-x="374" d="M4 0l215 1014h148l-215 -1014h-148zM260 1200l37 178h147l-36 -178h-148z" />
<glyph unicode="j" horiz-adv-x="374" d="M-168 -334l25 113q14 -2 39 -2q38 0 55.5 27.5t36.5 115.5l233 1094h148l-230 -1077q-32 -152 -65 -199q-55 -80 -156 -80q-42 0 -86 8zM256 1200l39 178h147l-39 -178h-147z" />
<glyph unicode="k" horiz-adv-x="800" d="M4 0l293 1372h147l-170 -797l412 439h186l-393 -391l195 -623h-150l-157 506l-136 -135l-79 -371h-148z" />
<glyph unicode="l" horiz-adv-x="374" d="M4 0l293 1372h147l-292 -1372h-148z" />
<glyph unicode="m" horiz-adv-x="1388" d="M4 0l215 1014h148l-25 -117q67 78 129.5 110.5t142.5 32.5q88 0 137 -32.5t80 -110.5q72 77 140 110t153 33q97 0 157 -54t60 -142q0 -38 -14 -105l-158 -739h-147l156 735q12 65 12 80q0 46 -37 76.5t-94 30.5q-69 0 -133 -45t-105 -123l-159 -754h-148l158 741 q10 40 10 78q0 46 -36 75.5t-93 29.5q-68 0 -130.5 -43.5t-111.5 -126.5l-159 -754h-148z" />
<glyph unicode="n" horiz-adv-x="876" d="M4 0l215 1014h148l-21 -101q65 69 124.5 98t137.5 29q103 0 162 -52.5t59 -143.5q0 -25 -18 -115l-156 -729h-147l154 717q18 83 18 100q0 47 -32.5 76t-86.5 29q-140 0 -248 -162l-161 -760h-148z" />
<glyph unicode="o" horiz-adv-x="899" d="M66 332q0 125 34 270t88 246q101 192 322 192q157 0 241.5 -84t84.5 -241q0 -146 -40 -308t-100 -264q-102 -170 -315 -170q-315 0 -315 359zM213 307q0 -108 43 -157q23 -25 60.5 -40.5t74.5 -15.5q63 0 115.5 41.5t83.5 114.5q40 99 69 236.5t29 230.5q0 97 -47 149 t-135 52q-62 0 -112.5 -39.5t-82.5 -112.5q-40 -90 -69 -225.5t-29 -233.5z" />
<glyph unicode="p" horiz-adv-x="899" d="M-68 -342l289 1356h148l-27 -121q49 78 106 112.5t132 34.5q123 0 187 -85.5t64 -247.5q0 -134 -30.5 -276t-81.5 -238q-112 -220 -307 -220q-170 0 -228 177l-104 -492h-148zM236 315q0 -104 41.5 -160.5t117.5 -56.5q63 0 118 50t89 139q34 88 59 218t25 218 q0 97 -39.5 148t-114.5 51q-68 0 -122 -49.5t-88 -141.5q-34 -89 -60 -215.5t-26 -200.5z" />
<glyph unicode="q" horiz-adv-x="892" d="M61 305q0 124 30 262t77 232q63 124 141.5 182.5t182.5 58.5q86 0 140.5 -42.5t82.5 -131.5l30 148h140l-287 -1356h-154l97 448q-63 -74 -114 -103.5t-116 -29.5q-116 0 -183 89t-67 243zM207 307q0 -104 40.5 -158.5t117.5 -54.5t129.5 57t93.5 187q32 100 54 209.5 t22 173.5q0 88 -42.5 140t-113.5 52q-138 0 -219 -198q-31 -78 -56.5 -205t-25.5 -203z" />
<glyph unicode="r" horiz-adv-x="606" d="M4 0l217 1024h148l-41 -195q60 109 132 159t169 50q27 0 45 -2l-31 -147q-46 6 -63 6q-112 0 -194 -90t-116 -250l-118 -555h-148z" />
<glyph unicode="s" horiz-adv-x="765" d="M6 293h144q-3 -9 -3 -14v-16q0 -75 43 -119q48 -48 140 -48q86 0 136 51t50 138q0 61 -34.5 98.5t-125.5 75.5q-132 55 -180.5 112.5t-48.5 157.5q0 141 86 226t229 85q135 0 215 -70t80 -188q0 -21 -2 -37h-135v17q0 78 -41.5 119t-120.5 41q-74 0 -121 -49t-47 -125 q0 -62 35 -97q18 -20 34 -29t97 -47q134 -62 178.5 -115t44.5 -151q0 -139 -75 -233q-78 -103 -258 -103q-205 0 -283 131q-20 35 -27.5 75t-9.5 114z" />
<glyph unicode="t" horiz-adv-x="489" d="M68 131q0 36 14 100l141 662h-127l27 121h127l57 272h148l-58 -272h156l-27 -121h-155l-127 -598q-2 -11 -5.5 -25.5t-5.5 -22.5t-2 -9q-12 -47 -12 -76q0 -26 22 -43t54 -17q7 0 65 9l-26 -121q-46 -10 -78 -10q-91 0 -139.5 39t-48.5 112z" />
<glyph unicode="u" horiz-adv-x="886" d="M49 160q0 54 19 139l151 715h148l-156 -731q-12 -59 -12 -82q0 -49 36.5 -79t96.5 -30q131 0 239 164l160 758h148l-215 -1014h-148l23 109q-64 -73 -124.5 -104.5t-135.5 -31.5q-105 0 -167.5 50.5t-62.5 136.5z" />
<glyph unicode="v" horiz-adv-x="774" d="M133 1014h150l26 -864l385 864h162l-489 -1014h-166z" />
<glyph unicode="w" horiz-adv-x="1189" d="M133 1014h146l4 -811l333 811h164l-6 -811l338 811h160l-463 -1014h-160l8 797l-331 -797h-162z" />
<glyph unicode="x" horiz-adv-x="782" d="M-104 0l407 532l-192 482h159l140 -369l266 369h176l-385 -504l203 -510h-160l-148 410l-290 -410h-176z" />
<glyph unicode="y" horiz-adv-x="776" d="M-74 -330l37 111q47 -8 62 -8q40 0 69.5 22.5t55.5 73.5l55 111l-74 1034h154l28 -864l381 864h162l-508 -1055q-20 -40 -61.5 -110.5t-59.5 -92.5q-77 -102 -198 -102q-32 0 -103 16z" />
<glyph unicode="z" horiz-adv-x="743" d="M-53 0l26 125l617 764h-422l27 125h598l-27 -125l-612 -764h450l-26 -125h-631z" />
<glyph unicode="{" horiz-adv-x="528" d="M16 -68q0 60 21 162l53 242q10 52 10 90q0 65 -51 84l-12 6l26 121q55 19 82.5 57.5t44.5 120.5l58 272q32 152 96 215.5t186 63.5h52l-25 -113h-29q-29 0 -59 -12t-43 -29q-33 -40 -55 -145l-56 -266q-20 -94 -49 -147.5t-76 -84.5q39 -47 39 -120q0 -47 -14 -119 l-53 -250q-17 -87 -17 -109q0 -44 18 -60.5t64 -16.5h41l-22 -113h-70q-78 0 -108 18q-52 32 -52 133z" />
<glyph unicode="|" horiz-adv-x="1024" d="M434 -342v1708h156v-1708h-156z" />
<glyph unicode="}" horiz-adv-x="528" d="M-39 -219l25 113h28q31 0 60.5 11.5t42.5 28.5q20 23 30.5 52t24.5 94l55 266q20 94 49 147.5t76 84.5q-39 47 -39 120q0 46 15 119l53 250q16 70 16 109q0 44 -18 60.5t-64 16.5h-41l23 113h70q78 0 108 -18q51 -31 51 -134q0 -67 -20 -161l-51 -242q-13 -67 -13 -90 q0 -64 52 -84l12 -6l-27 -121q-55 -19 -82.5 -57.5t-44.5 -120.5l-57 -273q-32 -152 -96.5 -215t-186.5 -63h-51z" />
<glyph unicode="~" horiz-adv-x="1366" d="M330 1257q59 119 124 173.5t150 54.5q44 0 95.5 -17.5t140.5 -62.5q88 -44 125 -57t73 -13q54 0 98.5 36t90.5 118l84 -66q-60 -120 -125.5 -174.5t-151.5 -54.5q-41 0 -89 17t-146 67q-85 42 -123.5 55t-75.5 13q-54 0 -96.5 -35t-89.5 -119z" />
<glyph unicode="&#xa1;" horiz-adv-x="401" d="M-43 -229l90 428l180 612h80l-94 -639l-84 -401h-172zM207 952l39 185h174l-39 -185h-174z" />
<glyph unicode="&#xa2;" d="M160 481q0 132 30.5 281.5t77.5 247.5q57 115 134 166t196 51h27l37 172h67l-39 -178q110 -38 157.5 -107.5t47.5 -191.5q0 -33 -2 -58h-141v54q0 72 -17 104.5t-73 67.5l-173 -816q82 22 121 73.5t70 180.5h141q-37 -197 -119 -283.5t-237 -92.5l-39 -177h-68l39 181 q-122 25 -179.5 104t-57.5 221zM305 483q0 -174 117 -202l174 821q-64 -4 -103.5 -31.5t-70.5 -87.5q-48 -95 -82.5 -241.5t-34.5 -258.5z" />
<glyph unicode="&#xa3;" d="M4 102q124 85 183 191t59 246q0 38 -4 79h-152l19 82h131q-31 127 -31 230q0 209 114.5 329.5t311.5 120.5q169 0 261.5 -84t92.5 -239q0 -22 -4 -96h-147q4 70 4 94q0 92 -55 142t-156 50q-145 0 -213 -92q-58 -78 -58 -254q0 -76 19 -201h348l-16 -82h-324q8 -60 8 -90 q0 -71 -57 -188q-33 -65 -76.5 -116t-128.5 -122q121 56 223 56q37 0 148 -21q88 -18 145 -18q94 0 164 41l-33 -158q-88 -29 -166 -29q-76 0 -180 31q-116 33 -172 33q-109 0 -209 -66z" />
<glyph unicode="&#xa4;" horiz-adv-x="1284" d="M129 1217l78 77l192 -192q76 57 145.5 81.5t151.5 24.5t151 -24.5t142 -81.5l195 190l76 -75l-191 -193q105 -139 105 -293q0 -79 -24.5 -147t-80.5 -142l195 -192l-78 -78l-193 193q-140 -107 -295 -107q-149 0 -295 104l-192 -190l-76 76l189 192q-105 134 -105 293 q0 152 105 291zM346 731q0 -145 102.5 -247.5t247.5 -102.5t248 103t103 249q0 144 -103 248t-244 104q-149 0 -251.5 -102.5t-102.5 -251.5z" />
<glyph unicode="&#xa5;" d="M104 545l19 82h319l-53 164h-231l16 81h188l-151 471h164l162 -557l292 557h177l-265 -471h189l-17 -81h-219l-92 -164h277l-19 -82h-274l-117 -545h-154l115 545h-326z" />
<glyph unicode="&#xa6;" horiz-adv-x="1024" d="M434 313h156v-655h-156v655zM434 682v684h156v-684h-156z" />
<glyph unicode="&#xa7;" horiz-adv-x="962" d="M70 23q0 13 4 67l2 31h133q-6 -61 -6 -74q0 -75 47.5 -118.5t130.5 -43.5t129.5 41t46.5 115q0 77 -55 141q-21 26 -137 137q-135 127 -177.5 192.5t-42.5 145.5q0 118 88 197q32 31 64.5 45t89.5 23q-45 56 -62.5 98.5t-17.5 97.5q0 124 84.5 199.5t222.5 75.5 q135 0 213 -67.5t78 -184.5q0 -45 -2 -72h-137v51q0 74 -40 114t-114 40q-72 0 -117.5 -42.5t-45.5 -109.5q0 -54 38 -106.5t162 -167.5q123 -116 163 -178t40 -138q0 -98 -61 -170t-170 -104q46 -61 62.5 -106t16.5 -105q0 -129 -87 -204.5t-236 -75.5q-137 0 -222 71 t-85 185zM283 674q0 -42 28 -86t97 -113l147 -145q85 37 122.5 79t37.5 101q0 41 -21.5 80t-75.5 94l-159 166q-79 -30 -111 -51q-29 -22 -47 -56t-18 -69z" />
<glyph unicode="&#xa8;" horiz-adv-x="1024" d="M422 1169l39 181h164l-39 -181h-164zM717 1169l37 181h166l-39 -181h-164z" />
<glyph unicode="&#xa9;" horiz-adv-x="1392" d="M84 643q0 151 54.5 289.5t146.5 239t218.5 160t264.5 59.5q162 0 299 -89t216 -242.5t79 -336.5q0 -119 -34.5 -232.5t-98 -205.5t-146.5 -162.5t-185.5 -109t-209.5 -38.5q-166 0 -305 88t-219 241.5t-80 338.5zM180 645q0 -162 67.5 -298t185 -214t257.5 -78 q114 0 220.5 54t184.5 143.5t124.5 213t46.5 255.5q0 161 -67 297t-182.5 214.5t-252.5 78.5q-157 0 -291.5 -89.5t-213.5 -243.5t-79 -333zM453 524q0 110 31.5 236.5t78.5 208.5q73 129 217 129q103 0 158 -56.5t55 -160.5q0 -27 -2 -76h-100q2 49 2 69q0 65 -29 99.5 t-84 34.5q-92 0 -145 -123q-32 -73 -55 -182.5t-23 -186.5q0 -69 29 -106t84 -37q62 0 100.5 45t69.5 155h108q-34 -151 -104 -221.5t-185 -70.5q-98 0 -152 63t-54 180z" />
<glyph unicode="&#xaa;" horiz-adv-x="581" d="M109 688q0 51 19.5 98t51.5 72q39 27 150 47q70 12 92 18t33 15q9 11 16.5 37.5t7.5 52.5q0 59 -80 59q-48 0 -71.5 -22.5t-30.5 -77.5h-104q14 100 63 144.5t147 44.5q87 0 137 -36.5t50 -99.5q0 -30 -12 -84l-62 -270q-6 -30 -6 -41q0 -24 27 -24q9 0 30 6l-16 -78 q-41 -10 -59 -10q-71 0 -80 65q-31 -37 -63.5 -53t-76.5 -16q-77 0 -120 40.5t-43 112.5zM217 684q0 -31 20.5 -48.5t55.5 -17.5q51 0 82.5 38.5t50.5 121.5l14 66q-34 -15 -80 -23q-84 -15 -106 -37q-37 -32 -37 -100z" />
<glyph unicode="&#xab;" horiz-adv-x="817" d="M80 461l29 139l342 256l-35 -156l-234 -180l154 -201l-33 -149zM408 461l28 139l342 256l-35 -156l-233 -180l154 -201l-33 -149z" />
<glyph unicode="&#xac;" horiz-adv-x="1024" d="M14 430v137h887v-567h-151v430h-736z" />
<glyph unicode="&#xad;" horiz-adv-x="391" d="M-10 446l30 144h383l-30 -144h-383z" />
<glyph unicode="&#xae;" horiz-adv-x="1392" d="M82 643q0 151 54.5 289.5t146.5 239t218.5 160t264.5 59.5q162 0 299 -89t216 -242.5t79 -336.5q0 -119 -34.5 -232.5t-98 -205.5t-146.5 -162.5t-185.5 -109t-209.5 -38.5q-166 0 -305 88t-219 241.5t-80 338.5zM178 645q0 -162 67.5 -298t185 -214t257.5 -78 q114 0 220.5 54t184.5 143.5t124.5 213t46.5 255.5q0 161 -67 297t-182.5 214.5t-252.5 78.5q-157 0 -291.5 -89.5t-213.5 -243.5t-79 -333zM422 301l166 778h168q137 0 200.5 -46.5t63.5 -147.5q0 -81 -36.5 -129.5t-115.5 -73.5q38 -22 55 -50.5t17 -72.5q0 -52 -22 -156 q-7 -40 -7 -43q0 -20 19 -36l-6 -23h-117q-8 31 -8 51q0 16 12 74q20 85 20 137q0 46 -33 65t-112 19h-84l-74 -346h-106zM623 737q35 -2 57 -2q125 0 179 33.5t54 110.5q0 64 -39.5 87t-148.5 23q-14 0 -49 -2z" />
<glyph unicode="&#xaf;" horiz-adv-x="1024" d="M406 1204l22 103h520l-22 -103h-520z" />
<glyph unicode="&#xb0;" horiz-adv-x="739" d="M190 1090q0 118 89.5 204t212.5 86q126 0 214.5 -86t88.5 -209q0 -122 -88.5 -208t-212.5 -86q-127 0 -215.5 87t-88.5 212zM297 1087q0 -81 57.5 -137.5t139.5 -56.5q80 0 138 57t58 135q0 80 -57 136.5t-139 56.5q-80 0 -138.5 -56.5t-58.5 -134.5z" />
<glyph unicode="&#xb1;" d="M14 92l27 129h741l-26 -129h-742zM145 707l27 129h299l70 327h143l-70 -327h299l-26 -129h-301l-72 -340h-143l71 340h-297z" />
<glyph unicode="&#xb2;" horiz-adv-x="622" d="M86 545q19 135 86.5 221t216.5 164q91 49 129 84q53 50 53 137q0 60 -32.5 95.5t-89.5 35.5q-66 0 -101.5 -44.5t-44.5 -139.5h-108q17 143 79 209.5t179 66.5q109 0 170 -59.5t61 -165.5t-61 -176q-30 -33 -65.5 -57t-117.5 -68q-95 -49 -148.5 -99t-78.5 -112h369 l-19 -92h-477z" />
<glyph unicode="&#xb3;" horiz-adv-x="622" d="M121 750q0 36 2 59h108q-2 -18 -2 -47q0 -68 35 -106t96 -38q66 0 108 51.5t42 133.5q0 69 -40 97t-140 28l18 88h39q88 0 135 40t47 115q0 51 -29 81t-77 30q-53 0 -83 -30t-50 -103h-107q18 66 33 99t41 59q67 67 168 67q102 0 157.5 -51.5t55.5 -146.5q0 -83 -38 -135 t-118 -78q101 -58 101 -177q0 -109 -75.5 -183.5t-185.5 -74.5q-106 0 -173.5 62t-67.5 160z" />
<glyph unicode="&#xb4;" horiz-adv-x="1024" d="M483 1118l166 281h207l-254 -281h-119z" />
<glyph unicode="&#xb5;" d="M-35 -342l289 1356h147l-155 -731q-13 -59 -13 -82q0 -51 36 -81t98 -30q132 0 237 166l162 758h147l-215 -1014h-147l22 109q-120 -138 -245 -138q-46 0 -75 22t-54 75l-86 -410h-148z" />
<glyph unicode="&#xb6;" d="M172 952q0 124 67.5 234t168.5 151q71 29 223 29h340l-336 -1585h-123l309 1448h-119l-307 -1448h-123l191 899q-92 9 -126 18t-69 33q-46 32 -71 90.5t-25 130.5z" />
<glyph unicode="&#xb7;" horiz-adv-x="417" d="M96 432l43 203h191l-43 -203h-191z" />
<glyph unicode="&#xb8;" horiz-adv-x="1024" d="M156 -336l32 60q72 -29 117 -29q40 0 70.5 18.5t30.5 44.5q0 25 -23.5 41.5t-60.5 16.5q-24 0 -64 -11l-27 23l127 172h72l-100 -133q44 10 71 10q55 0 91 -30t36 -76q0 -61 -61 -100.5t-156 -39.5q-67 0 -155 33z" />
<glyph unicode="&#xb9;" horiz-adv-x="622" d="M268 1161l17 76q97 2 150 31.5t87 101.5h88l-174 -823h-110l133 627q-76 -13 -146 -13h-45z" />
<glyph unicode="&#xba;" horiz-adv-x="626" d="M139 750q0 73 22 160t56 147q67 119 207 119q101 0 156 -52t55 -149q0 -87 -25 -183.5t-63 -156.5q-65 -105 -203 -105q-205 0 -205 220zM250 735q0 -114 100 -114q37 0 67.5 23t47.5 63q24 55 41.5 135t17.5 135q0 52 -26 80t-76 28q-72 0 -113 -84q-24 -50 -41.5 -129 t-17.5 -137z" />
<glyph unicode="&#xbb;" horiz-adv-x="839" d="M41 178l33 158l241 184l-159 201l30 139l222 -285l-31 -145zM395 178l35 158l240 184l-158 201l29 139l221 -285l-31 -145z" />
<glyph unicode="&#xbc;" horiz-adv-x="1486" d="M268 1161l17 76q97 2 150 31.5t87 101.5h88l-174 -823h-110l133 627q-76 -13 -146 -13h-45zM319 2l822 1364h102l-823 -1364h-101zM850 207l18 90l449 522h100l-112 -526h88l-19 -86h-88l-43 -207h-104l45 207h-334zM971 293h231l60 276l12 56q10 38 10 43l2 10 q-38 -49 -49 -66l-29 -37z" />
<glyph unicode="&#xbd;" horiz-adv-x="1486" d="M268 1161l17 76q97 2 150 31.5t87 101.5h88l-174 -823h-110l133 627q-76 -13 -146 -13h-45zM319 2l822 1364h102l-823 -1364h-101zM836 0q20 134 87 218.5t216 164.5q113 61 147.5 104t34.5 119q0 60 -33 94.5t-90 34.5q-66 0 -101 -44t-44 -138h-109q17 141 79 207.5 t179 66.5q109 0 170.5 -59.5t61.5 -163.5q0 -108 -62 -176q-32 -35 -67.5 -60.5t-114.5 -66.5q-98 -52 -150.5 -99.5t-76.5 -109.5h368l-18 -92h-477z" />
<glyph unicode="&#xbe;" horiz-adv-x="1486" d="M121 750q0 36 2 59h108q-2 -18 -2 -47q0 -68 35 -106t96 -38q66 0 108 51.5t42 133.5q0 69 -40 97t-140 28l18 88h39q88 0 135 40t47 115q0 51 -29 81t-77 30q-53 0 -83 -30t-50 -103h-107q18 66 33 99t41 59q67 67 168 67q102 0 157.5 -51.5t55.5 -146.5q0 -83 -38 -135 t-118 -78q101 -58 101 -177q0 -109 -75.5 -183.5t-185.5 -74.5q-106 0 -173.5 62t-67.5 160zM317 2l824 1364h102l-823 -1364h-103zM850 207l18 90l449 522h100l-112 -526h88l-19 -86h-88l-43 -207h-104l45 207h-334zM971 293h231l60 276l12 56q10 38 10 43l2 10 q-38 -49 -49 -66l-29 -37z" />
<glyph unicode="&#xbf;" horiz-adv-x="839" d="M-16 66q0 117 54.5 209t176.5 174q91 61 133.5 103.5t66.5 98t42 156.5h135q-28 -181 -76 -266t-178 -183q-66 -51 -88.5 -70.5t-42.5 -45.5q-64 -80 -64 -181q0 -83 49.5 -133.5t131.5 -50.5q119 0 176 107q25 51 39 139h145q-15 -97 -36.5 -155t-59.5 -105 q-101 -119 -271 -119q-154 0 -243.5 87t-89.5 235zM467 952l39 185h174l-39 -185h-174z" />
<glyph unicode="&#xc0;" horiz-adv-x="1003" d="M-74 0l674 1366h193l79 -1366h-153l-17 385h-421l-183 -385h-172zM340 516h356l-28 709zM483 1722h183l98 -227h-111z" />
<glyph unicode="&#xc1;" horiz-adv-x="1003" d="M-74 0l674 1366h193l79 -1366h-153l-17 385h-421l-183 -385h-172zM340 516h356l-28 709zM672 1493l143 227h199l-230 -227h-112z" />
<glyph unicode="&#xc2;" horiz-adv-x="1003" d="M-74 0l674 1366h193l79 -1366h-153l-17 385h-421l-183 -385h-172zM340 516h356l-28 709zM467 1495l211 225h160l127 -225h-127l-86 156l-146 -156h-139z" />
<glyph unicode="&#xc3;" horiz-adv-x="1003" d="M-74 0l674 1366h193l79 -1366h-153l-17 385h-421l-183 -385h-172zM340 516h356l-28 709zM498 1505q10 86 53 133.5t111 47.5q24 0 112 -25q67 -21 94 -21q55 0 66 72h76q-4 -91 -46 -139.5t-116 -48.5q-27 0 -50 5.5t-106 31.5q-19 8 -41 8q-57 0 -73 -64h-80z" />
<glyph unicode="&#xc4;" horiz-adv-x="1003" d="M-80 0l674 1366h192l80 -1366h-153l-17 385h-422l-182 -385h-172zM334 516h356l-18 420q-4 98 -4 113v110v92q-67 -158 -138 -311zM494 1518l38 178h156l-37 -178h-157zM807 1518l39 178h155l-36 -178h-158z" />
<glyph unicode="&#xc5;" horiz-adv-x="1003" d="M-74 0l674 1366h193l79 -1366h-153l-17 385h-421l-183 -385h-172zM340 516h356l-28 709zM559 1612q0 75 53.5 128.5t128.5 53.5q76 0 129.5 -53.5t53.5 -130.5q0 -73 -54.5 -126.5t-128.5 -53.5q-75 0 -128.5 53.5t-53.5 128.5zM643 1612q0 -40 29 -69.5t69 -29.5 t69.5 29.5t29.5 67.5q0 42 -29 71t-70 29q-40 0 -69 -29t-29 -69z" />
<glyph unicode="&#xc6;" horiz-adv-x="1472" d="M-88 0l825 1366h805l-26 -131h-500l-98 -459h483l-27 -133h-485l-109 -512h529l-29 -131h-684l86 410h-350l-240 -410h-180zM408 543h303l147 692h-51z" />
<glyph unicode="&#xc7;" horiz-adv-x="1024" d="M102 387q0 195 55 419t140 370q66 115 158 170t217 55q177 0 270.5 -96.5t93.5 -278.5q0 -31 -4 -121h-145q2 43 2 111q0 123 -57.5 189.5t-161.5 66.5q-87 0 -158 -60t-117 -172q-59 -141 -99 -333.5t-40 -333.5q0 -135 56.5 -206t162.5 -71q114 0 189.5 86t126.5 275 h157q-103 -488 -479 -488l-70 -100q36 8 60 8q63 0 99 -28.5t36 -79.5q0 -62 -59 -100t-156 -38q-76 0 -158 31l33 62q71 -31 119 -31q41 0 70.5 19.5t29.5 47.5q0 24 -24 40t-60 16q-21 0 -61 -13l-31 23l102 143q-297 41 -297 418z" />
<glyph unicode="&#xc8;" horiz-adv-x="899" d="M23 0l290 1366h654l-27 -131h-498l-98 -457h485l-28 -135h-484l-110 -512h528l-26 -131h-686zM467 1722h182l99 -227h-111z" />
<glyph unicode="&#xc9;" horiz-adv-x="899" d="M23 0l290 1366h654l-27 -131h-498l-98 -457h485l-28 -135h-484l-110 -512h528l-26 -131h-686zM580 1493l143 227h199l-230 -227h-112z" />
<glyph unicode="&#xca;" horiz-adv-x="899" d="M23 0l290 1366h654l-27 -131h-498l-98 -457h485l-28 -135h-484l-110 -512h528l-26 -131h-686zM424 1495l211 225h160l127 -225h-127l-86 156l-146 -156h-139z" />
<glyph unicode="&#xcb;" horiz-adv-x="899" d="M23 0l290 1366h654l-27 -131h-498l-98 -457h485l-28 -135h-484l-110 -512h528l-26 -131h-686zM449 1518l36 178h158l-37 -178h-157zM762 1518l39 178h155l-36 -178h-158z" />
<glyph unicode="&#xcc;" horiz-adv-x="446" d="M35 0l291 1366h155l-288 -1366h-158zM205 1722h182l98 -227h-110z" />
<glyph unicode="&#xcd;" horiz-adv-x="446" d="M35 0l291 1366h155l-288 -1366h-158zM379 1493l143 227h199l-229 -227h-113z" />
<glyph unicode="&#xce;" horiz-adv-x="446" d="M35 0l291 1366h155l-288 -1366h-158zM188 1495l211 225h160l127 -225h-127l-86 156l-145 -156h-140z" />
<glyph unicode="&#xcf;" horiz-adv-x="446" d="M35 0l291 1366h155l-288 -1366h-158zM236 1518l36 178h158l-37 -178h-157zM496 1518l36 178h158l-39 -178h-155z" />
<glyph unicode="&#xd0;" horiz-adv-x="1089" d="M25 0l139 657h-129l20 95h129l131 614h246q87 0 179 -17t139 -42q89 -47 129.5 -138.5t40.5 -242.5q0 -226 -59 -436t-154 -324q-82 -97 -183 -131.5t-299 -34.5h-329zM211 131h100q128 0 186 7t101 30q67 34 123 107.5t90 173.5q32 93 57 243.5t25 247.5q0 198 -117 258 q-70 37 -235 37h-97l-102 -483h293l-21 -95h-292z" />
<glyph unicode="&#xd1;" horiz-adv-x="1095" d="M23 0l290 1366h217l211 -1169l248 1169h158l-291 -1366h-219l-215 1137l-242 -1137h-157zM551 1505q10 86 53 133.5t111 47.5q25 0 112 -25q67 -21 95 -21q54 0 65 72h76q-4 -91 -46 -139.5t-116 -48.5q-27 0 -50 5.5t-106 31.5q-19 8 -40 8q-58 0 -74 -64h-80z" />
<glyph unicode="&#xd2;" horiz-adv-x="1099" d="M106 403q0 152 44 349t110 344q72 158 173 231.5t247 73.5q195 0 290 -107t95 -327q0 -168 -46.5 -374t-117.5 -351q-69 -143 -168 -210t-241 -67q-195 0 -290.5 108.5t-95.5 329.5zM260 385q0 -139 58 -214t165 -75q98 0 167.5 56.5t123.5 181.5q57 133 98 326t41 325 q0 287 -231 287q-101 0 -169 -62t-124 -204q-52 -131 -90.5 -317t-38.5 -304zM512 1722h182l99 -227h-111z" />
<glyph unicode="&#xd3;" horiz-adv-x="1099" d="M106 403q0 152 44 349t110 344q72 158 173 231.5t247 73.5q195 0 290 -107t95 -327q0 -168 -46.5 -374t-117.5 -351q-69 -143 -168 -210t-241 -67q-195 0 -290.5 108.5t-95.5 329.5zM260 385q0 -139 58 -214t165 -75q98 0 167.5 56.5t123.5 181.5q57 133 98 326t41 325 q0 287 -231 287q-101 0 -169 -62t-124 -204q-52 -131 -90.5 -317t-38.5 -304zM639 1493l143 227h199l-229 -227h-113z" />
<glyph unicode="&#xd4;" horiz-adv-x="1099" d="M106 403q0 152 44 349t110 344q72 158 173 231.5t247 73.5q195 0 290 -107t95 -327q0 -168 -46.5 -374t-117.5 -351q-69 -143 -168 -210t-241 -67q-195 0 -290.5 108.5t-95.5 329.5zM260 385q0 -139 58 -214t165 -75q98 0 167.5 56.5t123.5 181.5q57 133 98 326t41 325 q0 287 -231 287q-101 0 -169 -62t-124 -204q-52 -131 -90.5 -317t-38.5 -304zM510 1495l211 225h160l127 -225h-127l-86 156l-146 -156h-139z" />
<glyph unicode="&#xd5;" horiz-adv-x="1099" d="M106 403q0 152 44 349t110 344q72 158 173 231.5t247 73.5q195 0 290 -107t95 -327q0 -168 -46.5 -374t-117.5 -351q-69 -143 -168 -210t-241 -67q-195 0 -290.5 108.5t-95.5 329.5zM260 385q0 -139 58 -214t165 -75q98 0 167.5 56.5t123.5 181.5q57 133 98 326t41 325 q0 287 -231 287q-101 0 -169 -62t-124 -204q-52 -131 -90.5 -317t-38.5 -304zM532 1505q10 86 53 133.5t111 47.5q26 0 113 -25q67 -21 94 -21q55 0 66 72h75q-5 -91 -46.5 -139.5t-114.5 -48.5q-27 0 -50 5.5t-106 31.5q-19 8 -41 8q-58 0 -74 -64h-80z" />
<glyph unicode="&#xd6;" horiz-adv-x="1112" d="M113 403q0 152 43.5 349.5t109.5 343.5q72 158 173 231.5t247 73.5q195 0 290 -107t95 -327q0 -168 -46.5 -374t-117.5 -351q-69 -143 -168 -210t-241 -67q-195 0 -290 108.5t-95 329.5zM266 385q0 -139 58 -214t165 -75q98 0 167.5 56.5t123.5 181.5q57 134 98.5 326.5 t41.5 324.5q0 287 -232 287q-101 0 -169 -62t-124 -204q-52 -131 -90.5 -317t-38.5 -304zM535 1518l36 178h158l-37 -178h-157zM848 1518l39 178h155l-36 -178h-158z" />
<glyph unicode="&#xd7;" d="M8 397l402 318l-238 303l113 88l237 -303l402 315l88 -112l-402 -316l242 -307l-111 -88l-243 307l-402 -315z" />
<glyph unicode="&#xd8;" horiz-adv-x="1044" d="M-20 -6l137 176q-33 124 -33 227q0 173 52 391.5t124 354.5q72 135 169 196.5t235 61.5q110 0 178.5 -33t124.5 -111l110 146l70 -57l-133 -175q17 -51 21.5 -84.5t4.5 -97.5q0 -202 -50 -420t-128 -358q-72 -131 -164.5 -188.5t-230.5 -57.5q-102 0 -170 28.5t-127 94.5 l-119 -149zM236 424q0 -30 6 -94l630 809q-37 70 -85 100.5t-123 30.5q-105 0 -176 -63.5t-126 -207.5q-45 -116 -85.5 -300.5t-40.5 -274.5zM264 211q43 -63 87 -89t108 -26q114 0 193.5 81.5t138.5 256.5q99 299 102 584z" />
<glyph unicode="&#xd9;" horiz-adv-x="1067" d="M92 291q0 94 33 246l176 829h158l-193 -907q-22 -113 -22 -160q0 -91 63 -147t166 -56q152 0 227 125q43 67 72 209l199 936h155l-204 -971q-24 -108 -44 -163.5t-53 -102.5q-114 -164 -350 -164q-175 0 -279 88.5t-104 237.5zM551 1722h182l98 -227h-110z" />
<glyph unicode="&#xda;" horiz-adv-x="1067" d="M92 291q0 94 33 246l176 829h158l-193 -907q-22 -113 -22 -160q0 -91 63 -147t166 -56q152 0 227 125q43 67 72 209l199 936h155l-204 -971q-24 -108 -44 -163.5t-53 -102.5q-114 -164 -350 -164q-175 0 -279 88.5t-104 237.5zM684 1493l143 227h199l-229 -227h-113z" />
<glyph unicode="&#xdb;" horiz-adv-x="1067" d="M92 291q0 94 33 246l176 829h158l-193 -907q-22 -113 -22 -160q0 -91 63 -147t166 -56q152 0 227 125q43 67 72 209l199 936h155l-204 -971q-24 -108 -44 -163.5t-53 -102.5q-114 -164 -350 -164q-175 0 -279 88.5t-104 237.5zM506 1495l211 225h160l127 -225h-127 l-86 156l-146 -156h-139z" />
<glyph unicode="&#xdc;" horiz-adv-x="1067" d="M92 291q0 94 33 246l176 829h158l-193 -907q-22 -113 -22 -160q0 -91 63 -147t166 -56q152 0 227 125q43 67 72 209l199 936h155l-204 -971q-24 -108 -44 -163.5t-53 -102.5q-114 -164 -350 -164q-175 0 -279 88.5t-104 237.5zM524 1518l37 178h158l-37 -178h-158z M838 1518l39 178h155l-37 -178h-157z" />
<glyph unicode="&#xdd;" horiz-adv-x="962" d="M168 1366h166l221 -637l381 637h178l-493 -799l-121 -567h-156l117 555zM610 1493l144 227h198l-229 -227h-113z" />
<glyph unicode="&#xde;" horiz-adv-x="976" d="M18 0l291 1366h156l-39 -192h109q104 0 162.5 -9.5t109.5 -34.5q170 -78 170 -311q0 -120 -44 -212.5t-126 -143.5q-125 -76 -346 -76q-31 0 -201 6l-84 -393h-158zM287 524q99 -6 147 -6q101 0 163.5 13t109.5 44q112 76 112 248q0 89 -36.5 141t-114.5 72 q-51 13 -205 13h-64z" />
<glyph unicode="&#xdf;" horiz-adv-x="913" d="M4 0l215 1008q15 68 41 138.5t51 110.5q43 66 111 101t153 35q136 0 224 -82q88 -79 88 -217q0 -155 -78 -252q-26 -32 -56 -49t-83 -29q74 -44 105.5 -105.5t31.5 -162.5q0 -105 -34 -214.5t-89 -181.5q-86 -116 -213 -116q-53 0 -95 15.5t-93 53.5l26 125 q91 -61 150 -61q89 0 139 112q24 53 42.5 147.5t18.5 162.5q0 96 -43.5 137.5t-160.5 56.5l26 119q40 -12 74 -12q88 0 138 72t50 198q0 73 -46.5 116.5t-123.5 43.5q-58 0 -95.5 -27t-65.5 -88q-32 -81 -54 -184l-206 -971h-148z" />
<glyph unicode="&#xe0;" horiz-adv-x="829" d="M12 223q0 84 31 161.5t80 115.5q34 26 83.5 42.5t151.5 35.5q113 20 150 31.5t57 31.5t33.5 66t13.5 96q0 57 -37.5 88t-107.5 31q-159 0 -180 -170h-137q19 146 98 217t225 71q133 0 209 -56.5t76 -156.5q0 -41 -19 -139l-98 -463q-12 -52 -12 -78q0 -55 55 -55 q12 0 33 6l-21 -98q-52 -14 -80 -14q-63 0 -90.5 34t-27.5 109q-58 -86 -109 -117.5t-129 -31.5q-117 0 -182.5 64t-65.5 179zM156 221q0 -60 37 -94.5t102 -34.5q86 0 142 70t87 215l33 151q-30 -24 -59 -35t-99 -24q-79 -13 -115 -27t-63 -41q-29 -28 -47 -77.5 t-18 -102.5zM295 1401h188l107 -285h-107z" />
<glyph unicode="&#xe1;" horiz-adv-x="829" d="M12 223q0 84 31 161.5t80 115.5q34 26 83.5 42.5t151.5 35.5q113 20 150 31.5t57 31.5t33.5 66t13.5 96q0 57 -37.5 88t-107.5 31q-159 0 -180 -170h-137q19 146 98 217t225 71q133 0 209 -56.5t76 -156.5q0 -41 -19 -139l-98 -463q-12 -52 -12 -78q0 -55 55 -55 q12 0 33 6l-21 -98q-52 -14 -80 -14q-63 0 -90.5 34t-27.5 109q-58 -86 -109 -117.5t-129 -31.5q-117 0 -182.5 64t-65.5 179zM156 221q0 -60 37 -94.5t102 -34.5q86 0 142 70t87 215l33 151q-30 -24 -59 -35t-99 -24q-79 -13 -115 -27t-63 -41q-29 -28 -47 -77.5 t-18 -102.5zM438 1118l166 281h207l-254 -281h-119z" />
<glyph unicode="&#xe2;" horiz-adv-x="829" d="M12 223q0 84 31 161.5t80 115.5q34 26 83.5 42.5t151.5 35.5q113 20 150 31.5t57 31.5t33.5 66t13.5 96q0 57 -37.5 88t-107.5 31q-159 0 -180 -170h-137q19 146 98 217t225 71q133 0 209 -56.5t76 -156.5q0 -41 -19 -139l-98 -463q-12 -52 -12 -78q0 -55 55 -55 q12 0 33 6l-21 -98q-52 -14 -80 -14q-63 0 -90.5 34t-27.5 109q-58 -86 -109 -117.5t-129 -31.5q-117 0 -182.5 64t-65.5 179zM156 221q0 -60 37 -94.5t102 -34.5q86 0 142 70t87 215l33 151q-30 -24 -59 -35t-99 -24q-79 -13 -115 -27t-63 -41q-29 -28 -47 -77.5 t-18 -102.5zM264 1114l236 283h151l129 -283h-129l-90 184l-158 -184h-139z" />
<glyph unicode="&#xe3;" horiz-adv-x="829" d="M12 223q0 84 31 161.5t80 115.5q34 26 83.5 42.5t151.5 35.5q113 20 150 31.5t57 31.5t33.5 66t13.5 96q0 57 -37.5 88t-107.5 31q-159 0 -180 -170h-137q19 146 98 217t225 71q133 0 209 -56.5t76 -156.5q0 -41 -19 -139l-98 -463q-12 -52 -12 -78q0 -55 55 -55 q12 0 33 6l-21 -98q-52 -14 -80 -14q-63 0 -90.5 34t-27.5 109q-58 -86 -109 -117.5t-129 -31.5q-117 0 -182.5 64t-65.5 179zM156 221q0 -60 37 -94.5t102 -34.5q86 0 142 70t87 215l33 151q-30 -24 -59 -35t-99 -24q-79 -13 -115 -27t-63 -41q-29 -28 -47 -77.5 t-18 -102.5zM322 1167q17 97 56 141t109 44q35 0 115 -27q73 -22 90 -22q29 0 48 18.5t22 50.5h80q-21 -184 -160 -184q-46 0 -107 20q-85 27 -108 27q-26 0 -41.5 -15.5t-24.5 -52.5h-79z" />
<glyph unicode="&#xe4;" horiz-adv-x="829" d="M12 223q0 84 31 161.5t80 115.5q34 26 83.5 42.5t151.5 35.5q113 20 150 31.5t57 31.5t33.5 66t13.5 96q0 57 -37.5 88t-107.5 31q-159 0 -180 -170h-137q19 146 98 217t225 71q133 0 209 -56.5t76 -156.5q0 -41 -19 -139l-98 -463q-12 -52 -12 -78q0 -55 55 -55 q12 0 33 6l-21 -98q-52 -14 -80 -14q-63 0 -90.5 34t-27.5 109q-58 -86 -109 -117.5t-129 -31.5q-117 0 -182.5 64t-65.5 179zM156 221q0 -60 37 -94.5t102 -34.5q86 0 142 70t87 215l33 151q-30 -24 -59 -35t-99 -24q-79 -13 -115 -27t-63 -41q-29 -28 -47 -77.5 t-18 -102.5zM338 1169l39 181h164l-39 -181h-164zM633 1169l37 181h166l-39 -181h-164z" />
<glyph unicode="&#xe5;" horiz-adv-x="829" d="M12 223q0 84 31 161.5t80 115.5q34 26 83.5 42.5t151.5 35.5q113 20 150 31.5t57 31.5t33.5 66t13.5 96q0 57 -37.5 88t-107.5 31q-159 0 -180 -170h-137q19 146 98 217t225 71q133 0 209 -56.5t76 -156.5q0 -41 -19 -139l-98 -463q-12 -52 -12 -78q0 -55 55 -55 q12 0 33 6l-21 -98q-52 -14 -80 -14q-63 0 -90.5 34t-27.5 109q-58 -86 -109 -117.5t-129 -31.5q-117 0 -182.5 64t-65.5 179zM156 221q0 -60 37 -94.5t102 -34.5q86 0 142 70t87 215l33 151q-30 -24 -59 -35t-99 -24q-79 -13 -115 -27t-63 -41q-29 -28 -47 -77.5 t-18 -102.5zM383 1298q0 75 53.5 129t128.5 54q76 0 129.5 -54t53.5 -131q0 -73 -54.5 -126.5t-128.5 -53.5q-75 0 -128.5 53.5t-53.5 128.5zM467 1298q0 -40 29 -69t69 -29t69.5 29t29.5 67q0 43 -29 72t-70 29q-40 0 -69 -29.5t-29 -69.5z" />
<glyph unicode="&#xe6;" horiz-adv-x="1316" d="M8 223q0 115 49 194.5t142 114.5q33 12 50 17.5t68 18t152 34.5q54 12 79 29.5t40 52.5q26 56 26 117q0 58 -38.5 89.5t-110.5 31.5q-83 0 -123 -37t-59 -129h-140q28 154 105 219t229 65q89 0 146.5 -23t103.5 -77q52 54 110 77t138 23q139 0 213 -77.5t74 -223.5 q0 -103 -31 -241h-526q-23 -141 -23 -203q0 -97 43 -150t121 -53q46 0 88.5 22.5t69.5 63.5q14 22 22.5 46t30.5 104h137q-44 -186 -129 -270.5t-227 -84.5q-98 0 -164 39.5t-107 124.5q-63 -89 -132.5 -126.5t-172.5 -37.5q-125 0 -189.5 63.5t-64.5 186.5zM152 223 q0 -66 35.5 -102.5t99.5 -36.5q176 0 241 293l35 160q-38 -29 -68.5 -40.5t-127.5 -33.5q-73 -15 -109 -32t-61 -48q-45 -57 -45 -160zM729 614h379q16 93 16 131q0 86 -37 131.5t-108 45.5q-183 0 -250 -308z" />
<glyph unicode="&#xe7;" horiz-adv-x="827" d="M66 299q0 160 41 328.5t104 261.5q102 151 291 151q143 0 223 -77t80 -215q0 -18 -4 -68h-144q5 67 5 72q0 78 -40 120.5t-114 42.5t-124.5 -45.5t-88.5 -146.5q-34 -92 -59 -220t-25 -216q0 -95 39.5 -145t114.5 -50q106 0 167 98q29 50 54 154h143q-26 -184 -117 -280 t-241 -97l-72 -100q44 10 72 10q55 0 91 -30t36 -76q0 -61 -61 -100.5t-156 -39.5q-68 0 -156 33l33 60q72 -29 116 -29q40 0 70.5 18.5t30.5 44.5q0 25 -23.5 41.5t-60.5 16.5q-24 0 -64 -11l-26 23l100 139q-122 19 -178.5 98.5t-56.5 233.5z" />
<glyph unicode="&#xe8;" horiz-adv-x="833" d="M63 311q0 136 37.5 291t94.5 258q101 180 297 180q140 0 212 -77t72 -226q0 -81 -31 -241h-522l-10 -74q-12 -110 -12 -139q0 -85 44.5 -134t121.5 -49q156 0 202 224h140q-40 -184 -124 -267.5t-229 -83.5q-144 0 -218.5 86t-74.5 252zM244 612h381q14 85 14 136 q0 174 -145 174q-93 0 -153 -74.5t-97 -235.5zM276 1401h189l106 -285h-106z" />
<glyph unicode="&#xe9;" horiz-adv-x="833" d="M63 311q0 136 37.5 291t94.5 258q101 180 297 180q140 0 212 -77t72 -226q0 -81 -31 -241h-522l-10 -74q-12 -110 -12 -139q0 -85 44.5 -134t121.5 -49q156 0 202 224h140q-40 -184 -124 -267.5t-229 -83.5q-144 0 -218.5 86t-74.5 252zM244 612h381q14 85 14 136 q0 174 -145 174q-93 0 -153 -74.5t-97 -235.5zM442 1118l166 281h207l-254 -281h-119z" />
<glyph unicode="&#xea;" horiz-adv-x="833" d="M63 311q0 136 37.5 291t94.5 258q101 180 297 180q140 0 212 -77t72 -226q0 -81 -31 -241h-522l-10 -74q-12 -110 -12 -139q0 -85 44.5 -134t121.5 -49q156 0 202 224h140q-40 -184 -124 -267.5t-229 -83.5q-144 0 -218.5 86t-74.5 252zM244 612h381q14 85 14 136 q0 174 -145 174q-93 0 -153 -74.5t-97 -235.5zM252 1114l235 283h152l129 -283h-129l-90 184l-158 -184h-139z" />
<glyph unicode="&#xeb;" horiz-adv-x="833" d="M63 311q0 136 37.5 291t94.5 258q101 180 297 180q140 0 212 -77t72 -226q0 -81 -31 -241h-522l-10 -74q-12 -110 -12 -139q0 -85 44.5 -134t121.5 -49q156 0 202 224h140q-40 -184 -124 -267.5t-229 -83.5q-144 0 -218.5 86t-74.5 252zM244 612h381q14 85 14 136 q0 174 -145 174q-93 0 -153 -74.5t-97 -235.5zM307 1169l39 181h164l-39 -181h-164zM602 1169l37 181h166l-39 -181h-164z" />
<glyph unicode="&#xec;" horiz-adv-x="374" d="M4 0l215 1014h148l-215 -1014h-148zM68 1401h188l106 -285h-106z" />
<glyph unicode="&#xed;" horiz-adv-x="374" d="M4 0l215 1014h148l-215 -1014h-148zM262 1118l166 281h207l-254 -281h-119z" />
<glyph unicode="&#xee;" horiz-adv-x="374" d="M4 0l215 1014h148l-215 -1014h-148zM57 1114l236 283h151l129 -283h-129l-90 184l-157 -184h-140z" />
<glyph unicode="&#xef;" horiz-adv-x="374" d="M4 0l215 1014h148l-215 -1014h-148zM131 1169l39 181h164l-39 -181h-164zM371 1169l39 181h163l-38 -181h-164z" />
<glyph unicode="&#xf0;" horiz-adv-x="919" d="M96 348q0 129 27.5 263.5t73.5 228.5q46 95 125.5 148.5t173.5 53.5q67 0 149 -43q-50 128 -90 205l-149 -80l-39 76l149 80l-51 92l82 51q26 -38 61 -96l148 78l39 -74l-146 -78q112 -200 154.5 -329.5t42.5 -266.5q0 -130 -31 -268t-82 -235q-47 -89 -129.5 -136 t-191.5 -47q-155 0 -235.5 96t-80.5 281zM244 317q0 -109 45 -167t131 -58q67 0 122 44.5t83 121.5q38 103 61 232.5t23 236.5q0 49 -11 127q-53 40 -89 54t-87 14q-67 0 -113 -37.5t-83 -122.5q-38 -89 -60 -208.5t-22 -236.5z" />
<glyph unicode="&#xf1;" horiz-adv-x="876" d="M4 0l215 1014h148l-21 -101q65 69 124.5 98t137.5 29q103 0 162 -52.5t59 -143.5q0 -25 -18 -115l-156 -729h-147l154 717q18 83 18 100q0 47 -32.5 76t-86.5 29q-140 0 -248 -162l-161 -760h-148zM352 1167q17 97 56.5 141t109.5 44q35 0 115 -27q73 -22 90 -22 q29 0 48 18.5t22 50.5h79q-21 -184 -159 -184q-46 0 -107 20q-85 27 -108 27q-26 0 -41.5 -15.5t-24.5 -52.5h-80z" />
<glyph unicode="&#xf2;" horiz-adv-x="899" d="M66 332q0 125 34 270t88 246q101 192 322 192q157 0 241.5 -84t84.5 -241q0 -146 -40 -308t-100 -264q-102 -170 -315 -170q-315 0 -315 359zM213 307q0 -108 43 -157q23 -25 60.5 -40.5t74.5 -15.5q63 0 115.5 41.5t83.5 114.5q40 99 69 236.5t29 230.5q0 97 -47 149 t-135 52q-62 0 -112.5 -39.5t-82.5 -112.5q-40 -90 -69 -225.5t-29 -233.5zM297 1401h188l107 -285h-107z" />
<glyph unicode="&#xf3;" horiz-adv-x="899" d="M66 332q0 125 34 270t88 246q101 192 322 192q157 0 241.5 -84t84.5 -241q0 -146 -40 -308t-100 -264q-102 -170 -315 -170q-315 0 -315 359zM213 307q0 -108 43 -157q23 -25 60.5 -40.5t74.5 -15.5q63 0 115.5 41.5t83.5 114.5q40 99 69 236.5t29 230.5q0 97 -47 149 t-135 52q-62 0 -112.5 -39.5t-82.5 -112.5q-40 -90 -69 -225.5t-29 -233.5zM477 1118l166 281h207l-254 -281h-119z" />
<glyph unicode="&#xf4;" horiz-adv-x="899" d="M66 332q0 125 34 270t88 246q101 192 322 192q157 0 241.5 -84t84.5 -241q0 -146 -40 -308t-100 -264q-102 -170 -315 -170q-315 0 -315 359zM213 307q0 -108 43 -157q23 -25 60.5 -40.5t74.5 -15.5q63 0 115.5 41.5t83.5 114.5q40 99 69 236.5t29 230.5q0 97 -47 149 t-135 52q-62 0 -112.5 -39.5t-82.5 -112.5q-40 -90 -69 -225.5t-29 -233.5zM279 1114l235 283h152l129 -283h-129l-91 184l-157 -184h-139z" />
<glyph unicode="&#xf5;" horiz-adv-x="899" d="M66 332q0 125 34 270t88 246q101 192 322 192q157 0 241.5 -84t84.5 -241q0 -146 -40 -308t-100 -264q-102 -170 -315 -170q-315 0 -315 359zM213 307q0 -108 43 -157q23 -25 60.5 -40.5t74.5 -15.5q63 0 115.5 41.5t83.5 114.5q40 99 69 236.5t29 230.5q0 97 -47 149 t-135 52q-62 0 -112.5 -39.5t-82.5 -112.5q-40 -90 -69 -225.5t-29 -233.5zM344 1167q17 97 56.5 141t109.5 44q35 0 115 -27q73 -22 90 -22q29 0 47.5 18.5t21.5 50.5h80q-21 -184 -159 -184q-46 0 -107 20q-85 27 -109 27q-26 0 -41 -15.5t-24 -52.5h-80z" />
<glyph unicode="&#xf6;" horiz-adv-x="899" d="M66 332q0 125 34 270t88 246q101 192 322 192q157 0 241.5 -84t84.5 -241q0 -146 -40 -308t-100 -264q-102 -170 -315 -170q-315 0 -315 359zM213 307q0 -108 43 -157q23 -25 60.5 -40.5t74.5 -15.5q63 0 115.5 41.5t83.5 114.5q40 99 69 236.5t29 230.5q0 97 -47 149 t-135 52q-62 0 -112.5 -39.5t-82.5 -112.5q-40 -90 -69 -225.5t-29 -233.5zM346 1169l39 181h164l-39 -181h-164zM641 1169l37 181h166l-39 -181h-164z" />
<glyph unicode="&#xf7;" d="M129 637l27 129h741l-27 -129h-741zM344 416q0 47 34 80.5t81 33.5q46 0 79 -33.5t33 -80.5q0 -46 -33 -79.5t-79 -33.5q-47 0 -81 33.5t-34 79.5zM457 989q0 47 33.5 81t80.5 34q46 0 79.5 -34t33.5 -81q0 -46 -33.5 -79t-79.5 -33q-47 0 -80.5 33t-33.5 79z" />
<glyph unicode="&#xf8;" horiz-adv-x="876" d="M-49 -2l129 147q-23 106 -23 172q0 126 37 282t90 253q104 188 312 188q82 0 137.5 -22.5t109.5 -77.5l101 121l63 -53l-116 -144q20 -41 27 -72t7 -81q0 -156 -45 -326.5t-112 -265.5q-101 -146 -303 -146q-76 0 -126 20t-116 77l-105 -125zM203 291l459 547 q-65 80 -162 80q-157 0 -234 -244q-60 -182 -63 -383zM221 193q55 -99 158 -99q67 0 121.5 47t89.5 135q26 66 58 216t32 208v33z" />
<glyph unicode="&#xf9;" horiz-adv-x="886" d="M49 160q0 54 19 139l151 715h148l-156 -731q-12 -59 -12 -82q0 -49 36.5 -79t96.5 -30q131 0 239 164l160 758h148l-215 -1014h-148l23 109q-64 -73 -124.5 -104.5t-135.5 -31.5q-105 0 -167.5 50.5t-62.5 136.5zM338 1401h188l107 -285h-107z" />
<glyph unicode="&#xfa;" horiz-adv-x="886" d="M49 160q0 54 19 139l151 715h148l-156 -731q-12 -59 -12 -82q0 -49 36.5 -79t96.5 -30q131 0 239 164l160 758h148l-215 -1014h-148l23 109q-64 -73 -124.5 -104.5t-135.5 -31.5q-105 0 -167.5 50.5t-62.5 136.5zM504 1118l166 281h207l-254 -281h-119z" />
<glyph unicode="&#xfb;" horiz-adv-x="886" d="M49 160q0 54 19 139l151 715h148l-156 -731q-12 -59 -12 -82q0 -49 36.5 -79t96.5 -30q131 0 239 164l160 758h148l-215 -1014h-148l23 109q-64 -73 -124.5 -104.5t-135.5 -31.5q-105 0 -167.5 50.5t-62.5 136.5zM299 1114l236 283h151l129 -283h-129l-90 184l-158 -184 h-139z" />
<glyph unicode="&#xfc;" horiz-adv-x="886" d="M49 160q0 54 19 139l151 715h148l-156 -731q-12 -59 -12 -82q0 -49 36.5 -79t96.5 -30q131 0 239 164l160 758h148l-215 -1014h-148l23 109q-64 -73 -124.5 -104.5t-135.5 -31.5q-105 0 -167.5 50.5t-62.5 136.5zM340 1169l37 181h166l-39 -181h-164zM662 1169l38 181 h164l-39 -181h-163z" />
<glyph unicode="&#xfd;" horiz-adv-x="776" d="M-74 -330l37 111q47 -8 62 -8q40 0 69.5 22.5t55.5 73.5l55 111l-74 1034h154l28 -864l381 864h162l-508 -1055q-20 -40 -61.5 -110.5t-59.5 -92.5q-77 -102 -198 -102q-32 0 -103 16zM455 1118l166 281h206l-254 -281h-118z" />
<glyph unicode="&#xfe;" horiz-adv-x="903" d="M-68 -342l365 1714h147l-102 -479q90 147 238 147q123 0 187 -85.5t64 -247.5q0 -134 -30.5 -276t-81.5 -238q-112 -220 -307 -220q-170 0 -228 177l-104 -492h-148zM236 315q0 -104 41.5 -160.5t117.5 -56.5q63 0 118 50t89 139q34 88 59 218t25 218q0 97 -39.5 148 t-114.5 51q-68 0 -122 -49.5t-88 -141.5q-34 -89 -60 -215.5t-26 -200.5z" />
<glyph unicode="&#xff;" horiz-adv-x="776" d="M-74 -330l37 111q47 -8 62 -8q40 0 69.5 22.5t55.5 73.5l55 111l-74 1034h154l28 -864l381 864h162l-508 -1055q-20 -40 -61.5 -110.5t-59.5 -92.5q-77 -102 -198 -102q-32 0 -103 16zM297 1169l39 181h164l-39 -181h-164zM592 1169l37 181h166l-39 -181h-164z" />
<glyph unicode="&#x152;" horiz-adv-x="1560" d="M100 377q0 162 44 365t110 350q71 154 168.5 227.5t232.5 73.5q114 0 179 -43.5t106 -147.5l35 164h653l-29 -131h-499l-99 -459h486l-29 -135h-485l-109 -510h533l-29 -131h-684l27 121q-60 -85 -124.5 -120.5t-158.5 -35.5q-152 0 -233 103q-95 126 -95 309zM258 385 q0 -140 50.5 -212.5t148.5 -72.5q187 0 288 303q54 160 87.5 330.5t33.5 284.5q0 119 -50.5 181.5t-147.5 62.5q-96 0 -165 -62t-116 -192q-57 -157 -93 -330t-36 -293z" />
<glyph unicode="&#x153;" horiz-adv-x="1435" d="M74 319q0 147 39 300t102 253q105 168 307 168q106 0 169 -32.5t118 -118.5q60 81 126.5 116t160.5 35q138 0 212 -77t74 -218q0 -92 -32 -249h-525q-24 -139 -24 -209q0 -94 44 -146.5t122 -52.5q102 0 163 98q25 41 50 142h133q-15 -84 -35.5 -135.5t-58.5 -98.5 q-51 -63 -112.5 -92t-145.5 -29q-101 0 -175 45q-37 22 -55 46t-37 75q-56 -88 -127 -127t-178 -39q-155 0 -235 88t-80 258zM223 309q0 -110 43 -159q22 -26 58.5 -42t76.5 -16q80 0 139.5 62.5t94.5 185.5q26 89 43.5 197t17.5 172q0 104 -45 158.5t-133 54.5 q-80 0 -133 -54t-94 -178q-29 -84 -48.5 -194t-19.5 -187zM850 612h377q18 87 18 142q0 83 -38.5 125.5t-112.5 42.5q-177 0 -244 -310z" />
<glyph unicode="&#x178;" horiz-adv-x="962" d="M168 1366h166l221 -637l381 637h178l-493 -799l-121 -567h-156l117 555zM459 1518l37 178h157l-37 -178h-157zM772 1518l39 178h156l-37 -178h-158z" />
<glyph unicode="&#x2c6;" horiz-adv-x="1024" d="M369 1114l235 283h152l129 -283h-129l-90 184l-158 -184h-139z" />
<glyph unicode="&#x2dc;" horiz-adv-x="1024" d="M412 1167q17 97 56.5 141t109.5 44q34 0 114 -27q73 -22 90 -22q29 0 48 18.5t22 50.5h80q-21 -184 -160 -184q-45 0 -106 20q-85 27 -109 27q-26 0 -41 -15.5t-24 -52.5h-80z" />
<glyph unicode="&#x2000;" horiz-adv-x="897" />
<glyph unicode="&#x2001;" horiz-adv-x="1794" />
<glyph unicode="&#x2002;" horiz-adv-x="897" />
<glyph unicode="&#x2003;" horiz-adv-x="1794" />
<glyph unicode="&#x2004;" horiz-adv-x="598" />
<glyph unicode="&#x2005;" horiz-adv-x="448" />
<glyph unicode="&#x2006;" horiz-adv-x="299" />
<glyph unicode="&#x2007;" horiz-adv-x="299" />
<glyph unicode="&#x2008;" horiz-adv-x="224" />
<glyph unicode="&#x2009;" horiz-adv-x="358" />
<glyph unicode="&#x200a;" horiz-adv-x="99" />
<glyph unicode="&#x2010;" horiz-adv-x="391" d="M-10 446l30 144h383l-30 -144h-383z" />
<glyph unicode="&#x2011;" horiz-adv-x="391" d="M-10 446l30 144h383l-30 -144h-383z" />
<glyph unicode="&#x2012;" horiz-adv-x="391" d="M-10 446l30 144h383l-30 -144h-383z" />
<glyph unicode="&#x2013;" horiz-adv-x="892" d="M98 446l31 144h666l-31 -144h-666z" />
<glyph unicode="&#x2014;" horiz-adv-x="1179" d="M-10 446l30 144h1172l-31 -144h-1171z" />
<glyph unicode="&#x2018;" horiz-adv-x="401" d="M205 944l35 166q28 135 81.5 200.5t151.5 82.5l-16 -76q-53 -17 -83 -63.5t-42 -129.5h86l-39 -180h-174z" />
<glyph unicode="&#x2019;" horiz-adv-x="401" d="M199 918l16 75q54 17 84.5 63.5t40.5 129.5h-84l37 180h174l-35 -166q-28 -135 -81.5 -200t-151.5 -82z" />
<glyph unicode="&#x201a;" horiz-adv-x="401" d="M-53 -268l16 75q54 17 84.5 63.5t40.5 129.5h-84l37 180h174l-35 -166q-28 -135 -81.5 -200t-151.5 -82z" />
<glyph unicode="&#x201c;" horiz-adv-x="708" d="M205 944l35 166q28 135 81.5 200.5t151.5 82.5l-16 -76q-53 -17 -83 -63.5t-42 -129.5h86l-39 -180h-174zM512 944l35 166q28 135 81.5 200.5t151.5 82.5l-16 -76q-53 -17 -83 -63.5t-42 -129.5h86l-39 -180h-174z" />
<glyph unicode="&#x201d;" horiz-adv-x="708" d="M199 918l16 75q54 17 84.5 63.5t40.5 129.5h-84l39 180h172l-35 -166q-28 -135 -81.5 -200t-151.5 -82zM506 918l16 75q54 17 84.5 63.5t40.5 129.5h-84l39 180h172l-35 -166q-28 -136 -81 -200.5t-152 -81.5z" />
<glyph unicode="&#x201e;" horiz-adv-x="708" d="M-53 -268l16 75q54 17 84.5 63.5t40.5 129.5h-84l37 180h174l-35 -166q-28 -135 -81.5 -200t-151.5 -82zM254 -268l16 75q54 17 84.5 63.5t40.5 129.5h-84l39 180h172l-35 -166q-28 -136 -81 -200.5t-152 -81.5z" />
<glyph unicode="&#x2022;" horiz-adv-x="1366" d="M401 692q0 120 83.5 202.5t203.5 82.5q115 0 198 -84t83 -201t-83 -199.5t-200 -82.5q-118 0 -201.5 82.5t-83.5 199.5z" />
<glyph unicode="&#x2026;" horiz-adv-x="1202" d="M4 0l39 184h174l-39 -184h-174zM406 0l38 184h174l-40 -184h-172zM805 0l39 184h174l-39 -184h-174z" />
<glyph unicode="&#x202f;" horiz-adv-x="358" />
<glyph unicode="&#x2039;" horiz-adv-x="489" d="M80 461l29 139l342 256l-35 -156l-234 -180l154 -201l-33 -149z" />
<glyph unicode="&#x203a;" horiz-adv-x="485" d="M41 178l33 158l241 184l-159 201l30 139l222 -285l-31 -145z" />
<glyph unicode="&#x205f;" horiz-adv-x="448" />
<glyph unicode="&#x20ac;" horiz-adv-x="1187" d="M96 553l47 86h107l14 86h-133l49 86h105q75 309 197 449.5t315 140.5q177 0 270.5 -96.5t93.5 -278.5q0 -31 -4 -121h-145q2 43 2 111q0 121 -57 187.5t-160 66.5q-122 0 -206.5 -110.5t-144.5 -348.5h408l-47 -86h-381l-16 -86h348l-47 -86h-316q-14 -133 -14 -184 q0 -131 57 -202t162 -71q114 0 189 86.5t126 274.5h160q-37 -159 -93 -258t-146 -162q-48 -33 -117 -52.5t-137 -19.5q-170 0 -262.5 110t-92.5 312q0 54 11 166h-142z" />
<glyph unicode="&#x2122;" horiz-adv-x="1271" d="M172 1274l21 92h462l-20 -92h-166l-147 -686h-109l147 686h-188zM569 588l166 778h156l35 -600l295 600h161l-165 -778h-109l129 600l-301 -600h-94l-37 600l-129 -600h-107z" />
<glyph unicode="&#x25fc;" horiz-adv-x="1013" d="M0 0v1014h1014v-1014h-1014z" />
</font>
</defs>
</svg>
